<svg width="289" height="537" viewBox="0 0 289 537" fill="none" xmlns="http://www.w3.org/2000/svg">
<rect x="1" y="1" width="287" height="535" rx="12" fill="white" stroke="white" stroke-width="2"/>
<path d="M16.3893 112V53.824H73.1513C73.9593 53.824 74.7337 54.026 75.4743 54.43C76.215 54.7667 76.8547 55.2043 77.3933 55.743C77.9993 56.2817 78.4707 56.8877 78.8073 57.561C79.144 58.167 79.3123 58.773 79.3123 59.379V74.731C81.5343 76.8183 83.2513 78.6027 84.4633 80.084C85.7427 81.5653 86.6853 82.8447 87.2913 83.922C87.8973 84.932 88.2677 85.8073 88.4023 86.548C88.537 87.2887 88.6043 87.9957 88.6043 88.669V107.455C88.4023 108.465 87.7963 109.441 86.7863 110.384C85.8437 111.259 84.8 111.798 83.6553 112H16.3893ZM40.5283 70.59V83.417L41.0333 82.508C42.784 80.488 44.6693 78.7373 46.6893 77.256C48.7767 75.7747 51.5373 75.034 54.9713 75.034V70.59H40.5283ZM64.4653 95.234V90.689H40.5283V95.234H64.4653ZM76.1123 194.335L84.5963 211H30.8643C28.373 211 26.151 210.293 24.1983 208.879C22.313 207.398 21.3703 205.209 21.3703 202.314V152.824H45.5093V194.335H76.1123ZM92.8471 310H68.6071V294.85H50.1241L58.7091 278.084H68.6071V268.59H57.5981L36.2871 310H10.6331L40.1251 251.824H84.4641C85.2721 251.824 86.1475 252.06 87.0901 252.531C88.1001 253.002 89.0091 253.608 89.8171 254.349C90.6925 255.022 91.3995 255.797 91.9381 256.672C92.5441 257.48 92.8471 258.288 92.8471 259.096V310ZM40.8736 367.489V378.902C41.9509 377.219 43.1629 375.872 44.5096 374.862C45.9236 373.852 47.4386 373.111 49.0546 372.64C50.6706 372.169 52.3539 371.866 54.1046 371.731C55.9226 371.596 57.7406 371.529 59.5586 371.529H77.6376C78.8496 371.529 80.0952 371.731 81.3746 372.135C82.6539 372.539 83.7986 373.145 84.8086 373.953C85.8186 374.694 86.6266 375.636 87.2326 376.781C87.9059 377.926 88.2426 379.205 88.2426 380.619V399.91C88.2426 401.324 87.9396 402.603 87.3336 403.748C86.7276 404.893 85.9532 405.869 85.0106 406.677C84.0679 407.418 82.9569 407.99 81.6776 408.394C80.4656 408.798 79.2536 409 78.0416 409H16.7346V392.335H64.1036V388.194H27.3396C26.1276 388.194 24.8819 387.992 23.6026 387.588C22.3232 387.184 21.1786 386.612 20.1686 385.871C19.1586 385.063 18.3169 384.087 17.6436 382.942C17.0376 381.797 16.7346 380.518 16.7346 379.104V359.914C16.7346 358.5 17.0376 357.221 17.6436 356.076C18.2496 354.931 19.0239 353.989 19.9666 353.248C20.9092 352.44 21.9866 351.834 23.1986 351.43C24.4779 351.026 25.7236 350.824 26.9356 350.824H88.2426V367.489H40.8736ZM19.6935 449.824H85.3435V466.59H61.7095V491.335H71.2035V508H48.1755C46.9635 508 45.7179 507.798 44.4385 507.394C43.1592 506.99 42.0145 506.418 41.0045 505.677C39.9945 504.869 39.1529 503.893 38.4795 502.748C37.8735 501.603 37.5705 500.324 37.5705 498.91V466.59H19.6935V449.824Z" fill="black"/>
<path d="M108.389 112V53.824H165.151C165.959 53.824 166.734 54.026 167.474 54.43C168.215 54.7667 168.855 55.2043 169.393 55.743C169.999 56.2817 170.471 56.8877 170.807 57.561C171.144 58.167 171.312 58.773 171.312 59.379V74.731C173.534 76.8183 175.251 78.6027 176.463 80.084C177.743 81.5653 178.685 82.8447 179.291 83.922C179.897 84.932 180.268 85.8073 180.402 86.548C180.537 87.2887 180.604 87.9957 180.604 88.669V107.455C180.402 108.465 179.796 109.441 178.786 110.384C177.844 111.259 176.8 111.798 175.655 112H108.389ZM132.528 70.59V83.417L133.033 82.508C134.784 80.488 136.669 78.7373 138.689 77.256C140.777 75.7747 143.537 75.034 146.971 75.034V70.59H132.528ZM156.465 95.234V90.689H132.528V95.234H156.465ZM168.112 194.335L176.596 211H122.864C120.373 211 118.151 210.293 116.198 208.879C114.313 207.398 113.37 205.209 113.37 202.314V152.824H137.509V194.335H168.112ZM184.847 310H160.607V294.85H142.124L150.709 278.084H160.607V268.59H149.598L128.287 310H102.633L132.125 251.824H176.464C177.272 251.824 178.147 252.06 179.09 252.531C180.1 253.002 181.009 253.608 181.817 254.349C182.692 255.022 183.399 255.797 183.938 256.672C184.544 257.48 184.847 258.288 184.847 259.096V310ZM132.874 367.489V378.902C133.951 377.219 135.163 375.872 136.51 374.862C137.924 373.852 139.439 373.111 141.055 372.64C142.671 372.169 144.354 371.866 146.105 371.731C147.923 371.596 149.741 371.529 151.559 371.529H169.638C170.85 371.529 172.095 371.731 173.375 372.135C174.654 372.539 175.799 373.145 176.809 373.953C177.819 374.694 178.627 375.636 179.233 376.781C179.906 377.926 180.243 379.205 180.243 380.619V399.91C180.243 401.324 179.94 402.603 179.334 403.748C178.728 404.893 177.953 405.869 177.011 406.677C176.068 407.418 174.957 407.99 173.678 408.394C172.466 408.798 171.254 409 170.042 409H108.735V392.335H156.104V388.194H119.34C118.128 388.194 116.882 387.992 115.603 387.588C114.323 387.184 113.179 386.612 112.169 385.871C111.159 385.063 110.317 384.087 109.644 382.942C109.038 381.797 108.735 380.518 108.735 379.104V359.914C108.735 358.5 109.038 357.221 109.644 356.076C110.25 354.931 111.024 353.989 111.967 353.248C112.909 352.44 113.987 351.834 115.199 351.43C116.478 351.026 117.724 350.824 118.936 350.824H180.243V367.489H132.874ZM111.694 449.824H177.344V466.59H153.71V491.335H163.204V508H140.176C138.964 508 137.718 507.798 136.439 507.394C135.159 506.99 134.015 506.418 133.005 505.677C131.995 504.869 131.153 503.893 130.48 502.748C129.874 501.603 129.571 500.324 129.571 498.91V466.59H111.694V449.824Z" fill="black"/>
<path d="M192.389 112V53.824H249.151C249.959 53.824 250.734 54.026 251.474 54.43C252.215 54.7667 252.855 55.2043 253.393 55.743C253.999 56.2817 254.471 56.8877 254.807 57.561C255.144 58.167 255.312 58.773 255.312 59.379V74.731C257.534 76.8183 259.251 78.6027 260.463 80.084C261.743 81.5653 262.685 82.8447 263.291 83.922C263.897 84.932 264.268 85.8073 264.402 86.548C264.537 87.2887 264.604 87.9957 264.604 88.669V107.455C264.402 108.465 263.796 109.441 262.786 110.384C261.844 111.259 260.8 111.798 259.655 112H192.389ZM216.528 70.59V83.417L217.033 82.508C218.784 80.488 220.669 78.7373 222.689 77.256C224.777 75.7747 227.537 75.034 230.971 75.034V70.59H216.528ZM240.465 95.234V90.689H216.528V95.234H240.465ZM252.112 194.335L260.596 211H206.864C204.373 211 202.151 210.293 200.198 208.879C198.313 207.398 197.37 205.209 197.37 202.314V152.824H221.509V194.335H252.112ZM268.847 310H244.607V294.85H226.124L234.709 278.084H244.607V268.59H233.598L212.287 310H186.633L216.125 251.824H260.464C261.272 251.824 262.147 252.06 263.09 252.531C264.1 253.002 265.009 253.608 265.817 254.349C266.692 255.022 267.399 255.797 267.938 256.672C268.544 257.48 268.847 258.288 268.847 259.096V310ZM216.874 367.489V378.902C217.951 377.219 219.163 375.872 220.51 374.862C221.924 373.852 223.439 373.111 225.055 372.64C226.671 372.169 228.354 371.866 230.105 371.731C231.923 371.596 233.741 371.529 235.559 371.529H253.638C254.85 371.529 256.095 371.731 257.375 372.135C258.654 372.539 259.799 373.145 260.809 373.953C261.819 374.694 262.627 375.636 263.233 376.781C263.906 377.926 264.243 379.205 264.243 380.619V399.91C264.243 401.324 263.94 402.603 263.334 403.748C262.728 404.893 261.953 405.869 261.011 406.677C260.068 407.418 258.957 407.99 257.678 408.394C256.466 408.798 255.254 409 254.042 409H192.735V392.335H240.104V388.194H203.34C202.128 388.194 200.882 387.992 199.603 387.588C198.323 387.184 197.179 386.612 196.169 385.871C195.159 385.063 194.317 384.087 193.644 382.942C193.038 381.797 192.735 380.518 192.735 379.104V359.914C192.735 358.5 193.038 357.221 193.644 356.076C194.25 354.931 195.024 353.989 195.967 353.248C196.909 352.44 197.987 351.834 199.199 351.43C200.478 351.026 201.724 350.824 202.936 350.824H264.243V367.489H216.874ZM195.694 449.824H261.344V466.59H237.71V491.335H247.204V508H224.176C222.964 508 221.718 507.798 220.439 507.394C219.159 506.99 218.015 506.418 217.005 505.677C215.995 504.869 215.153 503.893 214.48 502.748C213.874 501.603 213.571 500.324 213.571 498.91V466.59H195.694V449.824Z" fill="black"/>
</svg>
