<svg width="524" height="237" viewBox="0 0 524 237" fill="none" xmlns="http://www.w3.org/2000/svg">
<mask id="mask0_15_199" style="mask-type:alpha" maskUnits="userSpaceOnUse" x="0" y="0" width="524" height="237">
<rect x="1" y="1" width="522" height="235" rx="12" fill="white" stroke="white" stroke-width="2"/>
</mask>
<g mask="url(#mask0_15_199)">
<rect x="1" y="1" width="522" height="235" rx="12" fill="white" stroke="white" stroke-width="2"/>
<path d="M152.025 169.276L149.44 167.755L149.405 167.813L149.374 167.872L152.025 169.276ZM147.537 174.699L149.311 177.118L149.362 177.081L149.411 177.042L147.537 174.699ZM141.179 177.878L140.276 175.017L141.179 177.878ZM24.6784 174.699L22.8043 177.042L22.8535 177.081L22.9043 177.118L24.6784 174.699ZM20.0034 169.276L17.352 170.68L17.3835 170.739L17.4176 170.797L20.0034 169.276ZM20.0034 81.012L17.4176 79.4909L17.3835 79.5489L17.352 79.6083L20.0034 81.012ZM24.6784 75.776L26.4525 78.1952L26.5033 78.158L26.5524 78.1186L24.6784 75.776ZM31.0364 72.41L30.133 69.5492L30.133 69.5492L31.0364 72.41ZM141.179 72.41L142.083 69.5492V69.5492L141.179 72.41ZM147.537 75.776L145.663 78.1186L145.712 78.158L145.763 78.1952L147.537 75.776ZM152.025 81.012L149.374 82.4157L149.405 82.4751L149.44 82.5331L152.025 81.012ZM109.202 102.33H112.202V99.33H109.202V102.33ZM63.0134 102.33V99.33H60.0134V102.33H63.0134ZM63.0134 147.771H60.0134V150.771H63.0134V147.771ZM109.202 147.771V150.771H112.202V147.771H109.202ZM150.895 162.17C150.895 164.289 150.397 166.127 149.44 167.755L154.611 170.797C156.147 168.187 156.895 165.287 156.895 162.17H150.895ZM149.374 167.872C148.444 169.629 147.212 171.117 145.663 172.356L149.411 177.042C151.603 175.289 153.363 173.161 154.677 170.68L149.374 167.872ZM145.763 172.28C144.176 173.444 142.355 174.361 140.276 175.017L142.083 180.739C144.742 179.899 147.159 178.697 149.311 177.118L145.763 172.28ZM140.276 175.017C138.169 175.683 136.167 176 134.26 176V182C136.842 182 139.453 181.569 142.083 180.739L140.276 175.017ZM134.26 176H37.9554V182H134.26V176ZM37.9554 176C36.0487 176 34.0471 175.683 31.9398 175.017L30.133 180.739C32.7629 181.569 35.374 182 37.9554 182V176ZM31.9398 175.017C29.8612 174.361 28.0401 173.444 26.4525 172.28L22.9043 177.118C25.0567 178.697 27.4742 179.899 30.133 180.739L31.9398 175.017ZM26.5525 172.356C24.9754 171.095 23.6556 169.568 22.5892 167.755L17.4176 170.797C18.8444 173.223 20.6413 175.311 22.8043 177.042L26.5525 172.356ZM22.6547 167.872C21.7822 166.224 21.3204 164.345 21.3204 162.17H15.3204C15.3204 165.231 15.9805 168.089 17.352 170.68L22.6547 167.872ZM21.3204 162.17V88.118H15.3204V162.17H21.3204ZM21.3204 88.118C21.3204 85.9434 21.7822 84.0637 22.6547 82.4157L17.352 79.6083C15.9805 82.1989 15.3204 85.0566 15.3204 88.118H21.3204ZM22.5892 82.5331C23.6418 80.7436 24.9308 79.3111 26.4525 78.1952L22.9043 73.3568C20.6859 74.9836 18.8583 77.0417 17.4176 79.4909L22.5892 82.5331ZM26.5524 78.1186C28.1229 76.8623 29.9105 75.9116 31.9398 75.2707L30.133 69.5492C27.4249 70.4044 24.9739 71.6977 22.8043 73.4334L26.5524 78.1186ZM31.9398 75.2707C34.0471 74.6053 36.0487 74.288 37.9554 74.288V68.288C35.374 68.288 32.7629 68.7187 30.133 69.5492L31.9398 75.2707ZM37.9554 74.288H134.26V68.288H37.9554V74.288ZM134.26 74.288C136.167 74.288 138.169 74.6053 140.276 75.2707L142.083 69.5492C139.453 68.7187 136.842 68.288 134.26 68.288V74.288ZM140.276 75.2707C142.305 75.9116 144.093 76.8623 145.663 78.1186L149.411 73.4334C147.242 71.6977 144.791 70.4044 142.083 69.5492L140.276 75.2707ZM145.763 78.1952C147.255 79.2894 148.457 80.6827 149.374 82.4157L154.677 79.6083C153.35 77.1026 151.559 75.0053 149.311 73.3568L145.763 78.1952ZM149.44 82.5331C150.397 84.1613 150.895 85.9989 150.895 88.118H156.895C156.895 85.0011 156.147 82.1013 154.611 79.4909L149.44 82.5331ZM150.895 88.118V162.17H156.895V88.118H150.895ZM109.202 99.33H63.0134V105.33H109.202V99.33ZM60.0134 102.33V147.771H66.0134V102.33H60.0134ZM63.0134 150.771H109.202V144.771H63.0134V150.771ZM112.202 147.771V102.33H106.202V147.771H112.202ZM272.278 71.288L275.044 70.127L274.272 68.288H272.278V71.288ZM293.783 122.526L291.017 123.687L293.795 130.307L296.553 123.678L293.783 122.526ZM315.101 71.288V68.288H313.1L312.331 70.1356L315.101 71.288ZM360.168 71.288L362.918 72.4864L364.748 68.288H360.168V71.288ZM313.231 179V182H315.196L315.981 180.198L313.231 179ZM274.335 179L271.576 180.178L272.354 182H274.335V179ZM261.806 149.641L264.565 148.463L261.847 142.093L259.06 148.434L261.806 149.641ZM248.903 179V182H250.862L251.65 180.207L248.903 179ZM210.007 179L207.257 180.198L208.042 182H210.007V179ZM163.07 71.288V68.288H158.49L160.32 72.4864L163.07 71.288ZM208.137 71.288L210.907 70.1356L210.138 68.288H208.137V71.288ZM229.455 122.526L226.685 123.678L229.428 130.271L232.217 123.698L229.455 122.526ZM239.927 97.842L242.689 99.0136L243.197 97.8153L242.669 96.6254L239.927 97.842ZM228.146 71.288V68.288H223.533L225.404 72.5046L228.146 71.288ZM269.512 72.449L291.017 123.687L296.549 121.365L275.044 70.127L269.512 72.449ZM296.553 123.678L317.871 72.4404L312.331 70.1356L291.013 121.374L296.553 123.678ZM315.101 74.288H360.168V68.288H315.101V74.288ZM357.418 70.0895L310.481 177.802L315.981 180.198L362.918 72.4864L357.418 70.0895ZM313.231 176H274.335V182H313.231V176ZM277.094 177.822L264.565 148.463L259.047 150.819L271.576 180.178L277.094 177.822ZM259.06 148.434L246.157 177.793L251.65 180.207L264.553 150.848L259.06 148.434ZM248.903 176H210.007V182H248.903V176ZM212.757 177.802L165.82 70.0895L160.32 72.4864L207.257 180.198L212.757 177.802ZM163.07 74.288H208.137V68.288H163.07V74.288ZM205.367 72.4404L226.685 123.678L232.225 121.374L210.907 70.1356L205.367 72.4404ZM232.217 123.698L242.689 99.0136L237.165 96.6703L226.693 121.354L232.217 123.698ZM242.669 96.6254L230.888 70.0714L225.404 72.5046L237.185 99.0586L242.669 96.6254ZM228.146 74.288H272.278V68.288H228.146V74.288ZM506.712 71.288H509.712V68.288H506.712V71.288ZM506.712 179V182H509.712V179H506.712ZM377.495 174.699L375.621 177.042L375.67 177.081L375.721 177.118L377.495 174.699ZM372.82 169.276L370.168 170.68L370.2 170.739L370.234 170.797L372.82 169.276ZM371.137 71.288V68.288H368.137V71.288H371.137ZM415.83 71.288H418.83V68.288H415.83V71.288ZM415.83 148.145H412.83V151.145H415.83V148.145ZM462.019 148.145V151.145H465.019V148.145H462.019ZM462.019 71.288V68.288H459.019V71.288H462.019ZM503.712 71.288V179H509.712V71.288H503.712ZM506.712 176H390.772V182H506.712V176ZM390.772 176C388.865 176 386.864 175.683 384.756 175.017L382.949 180.739C385.579 181.569 388.19 182 390.772 182V176ZM384.756 175.017C382.678 174.361 380.856 173.444 379.269 172.28L375.721 177.118C377.873 178.697 380.291 179.899 382.949 180.739L384.756 175.017ZM379.369 172.356C377.792 171.095 376.472 169.568 375.406 167.755L370.234 170.797C371.661 173.223 373.458 175.311 375.621 177.042L379.369 172.356ZM375.471 167.872C374.599 166.224 374.137 164.345 374.137 162.17H368.137C368.137 165.231 368.797 168.089 370.168 170.68L375.471 167.872ZM374.137 162.17V71.288H368.137V162.17H374.137ZM371.137 74.288H415.83V68.288H371.137V74.288ZM412.83 71.288V148.145H418.83V71.288H412.83ZM415.83 151.145H462.019V145.145H415.83V151.145ZM465.019 148.145V71.288H459.019V148.145H465.019ZM462.019 74.288H506.712V68.288H462.019V74.288Z" fill="black"/>
</g>
</svg>
