<svg width="272" height="105" viewBox="0 0 272 105" fill="none" xmlns="http://www.w3.org/2000/svg">
<g filter="url(#filter0_d_17_689)">
<mask id="mask0_17_689" style="mask-type:alpha" maskUnits="userSpaceOnUse" x="0" y="0" width="252" height="82">
<path fill-rule="evenodd" clip-rule="evenodd" d="M0 58.8368V82H23.1632L0 58.8368ZM252 23.1632V0H228.837L252 23.1632Z" fill="#CBEDFF"/>
<path fill-rule="evenodd" clip-rule="evenodd" d="M44.5957 82L0 37.4043V0H207.404L252 44.5958V82H44.5957Z" fill="#CBEDFF"/>
</mask>
<g mask="url(#mask0_17_689)">
<path fill-rule="evenodd" clip-rule="evenodd" d="M0 58.8368V82H23.1632L0 58.8368ZM252 23.1632V0H228.837L252 23.1632Z" fill="black"/>
<path fill-rule="evenodd" clip-rule="evenodd" d="M44.5957 82L0 37.4043V0H207.404L252 44.5958V82H44.5957Z" fill="black"/>
<path d="M68.4902 51H61.2902V46.5H55.8002L58.3502 41.52H61.2902V38.7H58.0202L51.6902 51H44.0702L52.8302 33.72H66.0002C66.2402 33.72 66.5002 33.79 66.7802 33.93C67.0802 34.07 67.3502 34.25 67.5902 34.47C67.8502 34.67 68.0602 34.9 68.2202 35.16C68.4002 35.4 68.4902 35.64 68.4902 35.88V51ZM88.6816 46.47H77.8816V51H70.7116V33.72H88.6816C89.0416 33.72 89.4016 33.77 89.7616 33.87C90.1216 33.97 90.4416 34.13 90.7216 34.35C91.0016 34.55 91.2216 34.81 91.3816 35.13C91.5616 35.45 91.6516 35.82 91.6516 36.24V43.95C91.6516 44.37 91.5616 44.74 91.3816 45.06C91.2216 45.38 91.0016 45.65 90.7216 45.87C90.4416 46.07 90.1216 46.22 89.7616 46.32C89.4016 46.42 89.0416 46.47 88.6816 46.47ZM84.4816 38.7H77.8816V44.22C78.5216 43.2 79.3316 42.5 80.3116 42.12C81.2916 41.72 82.3316 41.52 83.4316 41.52H84.4816V38.7ZM93.8854 36.42C93.8854 36 93.9754 35.62 94.1554 35.28C94.3554 34.94 94.6054 34.66 94.9054 34.44C95.2054 34.2 95.5454 34.02 95.9254 33.9C96.3054 33.78 96.6754 33.72 97.0354 33.72H112.485C112.845 33.72 113.215 33.78 113.595 33.9C113.975 34.02 114.315 34.2 114.615 34.44C114.915 34.66 115.155 34.94 115.335 35.28C115.535 35.62 115.635 36 115.635 36.42V44.7H103.155L105.405 39.96H108.465V38.7H101.055V46.02H115.635V51H97.0354C96.6754 51 96.3054 50.94 95.9254 50.82C95.5454 50.7 95.2054 50.53 94.9054 50.31C94.6054 50.07 94.3554 49.78 94.1554 49.44C93.9754 49.1 93.8854 48.72 93.8854 48.3V36.42ZM128.133 51V33.72H146.733C147.093 33.72 147.463 33.78 147.843 33.9C148.223 34.02 148.563 34.2 148.863 34.44C149.163 34.66 149.403 34.94 149.583 35.28C149.783 35.62 149.883 36 149.883 36.42V51H142.713V38.67H135.303V51H128.133ZM173.848 48.3C173.848 48.72 173.748 49.1 173.548 49.44C173.368 49.78 173.128 50.07 172.828 50.31C172.528 50.53 172.188 50.7 171.808 50.82C171.428 50.94 171.058 51 170.698 51H155.248C154.888 51 154.518 50.94 154.138 50.82C153.758 50.7 153.418 50.53 153.118 50.31C152.818 50.07 152.568 49.78 152.368 49.44C152.188 49.1 152.098 48.72 152.098 48.3V36.42C152.098 36 152.188 35.62 152.368 35.28C152.568 34.94 152.818 34.66 153.118 34.44C153.418 34.2 153.758 34.02 154.138 33.9C154.518 33.78 154.888 33.72 155.248 33.72H170.698C171.058 33.72 171.428 33.78 171.808 33.9C172.188 34.02 172.528 34.2 172.828 34.44C173.128 34.66 173.368 34.94 173.548 35.28C173.748 35.62 173.848 36 173.848 36.42V48.3ZM166.678 38.7H159.268V45.99H166.678V38.7ZM192.84 33.72L196.29 41.94L199.71 33.72H206.94L199.41 51H193.17L191.16 46.29L189.09 51H182.85L175.32 33.72H182.55L185.97 41.94L187.65 37.98L185.76 33.72H192.84Z" fill="white"/>
</g>
</g>
<defs>
<filter id="filter0_d_17_689" x="0" y="0" width="272" height="105" filterUnits="userSpaceOnUse" color-interpolation-filters="sRGB">
<feFlood flood-opacity="0" result="BackgroundImageFix"/>
<feColorMatrix in="SourceAlpha" type="matrix" values="0 0 0 0 0 0 0 0 0 0 0 0 0 0 0 0 0 0 127 0" result="hardAlpha"/>
<feOffset dx="13" dy="16"/>
<feGaussianBlur stdDeviation="3.5"/>
<feColorMatrix type="matrix" values="0 0 0 0 0 0 0 0 0 0 0 0 0 0 0 0 0 0 0.25 0"/>
<feBlend mode="normal" in2="BackgroundImageFix" result="effect1_dropShadow_17_689"/>
<feBlend mode="normal" in="SourceGraphic" in2="effect1_dropShadow_17_689" result="shape"/>
</filter>
</defs>
</svg>
