<svg width="272" height="105" viewBox="0 0 272 105" fill="none" xmlns="http://www.w3.org/2000/svg">
<g filter="url(#filter0_d_13_75)">
<mask id="mask0_13_75" style="mask-type:alpha" maskUnits="userSpaceOnUse" x="0" y="0" width="252" height="82">
<mask id="path-1-inside-1_13_75" fill="white">
<path fill-rule="evenodd" clip-rule="evenodd" d="M0 58.8368V82H23.1632L0 58.8368ZM252 23.1632V0H228.837L252 23.1632Z"/>
</mask>
<path fill-rule="evenodd" clip-rule="evenodd" d="M0 58.8368V82H23.1632L0 58.8368ZM252 23.1632V0H228.837L252 23.1632Z" fill="#CBEDFF"/>
<path d="M0 82H-1V83H0V82ZM0 58.8368L0.707107 58.1297L-1 56.4226V58.8368H0ZM23.1632 82V83H25.5774L23.8703 81.2929L23.1632 82ZM252 0H253V-1H252V0ZM252 23.1632L251.293 23.8703L253 25.5774V23.1632H252ZM228.837 0V-1H226.423L228.13 0.707107L228.837 0ZM1 82V58.8368H-1V82H1ZM23.1632 81H0V83H23.1632V81ZM23.8703 81.2929L0.707107 58.1297L-0.707107 59.544L22.456 82.7071L23.8703 81.2929ZM251 0V23.1632H253V0H251ZM228.837 1H252V-1H228.837V1ZM228.13 0.707107L251.293 23.8703L252.707 22.4561L229.544 -0.707107L228.13 0.707107Z" fill="black" mask="url(#path-1-inside-1_13_75)"/>
<mask id="path-3-inside-2_13_75" fill="white">
<path fill-rule="evenodd" clip-rule="evenodd" d="M44.5957 82L0 37.4043V0H207.404L252 44.5958V82H44.5957Z"/>
</mask>
<path fill-rule="evenodd" clip-rule="evenodd" d="M44.5957 82L0 37.4043V0H207.404L252 44.5958V82H44.5957Z" fill="#CBEDFF"/>
<path d="M44.5957 82L43.8886 82.7071L44.1815 83H44.5957V82ZM0 37.4043H-1V37.8185L-0.707107 38.1114L0 37.4043ZM0 0V-1H-1V0H0ZM207.404 0L208.111 -0.707107L207.818 -1H207.404V0ZM252 44.5958H253V44.1816L252.707 43.8887L252 44.5958ZM252 82V83H253V82H252ZM45.3028 81.2929L0.707107 36.6972L-0.707107 38.1114L43.8886 82.7071L45.3028 81.2929ZM1 37.4043V0H-1V37.4043H1ZM0 1H207.404V-1H0V1ZM206.697 0.707107L251.293 45.3029L252.707 43.8887L208.111 -0.707107L206.697 0.707107ZM251 44.5958V82H253V44.5958H251ZM252 81H44.5957V83H252V81Z" fill="black" mask="url(#path-3-inside-2_13_75)"/>
</mask>
<g mask="url(#mask0_13_75)">
<mask id="path-5-inside-3_13_75" fill="white">
<path fill-rule="evenodd" clip-rule="evenodd" d="M0 58.8368V82H23.1632L0 58.8368ZM252 23.1632V0H228.837L252 23.1632Z"/>
</mask>
<path fill-rule="evenodd" clip-rule="evenodd" d="M0 58.8368V82H23.1632L0 58.8368ZM252 23.1632V0H228.837L252 23.1632Z" fill="#CBEDFF"/>
<path d="M0 82H-1V83H0V82ZM0 58.8368L0.707107 58.1297L-1 56.4226V58.8368H0ZM23.1632 82V83H25.5774L23.8703 81.2929L23.1632 82ZM252 0H253V-1H252V0ZM252 23.1632L251.293 23.8703L253 25.5774V23.1632H252ZM228.837 0V-1H226.423L228.13 0.707107L228.837 0ZM1 82V58.8368H-1V82H1ZM23.1632 81H0V83H23.1632V81ZM23.8703 81.2929L0.707107 58.1297L-0.707107 59.544L22.456 82.7071L23.8703 81.2929ZM251 0V23.1632H253V0H251ZM228.837 1H252V-1H228.837V1ZM228.13 0.707107L251.293 23.8703L252.707 22.4561L229.544 -0.707107L228.13 0.707107Z" fill="black" mask="url(#path-5-inside-3_13_75)"/>
<mask id="path-7-inside-4_13_75" fill="white">
<path fill-rule="evenodd" clip-rule="evenodd" d="M44.5957 82L0 37.4043V0H207.404L252 44.5958V82H44.5957Z"/>
</mask>
<path fill-rule="evenodd" clip-rule="evenodd" d="M44.5957 82L0 37.4043V0H207.404L252 44.5958V82H44.5957Z" fill="#CBEDFF"/>
<path d="M44.5957 82L43.8886 82.7071L44.1815 83H44.5957V82ZM0 37.4043H-1V37.8185L-0.707107 38.1114L0 37.4043ZM0 0V-1H-1V0H0ZM207.404 0L208.111 -0.707107L207.818 -1H207.404V0ZM252 44.5958H253V44.1816L252.707 43.8887L252 44.5958ZM252 82V83H253V82H252ZM45.3028 81.2929L0.707107 36.6972L-0.707107 38.1114L43.8886 82.7071L45.3028 81.2929ZM1 37.4043V0H-1V37.4043H1ZM0 1H207.404V-1H0V1ZM206.697 0.707107L251.293 45.3029L252.707 43.8887L208.111 -0.707107L206.697 0.707107ZM251 44.5958V82H253V44.5958H251ZM252 81H44.5957V83H252V81Z" fill="black" mask="url(#path-7-inside-4_13_75)"/>
<path d="M68.4902 51H61.2902V46.5H55.8002L58.3502 41.52H61.2902V38.7H58.0202L51.6902 51H44.0702L52.8302 33.72H66.0002C66.2402 33.72 66.5002 33.79 66.7802 33.93C67.0802 34.07 67.3502 34.25 67.5902 34.47C67.8502 34.67 68.0602 34.9 68.2202 35.16C68.4002 35.4 68.4902 35.64 68.4902 35.88V51ZM88.6816 46.47H77.8816V51H70.7116V33.72H88.6816C89.0416 33.72 89.4016 33.77 89.7616 33.87C90.1216 33.97 90.4416 34.13 90.7216 34.35C91.0016 34.55 91.2216 34.81 91.3816 35.13C91.5616 35.45 91.6516 35.82 91.6516 36.24V43.95C91.6516 44.37 91.5616 44.74 91.3816 45.06C91.2216 45.38 91.0016 45.65 90.7216 45.87C90.4416 46.07 90.1216 46.22 89.7616 46.32C89.4016 46.42 89.0416 46.47 88.6816 46.47ZM84.4816 38.7H77.8816V44.22C78.5216 43.2 79.3316 42.5 80.3116 42.12C81.2916 41.72 82.3316 41.52 83.4316 41.52H84.4816V38.7ZM93.8854 36.42C93.8854 36 93.9754 35.62 94.1554 35.28C94.3554 34.94 94.6054 34.66 94.9054 34.44C95.2054 34.2 95.5454 34.02 95.9254 33.9C96.3054 33.78 96.6754 33.72 97.0354 33.72H112.485C112.845 33.72 113.215 33.78 113.595 33.9C113.975 34.02 114.315 34.2 114.615 34.44C114.915 34.66 115.155 34.94 115.335 35.28C115.535 35.62 115.635 36 115.635 36.42V44.7H103.155L105.405 39.96H108.465V38.7H101.055V46.02H115.635V51H97.0354C96.6754 51 96.3054 50.94 95.9254 50.82C95.5454 50.7 95.2054 50.53 94.9054 50.31C94.6054 50.07 94.3554 49.78 94.1554 49.44C93.9754 49.1 93.8854 48.72 93.8854 48.3V36.42ZM149.883 48.3C149.883 48.72 149.783 49.1 149.583 49.44C149.403 49.78 149.163 50.07 148.863 50.31C148.563 50.53 148.223 50.7 147.843 50.82C147.463 50.94 147.093 51 146.733 51H131.283C130.923 51 130.553 50.94 130.173 50.82C129.793 50.7 129.453 50.53 129.153 50.31C128.853 50.07 128.603 49.78 128.403 49.44C128.223 49.1 128.133 48.72 128.133 48.3V36.42C128.133 36 128.223 35.62 128.403 35.28C128.603 34.94 128.853 34.66 129.153 34.44C129.453 34.2 129.793 34.02 130.173 33.9C130.553 33.78 130.923 33.72 131.283 33.72H146.733C147.093 33.72 147.463 33.78 147.843 33.9C148.223 34.02 148.563 34.2 148.863 34.44C149.163 34.66 149.403 34.94 149.583 35.28C149.783 35.62 149.883 36 149.883 36.42V48.3ZM142.713 38.7H135.303V45.99H142.713V38.7ZM168.875 33.72L172.325 41.94L175.745 33.72H182.975L175.445 51H169.205L167.195 46.29L165.125 51H158.885L151.355 33.72H158.585L162.005 41.94L163.685 37.98L161.795 33.72H168.875ZM206.485 33.72V51H187.885C187.525 51 187.155 50.94 186.775 50.82C186.395 50.7 186.055 50.53 185.755 50.31C185.455 50.07 185.205 49.78 185.005 49.44C184.825 49.1 184.735 48.72 184.735 48.3V33.72H191.905V46.05H199.315V33.72H206.485Z" fill="black"/>
</g>
</g>
<defs>
<filter id="filter0_d_13_75" x="0" y="0" width="272" height="105" filterUnits="userSpaceOnUse" color-interpolation-filters="sRGB">
<feFlood flood-opacity="0" result="BackgroundImageFix"/>
<feColorMatrix in="SourceAlpha" type="matrix" values="0 0 0 0 0 0 0 0 0 0 0 0 0 0 0 0 0 0 127 0" result="hardAlpha"/>
<feOffset dx="13" dy="16"/>
<feGaussianBlur stdDeviation="3.5"/>
<feColorMatrix type="matrix" values="0 0 0 0 0 0 0 0 0 0 0 0 0 0 0 0 0 0 0.25 0"/>
<feBlend mode="normal" in2="BackgroundImageFix" result="effect1_dropShadow_13_75"/>
<feBlend mode="normal" in="SourceGraphic" in2="effect1_dropShadow_13_75" result="shape"/>
</filter>
</defs>
</svg>
