<svg width="963" height="397" viewBox="0 0 963 397" fill="none" xmlns="http://www.w3.org/2000/svg">
<path d="M145.036 135H130.457V122.434H117.098V135H102.519V99.864H117.098V117.859C118.4 115.785 120.006 114.362 121.917 113.589C123.829 112.776 125.903 112.369 128.139 112.369H130.457V99.864H145.036V135ZM193.805 129.51C193.805 130.364 193.601 131.137 193.195 131.828C192.829 132.519 192.341 133.109 191.731 133.597C191.121 134.044 190.429 134.39 189.657 134.634C188.884 134.878 188.132 135 187.4 135H155.985C155.253 135 154.5 134.878 153.728 134.634C152.955 134.39 152.264 134.044 151.654 133.597C151.044 133.109 150.535 132.519 150.129 131.828C149.763 131.137 149.58 130.364 149.58 129.51V105.354C149.58 104.5 149.763 103.727 150.129 103.036C150.535 102.345 151.044 101.775 151.654 101.328C152.264 100.84 152.955 100.474 153.728 100.23C154.5 99.986 155.253 99.864 155.985 99.864H187.4C188.132 99.864 188.884 99.986 189.657 100.23C190.429 100.474 191.121 100.84 191.731 101.328C192.341 101.775 192.829 102.345 193.195 103.036C193.601 103.727 193.805 104.5 193.805 105.354V129.51ZM179.226 109.99H164.159V124.813H179.226V109.99ZM232.422 99.864L239.437 116.578L246.391 99.864H261.092L245.781 135H233.093L229.006 125.423L224.797 135H212.109L196.798 99.864L211.499 99.864L218.453 116.578L221.869 108.526L218.026 99.864H232.422ZM285.579 99.864H325.229V109.99H310.955V124.935H316.689V135H302.781C302.049 135 301.296 134.878 300.524 134.634C299.751 134.39 299.06 134.044 298.45 133.597C297.84 133.109 297.331 132.519 296.925 131.828C296.559 131.137 296.376 130.364 296.376 129.51V109.99H285.579V99.864ZM373.945 129.51C373.945 130.364 373.742 131.137 373.335 131.828C372.969 132.519 372.481 133.109 371.871 133.597C371.261 134.044 370.57 134.39 369.797 134.634C369.025 134.878 368.272 135 367.54 135L336.125 135C335.393 135 334.641 134.878 333.868 134.634C333.096 134.39 332.404 134.044 331.794 133.597C331.184 133.109 330.676 132.519 330.269 131.828C329.903 131.137 329.72 130.364 329.72 129.51V105.354C329.72 104.5 329.903 103.727 330.269 103.036C330.676 102.345 331.184 101.775 331.794 101.328C332.404 100.84 333.096 100.474 333.868 100.23C334.641 99.986 335.393 99.864 336.125 99.864H367.54C368.272 99.864 369.025 99.986 369.797 100.23C370.57 100.474 371.261 100.84 371.871 101.328C372.481 101.775 372.969 102.345 373.335 103.036C373.742 103.727 373.945 104.5 373.945 105.354V129.51ZM359.366 109.99H344.299V124.813L359.366 124.813V109.99ZM399.358 135V99.864H433.64C434.128 99.864 434.596 99.986 435.043 100.23C435.49 100.433 435.877 100.698 436.202 101.023C436.568 101.348 436.853 101.714 437.056 102.121C437.259 102.487 437.361 102.853 437.361 103.219V112.491C438.703 113.752 439.74 114.829 440.472 115.724C441.245 116.619 441.814 117.391 442.18 118.042C442.546 118.652 442.77 119.181 442.851 119.628C442.932 120.075 442.973 120.502 442.973 120.909V132.255C442.851 132.865 442.485 133.455 441.875 134.024C441.306 134.553 440.675 134.878 439.984 135H399.358ZM413.937 109.99V117.737L414.242 117.188C415.299 115.968 416.438 114.911 417.658 114.016C418.919 113.121 420.586 112.674 422.66 112.674V109.99H413.937ZM428.394 124.874V122.129H413.937V124.874H428.394ZM491.716 99.864V135H453.896C453.164 135 452.412 134.878 451.639 134.634C450.866 134.39 450.175 134.044 449.565 133.597C448.955 133.109 448.447 132.519 448.04 131.828C447.674 131.137 447.491 130.364 447.491 129.51V99.864H462.07V124.935H477.137V99.864H491.716ZM502.624 122.434C501.892 122.434 501.14 122.312 500.367 122.068C499.595 121.824 498.903 121.478 498.293 121.031C497.683 120.543 497.175 119.953 496.768 119.262C496.402 118.571 496.219 117.798 496.219 116.944V99.864H510.798V116.822C511.449 115.805 512.181 114.992 512.994 114.382C513.848 113.772 514.763 113.325 515.739 113.04C516.715 112.755 517.732 112.572 518.789 112.491C519.887 112.41 520.985 112.369 522.083 112.369H524.889V99.864H539.468V129.51C539.468 130.364 539.285 131.137 538.919 131.828C538.553 132.519 538.086 133.109 537.516 133.597C536.947 134.044 536.276 134.39 535.503 134.634C534.771 134.878 534.039 135 533.307 135H496.219V124.935H524.889V122.434H502.624Z" fill="black"/>
<path d="M404.82 276.755C404.82 280.059 404.033 283.048 402.46 285.723C401.044 288.398 399.156 290.679 396.796 292.567C394.436 294.298 391.761 295.635 388.772 296.579C385.783 297.523 382.872 297.995 380.04 297.995H258.5C255.668 297.995 252.757 297.523 249.768 296.579C246.779 295.635 244.104 294.298 241.744 292.567C239.384 290.679 237.417 288.398 235.844 285.723C234.428 283.048 233.72 280.059 233.72 276.755V183.299C233.72 179.995 234.428 177.006 235.844 174.331C237.417 171.656 239.384 169.454 241.744 167.723C244.104 165.835 246.779 164.419 249.768 163.475C252.757 162.531 255.668 162.059 258.5 162.059H380.04C382.872 162.059 385.783 162.531 388.772 163.475C391.761 164.419 394.436 165.835 396.796 167.723C399.156 169.454 401.044 171.656 402.46 174.331C404.033 177.006 404.82 179.995 404.82 183.299V276.755ZM348.416 201.235H290.124V258.583H348.416V201.235ZM554.223 162.059L581.363 226.723L608.267 162.059H665.143L605.907 297.995H556.819L541.007 260.943L524.723 297.995H475.635L416.399 162.059L473.275 162.059L500.179 226.723L513.395 195.571L498.527 162.059H554.223ZM850.086 162.059V297.995L703.766 297.995C700.934 297.995 698.023 297.523 695.034 296.579C692.044 295.635 689.37 294.298 687.01 292.567C684.65 290.679 682.683 288.398 681.11 285.723C679.694 283.048 678.986 280.059 678.986 276.755V162.059H735.39V259.055H793.682V162.059H850.086Z" fill="white"/>
<path d="M402.46 285.723L399.012 283.695L398.967 283.772L398.925 283.852L402.46 285.723ZM396.796 292.567L399.162 295.793L399.229 295.743L399.295 295.691L396.796 292.567ZM388.772 296.579L387.568 292.765L387.568 292.765L388.772 296.579ZM249.768 296.579L248.564 300.393L249.768 296.579ZM241.744 292.567L239.245 295.691L239.311 295.743L239.379 295.793L241.744 292.567ZM235.844 285.723L232.309 287.595L232.351 287.674L232.396 287.751L235.844 285.723ZM235.844 174.331L232.396 172.303L232.351 172.38L232.309 172.46L235.844 174.331ZM241.744 167.723L244.109 170.949L244.177 170.899L244.243 170.847L241.744 167.723ZM249.768 163.475L248.564 159.661L248.564 159.661L249.768 163.475ZM388.772 163.475L389.977 159.661L389.977 159.661L388.772 163.475ZM396.796 167.723L394.297 170.847L394.363 170.899L394.431 170.949L396.796 167.723ZM402.46 174.331L398.925 176.203L398.967 176.282L399.012 176.359L402.46 174.331ZM348.416 201.235H352.416V197.235H348.416V201.235ZM290.124 201.235V197.235H286.124V201.235H290.124ZM290.124 258.583H286.124V262.583H290.124V258.583ZM348.416 258.583V262.583H352.416V258.583H348.416ZM400.82 276.755C400.82 279.394 400.2 281.675 399.012 283.695L405.908 287.751C407.866 284.422 408.82 280.724 408.82 276.755H400.82ZM398.925 283.852C397.765 286.043 396.229 287.898 394.297 289.444L399.295 295.691C402.083 293.46 404.323 290.752 405.995 287.595L398.925 283.852ZM394.431 289.341C392.447 290.796 390.17 291.943 387.568 292.765L389.977 300.393C393.353 299.327 396.425 297.8 399.162 295.793L394.431 289.341ZM387.568 292.765C384.927 293.599 382.422 293.995 380.04 293.995V301.995C383.322 301.995 386.639 301.447 389.977 300.393L387.568 292.765ZM380.04 293.995H258.5V301.995H380.04V293.995ZM258.5 293.995C256.118 293.995 253.614 293.599 250.973 292.765L248.564 300.393C251.901 301.447 255.218 301.995 258.5 301.995V293.995ZM250.973 292.765C248.37 291.943 246.093 290.796 244.109 289.341L239.379 295.793C242.115 297.8 245.187 299.327 248.564 300.393L250.973 292.765ZM244.243 289.444C242.273 287.868 240.625 285.961 239.292 283.695L232.396 287.751C234.21 290.834 236.495 293.49 239.245 295.691L244.243 289.444ZM239.379 283.852C238.296 281.805 237.72 279.468 237.72 276.755H229.72C229.72 280.65 230.56 284.292 232.309 287.595L239.379 283.852ZM237.72 276.755V183.299H229.72V276.755H237.72ZM237.72 183.299C237.72 180.586 238.296 178.249 239.379 176.203L232.309 172.46C230.56 175.763 229.72 179.404 229.72 183.299H237.72ZM239.292 176.359C240.606 174.124 242.214 172.339 244.109 170.949L239.379 164.497C236.554 166.569 234.228 169.189 232.396 172.303L239.292 176.359ZM244.243 170.847C246.203 169.278 248.436 168.091 250.973 167.289L248.564 159.661C245.122 160.748 242.005 162.392 239.245 164.6L244.243 170.847ZM250.973 167.289C253.614 166.455 256.118 166.059 258.5 166.059V158.059C255.218 158.059 251.901 158.607 248.564 159.661L250.973 167.289ZM258.5 166.059H380.04V158.059H258.5V166.059ZM380.04 166.059C382.422 166.059 384.927 166.455 387.568 167.289L389.977 159.661C386.639 158.607 383.322 158.059 380.04 158.059V166.059ZM387.568 167.289C390.104 168.091 392.337 169.278 394.297 170.847L399.295 164.6C396.535 162.392 393.418 160.748 389.977 159.661L387.568 167.289ZM394.431 170.949C396.287 172.31 397.782 174.043 398.925 176.203L405.995 172.46C404.306 169.27 402.025 166.598 399.162 164.497L394.431 170.949ZM399.012 176.359C400.2 178.379 400.82 180.66 400.82 183.299H408.82C408.82 179.33 407.866 175.632 405.908 172.303L399.012 176.359ZM400.82 183.299V276.755H408.82V183.299H400.82ZM348.416 197.235H290.124V205.235H348.416V197.235ZM286.124 201.235V258.583H294.124V201.235H286.124ZM290.124 262.583H348.416V254.583H290.124V262.583ZM352.416 258.583V201.235H344.416V258.583H352.416ZM554.223 162.059L557.911 160.511L556.882 158.059H554.223V162.059ZM581.363 226.723L577.674 228.271L581.379 237.097L585.056 228.26L581.363 226.723ZM608.267 162.059V158.059H605.599L604.574 160.523L608.267 162.059ZM665.143 162.059L668.81 163.657L671.249 158.059H665.143V162.059ZM605.907 297.995V301.995H608.527L609.574 299.593L605.907 297.995ZM556.819 297.995L553.14 299.565L554.177 301.995H556.819V297.995ZM541.007 260.943L544.686 259.373L541.061 250.879L537.345 259.334L541.007 260.943ZM524.723 297.995V301.995H527.334L528.385 299.605L524.723 297.995ZM475.635 297.995L471.968 299.593L473.015 301.995H475.635V297.995ZM416.399 162.059V158.059H410.292L412.732 163.657L416.399 162.059ZM473.275 162.059L476.968 160.523L475.943 158.059H473.275V162.059ZM500.179 226.723L496.486 228.26L500.143 237.05L503.861 228.285L500.179 226.723ZM513.395 195.571L517.077 197.133L517.755 195.535L517.051 193.949L513.395 195.571ZM498.527 162.059V158.059H492.376L494.87 163.681L498.527 162.059ZM550.534 163.607L577.674 228.271L585.051 225.175L557.911 160.511L550.534 163.607ZM585.056 228.26L611.96 163.596L604.574 160.523L577.67 225.187L585.056 228.26ZM608.267 166.059H665.143V158.059H608.267V166.059ZM661.476 160.461L602.24 296.397L609.574 299.593L668.81 163.657L661.476 160.461ZM605.907 293.995H556.819V301.995H605.907V293.995ZM560.498 296.425L544.686 259.373L537.328 262.513L553.14 299.565L560.498 296.425ZM537.345 259.334L521.061 296.386L528.385 299.605L544.669 262.553L537.345 259.334ZM524.723 293.995H475.635V301.995H524.723V293.995ZM479.302 296.397L420.066 160.461L412.732 163.657L471.968 299.593L479.302 296.397ZM416.399 166.059L473.275 166.059V158.059L416.399 158.059V166.059ZM469.582 163.596L496.486 228.26L503.872 225.187L476.968 160.523L469.582 163.596ZM503.861 228.285L517.077 197.133L509.712 194.009L496.496 225.161L503.861 228.285ZM517.051 193.949L502.183 160.437L494.87 163.681L509.738 197.193L517.051 193.949ZM498.527 166.059H554.223V158.059H498.527V166.059ZM850.086 162.059H854.086V158.059H850.086V162.059ZM850.086 297.995V301.995H854.086V297.995H850.086ZM695.034 296.579L693.829 300.393L695.034 296.579ZM687.01 292.567L684.511 295.691L684.576 295.743L684.644 295.793L687.01 292.567ZM681.11 285.723L677.575 287.595L677.616 287.674L677.662 287.751L681.11 285.723ZM678.986 162.059V158.059H674.986V162.059H678.986ZM735.39 162.059H739.39V158.059H735.39V162.059ZM735.39 259.055H731.39V263.055H735.39V259.055ZM793.682 259.055V263.055H797.682V259.055H793.682ZM793.682 162.059V158.059H789.682V162.059H793.682ZM846.086 162.059V297.995H854.086V162.059H846.086ZM850.086 293.995L703.766 293.995V301.995L850.086 301.995V293.995ZM703.766 293.995C701.383 293.995 698.879 293.599 696.238 292.765L693.829 300.393C697.167 301.447 700.484 301.995 703.766 301.995V293.995ZM696.238 292.765C693.636 291.943 691.359 290.796 689.375 289.341L684.644 295.793C687.381 297.8 690.453 299.327 693.829 300.393L696.238 292.765ZM689.508 289.444C687.539 287.868 685.89 285.961 684.557 283.695L677.662 287.751C679.476 290.834 681.76 293.49 684.511 295.691L689.508 289.444ZM684.645 283.852C683.561 281.805 682.986 279.468 682.986 276.755H674.986C674.986 280.65 675.826 284.292 677.575 287.595L684.645 283.852ZM682.986 276.755V162.059H674.986V276.755H682.986ZM678.986 166.059H735.39V158.059H678.986V166.059ZM731.39 162.059V259.055H739.39V162.059H731.39ZM735.39 263.055H793.682V255.055H735.39V263.055ZM797.682 259.055V162.059H789.682V259.055H797.682ZM793.682 166.059H850.086V158.059H793.682V166.059Z" fill="black"/>
<path d="M15.19 327V93.144H243.362C246.61 93.144 249.723 93.956 252.7 95.58C255.677 96.9333 258.249 98.6927 260.414 100.858C262.85 103.023 264.745 105.459 266.098 108.166C267.451 110.602 268.128 113.038 268.128 115.474V177.186C277.06 185.577 283.962 192.749 288.834 198.704C293.977 204.659 297.766 209.801 300.202 214.132C302.638 218.192 304.127 221.711 304.668 224.688C305.209 227.665 305.48 230.507 305.48 233.214V308.73C304.668 312.79 302.232 316.715 298.172 320.504C294.383 324.023 290.187 326.188 285.586 327H15.19ZM112.224 160.54V212.102L114.254 208.448C121.291 200.328 128.87 193.291 136.99 187.336C145.381 181.381 156.478 178.404 170.282 178.404V160.54H112.224ZM208.446 259.604V241.334H112.224V259.604H208.446ZM629.899 93.144V327H378.179C373.307 327 368.3 326.188 363.157 324.564C358.015 322.94 353.413 320.639 349.353 317.662C345.293 314.414 341.91 310.489 339.203 305.888C336.767 301.287 335.549 296.144 335.549 290.46V93.144H432.583V260.01H532.865V93.144H629.899ZM702.504 243.364C697.632 243.364 692.624 242.552 687.482 240.928C682.339 239.304 677.738 237.003 673.678 234.026C669.618 230.778 666.234 226.853 663.528 222.252C661.092 217.651 659.874 212.508 659.874 206.824V93.144H756.908V206.012C761.238 199.245 766.11 193.832 771.524 189.772C777.208 185.712 783.298 182.735 789.794 180.84C796.29 178.945 803.056 177.727 810.094 177.186C817.402 176.645 824.71 176.374 832.018 176.374H850.694V93.144H947.728V290.46C947.728 296.144 946.51 301.287 944.074 305.888C941.638 310.489 938.525 314.414 934.736 317.662C930.946 320.639 926.48 322.94 921.338 324.564C916.466 326.188 911.594 327 906.722 327H659.874V260.01H850.694V243.364H702.504Z" fill="black" fill-opacity="0.06"/>
</svg>
