<svg width="105" height="32" viewBox="0 0 105 32" fill="none" xmlns="http://www.w3.org/2000/svg">
<rect x="1" y="1" width="103" height="30" fill="white" fill-opacity="0.13" stroke="white" stroke-width="2"/>
<path d="M14.0779 14.85H6.78791V12.36H16.0879C16.2679 12.36 16.4529 12.39 16.6429 12.45C16.8329 12.51 17.0029 12.6 17.1529 12.72C17.3029 12.83 17.4229 12.97 17.5129 13.14C17.6129 13.31 17.6629 13.5 17.6629 13.71V19.65C17.6629 19.86 17.6129 20.05 17.5129 20.22C17.4229 20.39 17.3029 20.535 17.1529 20.655C17.0029 20.765 16.8329 20.85 16.6429 20.91C16.4529 20.97 16.2679 21 16.0879 21H6.78791V15.72H10.3729V18.51H14.0779V14.85ZM18.7703 13.71C18.7703 13.5 18.8153 13.31 18.9053 13.14C19.0053 12.97 19.1303 12.83 19.2803 12.72C19.4303 12.6 19.6003 12.51 19.7903 12.45C19.9803 12.39 20.1653 12.36 20.3453 12.36H28.0703C28.2503 12.36 28.4353 12.39 28.6253 12.45C28.8153 12.51 28.9853 12.6 29.1353 12.72C29.2853 12.83 29.4053 12.97 29.4953 13.14C29.5953 13.31 29.6453 13.5 29.6453 13.71V17.85H23.4053L24.5303 15.48H26.0603V14.85H22.3553V18.51H29.6453V21H20.3453C20.1653 21 19.9803 20.97 19.7903 20.91C19.6003 20.85 19.4303 20.765 19.2803 20.655C19.1303 20.535 19.0053 20.39 18.9053 20.22C18.8153 20.05 18.7703 19.86 18.7703 19.65V13.71ZM34.3378 14.145L35.7778 15.51H36.2728L37.7128 14.145V12.36H41.2978V15L39.1828 16.83L41.2978 18.375V21H37.7128V19.185L36.2728 17.895H35.7778L34.3228 19.185V21H30.7528V18.375L32.8678 16.83L30.7528 15V12.36H34.3378V14.145ZM42.4129 12.36H52.1629V14.85H48.6529V18.525H50.0629V21H46.6429C46.4629 21 46.2779 20.97 46.0879 20.91C45.8979 20.85 45.7279 20.765 45.5779 20.655C45.4279 20.535 45.3029 20.39 45.2029 20.22C45.1129 20.05 45.0679 19.86 45.0679 19.65V14.85H42.4129V12.36ZM64.1424 19.65C64.1424 19.86 64.0924 20.05 63.9924 20.22C63.9024 20.39 63.7824 20.535 63.6324 20.655C63.4824 20.765 63.3124 20.85 63.1224 20.91C62.9324 20.97 62.7474 21 62.5674 21H54.8424C54.6624 21 54.4774 20.97 54.2874 20.91C54.0974 20.85 53.9274 20.765 53.7774 20.655C53.6274 20.535 53.5024 20.39 53.4024 20.22C53.3124 20.05 53.2674 19.86 53.2674 19.65V13.71C53.2674 13.5 53.3124 13.31 53.4024 13.14C53.5024 12.97 53.6274 12.83 53.7774 12.72C53.9274 12.6 54.0974 12.51 54.2874 12.45C54.4774 12.39 54.6624 12.36 54.8424 12.36H62.5674C62.7474 12.36 62.9324 12.39 63.1224 12.45C63.3124 12.51 63.4824 12.6 63.6324 12.72C63.7824 12.83 63.9024 12.97 63.9924 13.14C64.0924 13.31 64.1424 13.5 64.1424 13.71V19.65ZM60.5574 14.85H56.8524V18.495H60.5574V14.85ZM76.1248 19.65C76.1248 19.86 76.0748 20.05 75.9748 20.22C75.8848 20.39 75.7648 20.535 75.6148 20.655C75.4648 20.765 75.2948 20.85 75.1048 20.91C74.9148 20.97 74.7298 21 74.5498 21H66.8248C66.6448 21 66.4598 20.97 66.2698 20.91C66.0798 20.85 65.9098 20.765 65.7598 20.655C65.6098 20.535 65.4848 20.39 65.3848 20.22C65.2948 20.05 65.2498 19.86 65.2498 19.65V13.71C65.2498 13.5 65.2948 13.31 65.3848 13.14C65.4848 12.97 65.6098 12.83 65.7598 12.72C65.9098 12.6 66.0798 12.51 66.2698 12.45C66.4598 12.39 66.6448 12.36 66.8248 12.36H74.5498C74.7298 12.36 74.9148 12.39 75.1048 12.45C75.2948 12.51 75.4648 12.6 75.6148 12.72C75.7648 12.83 75.8848 12.97 75.9748 13.14C76.0748 13.31 76.1248 13.5 76.1248 13.71V19.65ZM72.5398 14.85H68.8348V18.495H72.5398V14.85ZM85.3622 18.525L86.6222 21H78.6422C78.2722 21 77.9422 20.895 77.6522 20.685C77.3722 20.465 77.2322 20.14 77.2322 19.71V12.36H80.8172V18.525H85.3622ZM91.1737 14.835V16.53C91.3337 16.28 91.5137 16.08 91.7137 15.93C91.9237 15.78 92.1487 15.67 92.3887 15.6C92.6287 15.53 92.8787 15.485 93.1387 15.465C93.4087 15.445 93.6787 15.435 93.9487 15.435H96.6337C96.8137 15.435 96.9987 15.465 97.1887 15.525C97.3787 15.585 97.5487 15.675 97.6987 15.795C97.8487 15.905 97.9687 16.045 98.0587 16.215C98.1587 16.385 98.2087 16.575 98.2087 16.785V19.65C98.2087 19.86 98.1637 20.05 98.0737 20.22C97.9837 20.39 97.8687 20.535 97.7287 20.655C97.5887 20.765 97.4237 20.85 97.2337 20.91C97.0537 20.97 96.8737 21 96.6937 21H87.5887V18.525H94.6237V17.91H89.1637C88.9837 17.91 88.7987 17.88 88.6087 17.82C88.4187 17.76 88.2487 17.675 88.0987 17.565C87.9487 17.445 87.8237 17.3 87.7237 17.13C87.6337 16.96 87.5887 16.77 87.5887 16.56V13.71C87.5887 13.5 87.6337 13.31 87.7237 13.14C87.8137 12.97 87.9287 12.83 88.0687 12.72C88.2087 12.6 88.3687 12.51 88.5487 12.45C88.7387 12.39 88.9237 12.36 89.1037 12.36H98.2087V14.835H91.1737Z" fill="white"/>
</svg>
