<svg width="272" height="105" viewBox="0 0 272 105" fill="none" xmlns="http://www.w3.org/2000/svg">
<g filter="url(#filter0_d_17_463)">
<mask id="mask0_17_463" style="mask-type:alpha" maskUnits="userSpaceOnUse" x="0" y="0" width="252" height="82">
<path fill-rule="evenodd" clip-rule="evenodd" d="M0 58.8368V82H23.1632L0 58.8368ZM252 23.1632V0H228.837L252 23.1632Z" fill="#CBEDFF"/>
<path fill-rule="evenodd" clip-rule="evenodd" d="M44.5957 82L0 37.4043V0H207.404L252 44.5958V82H44.5957Z" fill="#CBEDFF"/>
</mask>
<g mask="url(#mask0_17_463)">
<path fill-rule="evenodd" clip-rule="evenodd" d="M0 58.8368V82H23.1632L0 58.8368ZM252 23.1632V0H228.837L252 23.1632Z" fill="black"/>
<path fill-rule="evenodd" clip-rule="evenodd" d="M44.5957 82L0 37.4043V0H207.404L252 44.5958V82H44.5957Z" fill="black"/>
<path d="M48.1558 38.7H33.5758V33.72H52.1758C52.5358 33.72 52.9058 33.78 53.2858 33.9C53.6658 34.02 54.0058 34.2 54.3058 34.44C54.6058 34.66 54.8458 34.94 55.0258 35.28C55.2258 35.62 55.3258 36 55.3258 36.42V48.3C55.3258 48.72 55.2258 49.1 55.0258 49.44C54.8458 49.78 54.6058 50.07 54.3058 50.31C54.0058 50.53 53.6658 50.7 53.2858 50.82C52.9058 50.94 52.5358 51 52.1758 51H33.5758V40.44H40.7458V46.02H48.1558V38.7ZM57.5407 36.42C57.5407 36 57.6307 35.62 57.8107 35.28C58.0107 34.94 58.2607 34.66 58.5607 34.44C58.8607 34.2 59.2007 34.02 59.5807 33.9C59.9607 33.78 60.3307 33.72 60.6907 33.72H76.1407C76.5007 33.72 76.8707 33.78 77.2507 33.9C77.6307 34.02 77.9707 34.2 78.2707 34.44C78.5707 34.66 78.8107 34.94 78.9907 35.28C79.1907 35.62 79.2907 36 79.2907 36.42V44.7H66.8107L69.0607 39.96H72.1207V38.7H64.7107V46.02H79.2907V51H60.6907C60.3307 51 59.9607 50.94 59.5807 50.82C59.2007 50.7 58.8607 50.53 58.5607 50.31C58.2607 50.07 58.0107 49.78 57.8107 49.44C57.6307 49.1 57.5407 48.72 57.5407 48.3V36.42ZM88.6755 37.29L91.5555 40.02H92.5455L95.4255 37.29V33.72H102.596V39L98.3655 42.66L102.596 45.75V51H95.4255V47.37L92.5455 44.79H91.5555L88.6455 47.37V51H81.5055V45.75L85.7355 42.66L81.5055 39V33.72H88.6755V37.29ZM104.826 33.72H124.326V38.7H117.306V46.05H120.126V51H113.286C112.926 51 112.556 50.94 112.176 50.82C111.796 50.7 111.456 50.53 111.156 50.31C110.856 50.07 110.606 49.78 110.406 49.44C110.226 49.1 110.136 48.72 110.136 48.3V38.7H104.826V33.72ZM148.285 48.3C148.285 48.72 148.185 49.1 147.985 49.44C147.805 49.78 147.565 50.07 147.265 50.31C146.965 50.53 146.625 50.7 146.245 50.82C145.865 50.94 145.495 51 145.135 51H129.685C129.325 51 128.955 50.94 128.575 50.82C128.195 50.7 127.855 50.53 127.555 50.31C127.255 50.07 127.005 49.78 126.805 49.44C126.625 49.1 126.535 48.72 126.535 48.3V36.42C126.535 36 126.625 35.62 126.805 35.28C127.005 34.94 127.255 34.66 127.555 34.44C127.855 34.2 128.195 34.02 128.575 33.9C128.955 33.78 129.325 33.72 129.685 33.72H145.135C145.495 33.72 145.865 33.78 146.245 33.9C146.625 34.02 146.965 34.2 147.265 34.44C147.565 34.66 147.805 34.94 147.985 35.28C148.185 35.62 148.285 36 148.285 36.42V48.3ZM141.115 38.7H133.705V45.99H141.115V38.7ZM172.25 48.3C172.25 48.72 172.15 49.1 171.95 49.44C171.77 49.78 171.53 50.07 171.23 50.31C170.93 50.53 170.59 50.7 170.21 50.82C169.83 50.94 169.46 51 169.1 51H153.65C153.29 51 152.92 50.94 152.54 50.82C152.16 50.7 151.82 50.53 151.52 50.31C151.22 50.07 150.97 49.78 150.77 49.44C150.59 49.1 150.5 48.72 150.5 48.3V36.42C150.5 36 150.59 35.62 150.77 35.28C150.97 34.94 151.22 34.66 151.52 34.44C151.82 34.2 152.16 34.02 152.54 33.9C152.92 33.78 153.29 33.72 153.65 33.72H169.1C169.46 33.72 169.83 33.78 170.21 33.9C170.59 34.02 170.93 34.2 171.23 34.44C171.53 34.66 171.77 34.94 171.95 35.28C172.15 35.62 172.25 36 172.25 36.42V48.3ZM165.08 38.7H157.67V45.99H165.08V38.7ZM190.724 46.05L193.244 51H177.284C176.544 51 175.884 50.79 175.304 50.37C174.744 49.93 174.464 49.28 174.464 48.42V33.72H181.634V46.05H190.724ZM202.347 38.67V42.06C202.667 41.56 203.027 41.16 203.427 40.86C203.847 40.56 204.297 40.34 204.777 40.2C205.257 40.06 205.757 39.97 206.277 39.93C206.817 39.89 207.357 39.87 207.897 39.87H213.267C213.627 39.87 213.997 39.93 214.377 40.05C214.757 40.17 215.097 40.35 215.397 40.59C215.697 40.81 215.937 41.09 216.117 41.43C216.317 41.77 216.417 42.15 216.417 42.57V48.3C216.417 48.72 216.327 49.1 216.147 49.44C215.967 49.78 215.737 50.07 215.457 50.31C215.177 50.53 214.847 50.7 214.467 50.82C214.107 50.94 213.747 51 213.387 51H195.177V46.05H209.247V44.82H198.327C197.967 44.82 197.597 44.76 197.217 44.64C196.837 44.52 196.497 44.35 196.197 44.13C195.897 43.89 195.647 43.6 195.447 43.26C195.267 42.92 195.177 42.54 195.177 42.12V36.42C195.177 36 195.267 35.62 195.447 35.28C195.627 34.94 195.857 34.66 196.137 34.44C196.417 34.2 196.737 34.02 197.097 33.9C197.477 33.78 197.847 33.72 198.207 33.72H216.417V38.67H202.347Z" fill="white"/>
</g>
</g>
<defs>
<filter id="filter0_d_17_463" x="0" y="0" width="272" height="105" filterUnits="userSpaceOnUse" color-interpolation-filters="sRGB">
<feFlood flood-opacity="0" result="BackgroundImageFix"/>
<feColorMatrix in="SourceAlpha" type="matrix" values="0 0 0 0 0 0 0 0 0 0 0 0 0 0 0 0 0 0 127 0" result="hardAlpha"/>
<feOffset dx="13" dy="16"/>
<feGaussianBlur stdDeviation="3.5"/>
<feColorMatrix type="matrix" values="0 0 0 0 0 0 0 0 0 0 0 0 0 0 0 0 0 0 0.25 0"/>
<feBlend mode="normal" in2="BackgroundImageFix" result="effect1_dropShadow_17_463"/>
<feBlend mode="normal" in="SourceGraphic" in2="effect1_dropShadow_17_463" result="shape"/>
</filter>
</defs>
</svg>
