<svg width="105" height="32" viewBox="0 0 105 32" fill="none" xmlns="http://www.w3.org/2000/svg">
<rect x="1" y="1" width="103" height="30" fill="white" fill-opacity="0.13" stroke="white" stroke-width="2"/>
<path d="M40.441 13.71V21H36.856V14.835H35.806V21H32.251V14.835H31.201V21H27.616V12.36H38.866C39.046 12.36 39.231 12.39 39.421 12.45C39.611 12.51 39.781 12.6 39.931 12.72C40.081 12.83 40.201 12.97 40.291 13.14C40.391 13.31 40.441 13.5 40.441 13.71ZM41.5467 13.71C41.5467 13.5 41.5917 13.31 41.6817 13.14C41.7817 12.97 41.9067 12.83 42.0567 12.72C42.2067 12.6 42.3767 12.51 42.5667 12.45C42.7567 12.39 42.9417 12.36 43.1217 12.36H50.8467C51.0267 12.36 51.2117 12.39 51.4017 12.45C51.5917 12.51 51.7617 12.6 51.9117 12.72C52.0617 12.83 52.1817 12.97 52.2717 13.14C52.3717 13.31 52.4217 13.5 52.4217 13.71V17.85H46.1817L47.3067 15.48H48.8367V14.85H45.1317V18.51H52.4217V21H43.1217C42.9417 21 42.7567 20.97 42.5667 20.91C42.3767 20.85 42.2067 20.765 42.0567 20.655C41.9067 20.535 41.7817 20.39 41.6817 20.22C41.5917 20.05 41.5467 19.86 41.5467 19.65V13.71ZM53.5291 21V12.36H62.8291C63.0091 12.36 63.1941 12.39 63.3841 12.45C63.5741 12.51 63.7441 12.6 63.8941 12.72C64.0441 12.83 64.1641 12.97 64.2541 13.14C64.3541 13.31 64.4041 13.5 64.4041 13.71V21H60.8191V14.835H57.1141V21H53.5291ZM76.3865 12.36V21H67.0865C66.9065 21 66.7215 20.97 66.5315 20.91C66.3415 20.85 66.1715 20.765 66.0215 20.655C65.8715 20.535 65.7465 20.39 65.6465 20.22C65.5565 20.05 65.5115 19.86 65.5115 19.65V12.36H69.0965V18.525H72.8015V12.36H76.3865Z" fill="white"/>
</svg>
