<svg width="105" height="32" viewBox="0 0 105 32" fill="none" xmlns="http://www.w3.org/2000/svg">
<rect x="1" y="1" width="103" height="30" fill="white" fill-opacity="0.13" stroke="white" stroke-width="2"/>
<path d="M12.5594 21V12.36H20.9894C21.1094 12.36 21.2244 12.39 21.3344 12.45C21.4444 12.5 21.5394 12.565 21.6194 12.645C21.7094 12.725 21.7794 12.815 21.8294 12.915C21.8794 13.005 21.9044 13.095 21.9044 13.185V15.465C22.2344 15.775 22.4894 16.04 22.6694 16.26C22.8594 16.48 22.9994 16.67 23.0894 16.83C23.1794 16.98 23.2344 17.11 23.2544 17.22C23.2744 17.33 23.2844 17.435 23.2844 17.535V20.325C23.2544 20.475 23.1644 20.62 23.0144 20.76C22.8744 20.89 22.7194 20.97 22.5494 21H12.5594ZM16.1444 14.85V16.755L16.2194 16.62C16.4794 16.32 16.7594 16.06 17.0594 15.84C17.3694 15.62 17.7794 15.51 18.2894 15.51V14.85H16.1444ZM19.6994 18.51V17.835H16.1444V18.51H19.6994ZM35.2703 12.36V21H25.9703C25.7903 21 25.6053 20.97 25.4153 20.91C25.2253 20.85 25.0553 20.765 24.9053 20.655C24.7553 20.535 24.6303 20.39 24.5303 20.22C24.4403 20.05 24.3953 19.86 24.3953 19.65V12.36H27.9803V18.525H31.6853V12.36H35.2703ZM37.9528 17.91C37.7728 17.91 37.5878 17.88 37.3978 17.82C37.2078 17.76 37.0378 17.675 36.8878 17.565C36.7378 17.445 36.6128 17.3 36.5128 17.13C36.4228 16.96 36.3778 16.77 36.3778 16.56V12.36H39.9628V16.53C40.1228 16.28 40.3028 16.08 40.5028 15.93C40.7128 15.78 40.9378 15.67 41.1778 15.6C41.4178 15.53 41.6678 15.485 41.9278 15.465C42.1978 15.445 42.4678 15.435 42.7378 15.435H43.4278V12.36H47.0128V19.65C47.0128 19.86 46.9678 20.05 46.8778 20.22C46.7878 20.39 46.6728 20.535 46.5328 20.655C46.3928 20.765 46.2278 20.85 46.0378 20.91C45.8578 20.97 45.6778 21 45.4978 21H36.3778V18.525H43.4278V17.91H37.9528ZM64.1424 19.65C64.1424 19.86 64.0924 20.05 63.9924 20.22C63.9024 20.39 63.7824 20.535 63.6324 20.655C63.4824 20.765 63.3124 20.85 63.1224 20.91C62.9324 20.97 62.7474 21 62.5674 21H54.8424C54.6624 21 54.4774 20.97 54.2874 20.91C54.0974 20.85 53.9274 20.765 53.7774 20.655C53.6274 20.535 53.5024 20.39 53.4024 20.22C53.3124 20.05 53.2674 19.86 53.2674 19.65V13.71C53.2674 13.5 53.3124 13.31 53.4024 13.14C53.5024 12.97 53.6274 12.83 53.7774 12.72C53.9274 12.6 54.0974 12.51 54.2874 12.45C54.4774 12.39 54.6624 12.36 54.8424 12.36H62.5674C62.7474 12.36 62.9324 12.39 63.1224 12.45C63.3124 12.51 63.4824 12.6 63.6324 12.72C63.7824 12.83 63.9024 12.97 63.9924 13.14C64.0924 13.31 64.1424 13.5 64.1424 13.71V19.65ZM60.5574 14.85H56.8524V18.495H60.5574V14.85ZM73.6383 12.36L75.3633 16.47L77.0733 12.36H80.6883L76.9233 21H73.8033L72.7983 18.645L71.7633 21H68.6433L64.8783 12.36H68.4933L70.2033 16.47L71.0433 14.49L70.0983 12.36H73.6383ZM92.4432 12.36V21H83.1432C82.9632 21 82.7782 20.97 82.5882 20.91C82.3982 20.85 82.2282 20.765 82.0782 20.655C81.9282 20.535 81.8032 20.39 81.7032 20.22C81.6132 20.05 81.5682 19.86 81.5682 19.65V12.36H85.1532V18.525H88.8582V12.36H92.4432Z" fill="white"/>
</svg>
