<svg width="1278" height="439" viewBox="0 0 1278 439" fill="none" xmlns="http://www.w3.org/2000/svg">
<g filter="url(#filter0_f_45_262)">
<path d="M113.952 350.4L106.727 343.6V344.025C100.494 340.058 95.3935 335.242 91.4269 329.575C87.7435 323.625 85.9019 316.542 85.9019 308.325V140.875C85.9019 133.792 87.4602 127.558 90.5769 122.175C93.6935 116.792 97.6602 112.258 102.477 108.575C107.294 104.892 112.677 102.058 118.627 100.075C124.577 98.0917 130.385 97.1 136.052 97.1H354.077C362.294 97.1 370.652 99.225 379.152 103.475C387.652 107.442 394.169 113.25 398.702 120.9H398.277L405.927 128.125C409.61 131.808 412.444 135.917 414.427 140.45C416.694 144.983 417.827 150.083 417.827 155.75V322.775C417.827 329.575 416.269 335.667 413.152 341.05C410.319 346.433 406.494 350.825 401.677 354.225C397.144 357.908 391.902 360.742 385.952 362.725C380.002 364.708 374.194 365.7 368.527 365.7H150.927C144.41 365.7 137.752 364.425 130.952 361.875C124.435 359.325 118.769 355.5 113.952 350.4ZM397.427 308.325V140.875C397.427 134.925 396.01 129.683 393.177 125.15C390.627 120.617 387.227 116.792 382.977 113.675C379.01 110.275 374.477 107.867 369.377 106.45C364.277 104.75 359.177 103.9 354.077 103.9H136.052C130.952 103.9 125.852 104.75 120.752 106.45C115.652 107.867 110.977 110.275 106.727 113.675C102.76 116.792 99.3602 120.617 96.5269 125.15C93.9769 129.683 92.7019 134.925 92.7019 140.875V308.325C92.7019 314.275 93.9769 319.517 96.5269 324.05C99.3602 328.583 102.76 332.408 106.727 335.525C110.977 338.642 115.652 341.05 120.752 342.75C125.852 344.45 130.952 345.3 136.052 345.3H354.077C359.177 345.3 364.277 344.45 369.377 342.75C374.477 341.05 379.01 338.642 382.977 335.525C387.227 332.408 390.627 328.583 393.177 324.05C396.01 319.517 397.427 314.275 397.427 308.325ZM192.152 172.325H297.977V276.45H192.152V172.325ZM212.127 192.3V269.65H291.177V192.3H212.127ZM685.7 97.1L686.975 101.35H686.55L700.15 114.1L733.725 194.85L774.525 97.1H890.125L888.425 100.925L902.45 113.675L792.8 365.7H698.875L685.275 352.1H682.3L667.425 317.675L647.025 365.7H553.1L539.5 352.1H536.525L425.175 97.1H540.775L542.05 101.35H541.625L555.225 114.1L588.375 194.425L601.55 162.975L572.65 97.1H685.7ZM730.325 221.2L681.025 103.9H583.275L609.2 162.975L584.975 221.2L535.675 103.9H435.8L541.2 345.3H627.9L658.075 277.3L686.975 345.3H773.675L879.075 103.9H779.2L730.325 221.2ZM1233.47 97.1V100.5L1247.07 113.675V365.7H980.175C973.658 365.7 967 364.425 960.2 361.875C953.683 359.325 948.017 355.5 943.2 350.4L935.975 343.6V344.025C929.742 340.058 924.642 335.242 920.675 329.575C916.992 323.625 915.15 316.542 915.15 308.325V97.1H1028.2V100.5L1041.37 113.675V270.5H1120.42V97.1H1233.47ZM921.95 308.325C921.95 314.275 923.225 319.517 925.775 324.05C928.608 328.583 932.008 332.408 935.975 335.525C940.225 338.642 944.9 341.05 950 342.75C955.1 344.45 960.2 345.3 965.3 345.3H1226.67V103.9H1127.22V277.3H1021.4V103.9H921.95V308.325Z" fill="#4A9BD8"/>
</g>
<path d="M113.952 350.4L106.727 343.6V344.025C100.494 340.058 95.3935 335.242 91.4269 329.575C87.7435 323.625 85.9019 316.542 85.9019 308.325V140.875C85.9019 133.792 87.4602 127.558 90.5769 122.175C93.6935 116.792 97.6602 112.258 102.477 108.575C107.294 104.892 112.677 102.058 118.627 100.075C124.577 98.0917 130.385 97.1 136.052 97.1H354.077C362.294 97.1 370.652 99.225 379.152 103.475C387.652 107.442 394.169 113.25 398.702 120.9H398.277L405.927 128.125C409.61 131.808 412.444 135.917 414.427 140.45C416.694 144.983 417.827 150.083 417.827 155.75V322.775C417.827 329.575 416.269 335.667 413.152 341.05C410.319 346.433 406.494 350.825 401.677 354.225C397.144 357.908 391.902 360.742 385.952 362.725C380.002 364.708 374.194 365.7 368.527 365.7H150.927C144.41 365.7 137.752 364.425 130.952 361.875C124.435 359.325 118.769 355.5 113.952 350.4ZM397.427 308.325V140.875C397.427 134.925 396.01 129.683 393.177 125.15C390.627 120.617 387.227 116.792 382.977 113.675C379.01 110.275 374.477 107.867 369.377 106.45C364.277 104.75 359.177 103.9 354.077 103.9H136.052C130.952 103.9 125.852 104.75 120.752 106.45C115.652 107.867 110.977 110.275 106.727 113.675C102.76 116.792 99.3602 120.617 96.5269 125.15C93.9769 129.683 92.7019 134.925 92.7019 140.875V308.325C92.7019 314.275 93.9769 319.517 96.5269 324.05C99.3602 328.583 102.76 332.408 106.727 335.525C110.977 338.642 115.652 341.05 120.752 342.75C125.852 344.45 130.952 345.3 136.052 345.3H354.077C359.177 345.3 364.277 344.45 369.377 342.75C374.477 341.05 379.01 338.642 382.977 335.525C387.227 332.408 390.627 328.583 393.177 324.05C396.01 319.517 397.427 314.275 397.427 308.325ZM192.152 172.325H297.977V276.45H192.152V172.325ZM212.127 192.3V269.65H291.177V192.3H212.127ZM685.7 97.1L686.975 101.35H686.55L700.15 114.1L733.725 194.85L774.525 97.1H890.125L888.425 100.925L902.45 113.675L792.8 365.7H698.875L685.275 352.1H682.3L667.425 317.675L647.025 365.7H553.1L539.5 352.1H536.525L425.175 97.1H540.775L542.05 101.35H541.625L555.225 114.1L588.375 194.425L601.55 162.975L572.65 97.1H685.7ZM730.325 221.2L681.025 103.9H583.275L609.2 162.975L584.975 221.2L535.675 103.9H435.8L541.2 345.3H627.9L658.075 277.3L686.975 345.3H773.675L879.075 103.9H779.2L730.325 221.2ZM1233.47 97.1V100.5L1247.07 113.675V365.7H980.175C973.658 365.7 967 364.425 960.2 361.875C953.683 359.325 948.017 355.5 943.2 350.4L935.975 343.6V344.025C929.742 340.058 924.642 335.242 920.675 329.575C916.992 323.625 915.15 316.542 915.15 308.325V97.1H1028.2V100.5L1041.37 113.675V270.5H1120.42V97.1H1233.47ZM921.95 308.325C921.95 314.275 923.225 319.517 925.775 324.05C928.608 328.583 932.008 332.408 935.975 335.525C940.225 338.642 944.9 341.05 950 342.75C955.1 344.45 960.2 345.3 965.3 345.3H1226.67V103.9H1127.22V277.3H1021.4V103.9H921.95V308.325Z" fill="black"/>
<path d="M158.874 50.806L161.731 99.4354L188.715 139.992L143.349 157.736L113.116 195.932L82.2216 158.269L36.5522 141.32L62.8248 100.299L64.8323 51.6267L111.964 63.9373L158.874 50.806Z" fill="black"/>
<path d="M94.6331 134.861C94.8696 135.208 95.001 135.578 95.0272 135.972C95.07 136.354 95.035 136.729 94.9222 137.096C94.7982 137.447 94.613 137.779 94.3666 138.092C94.1201 138.405 93.8482 138.663 93.5507 138.866L80.7837 147.567C80.4862 147.77 80.1467 147.929 79.7651 148.043C79.3835 148.158 79.0068 148.209 78.635 148.196C78.2519 148.167 77.882 148.068 77.5253 147.9C77.185 147.72 76.8967 147.457 76.6601 147.11L69.9697 137.293C69.7332 136.946 69.5936 136.581 69.5508 136.199C69.5246 135.805 69.5735 135.433 69.6975 135.082C69.8103 134.715 69.9899 134.375 70.2363 134.062C70.4827 133.748 70.7547 133.491 71.0522 133.288L83.8192 124.587C84.1166 124.384 84.4562 124.225 84.8378 124.11C85.2194 123.996 85.6017 123.953 85.9848 123.982C86.3566 123.995 86.7126 124.091 87.0528 124.271C87.4095 124.439 87.7062 124.697 87.9427 125.044L94.6331 134.861ZM83.3018 130.966L77.1786 135.139L81.2841 141.163L87.4073 136.99L83.3018 130.966ZM102.116 112.117L109.596 116.967L107.793 108.248L113.767 104.177L117.277 122.697L112.12 126.211L107.807 123.451L108.749 128.508L103.592 132.023L87.6384 121.984L93.6129 117.912L101.068 122.779L100.226 118.56L96.2654 116.105L102.116 112.117ZM133.194 90.9368L142.926 105.216L127.556 115.691C127.259 115.894 126.919 116.052 126.537 116.167C126.156 116.282 125.779 116.333 125.407 116.32C125.024 116.291 124.654 116.192 124.298 116.024C123.957 115.844 123.669 115.581 123.432 115.234L115.222 103.186L121.146 99.1477L128.09 109.337L134.213 105.163L127.27 94.9747L133.194 90.9368ZM145.773 103.276C145.475 103.479 145.165 103.521 144.842 103.402C144.519 103.283 144.307 103.149 144.205 103.001L142.55 100.571C142.415 100.373 142.398 100.118 142.5 99.8063C142.603 99.4946 142.753 99.2712 142.951 99.136L146.942 96.4159C147.163 96.3138 147.421 96.2834 147.715 96.3248C147.998 96.3496 148.202 96.453 148.326 96.6348L149.948 99.0146C150.117 99.2625 150.186 99.542 150.156 99.8529C150.126 100.164 149.995 100.398 149.764 100.556L145.773 103.276ZM147.167 94.7744L141.242 98.8123L135.025 89.6895L140.95 85.6515L147.167 94.7744Z" fill="white"/>
<defs>
<filter id="filter0_f_45_262" x="55.9019" y="67.1" width="1221.17" height="328.6" filterUnits="userSpaceOnUse" color-interpolation-filters="sRGB">
<feFlood flood-opacity="0" result="BackgroundImageFix"/>
<feBlend mode="normal" in="SourceGraphic" in2="BackgroundImageFix" result="shape"/>
<feGaussianBlur stdDeviation="15" result="effect1_foregroundBlur_45_262"/>
</filter>
</defs>
</svg>
