<svg width="1229" height="702" viewBox="0 0 1229 702" fill="none" xmlns="http://www.w3.org/2000/svg">
<g filter="url(#filter0_d_17_1172)">
<rect x="21" y="82" width="1208" height="593" fill="url(#paint0_linear_17_1172)" fill-opacity="0.52" shape-rendering="crispEdges"/>
<rect x="26.5" y="87.5" width="1197" height="582" stroke="black" stroke-width="11" shape-rendering="crispEdges"/>
</g>
<path d="M225.681 218.578H181.761V237H152.603V166.728H225.681C227.145 166.728 228.609 166.931 230.073 167.338C231.537 167.745 232.838 168.395 233.977 169.29C235.116 170.103 236.01 171.161 236.661 172.462C237.393 173.763 237.759 175.268 237.759 176.976V208.33C237.759 210.038 237.393 211.543 236.661 212.844C236.01 214.145 235.116 215.243 233.977 216.138C232.838 216.951 231.537 217.561 230.073 217.968C228.609 218.375 227.145 218.578 225.681 218.578ZM208.601 186.98H181.761V209.428C184.364 205.28 187.658 202.433 191.643 200.888C195.628 199.261 199.858 198.448 204.331 198.448H208.601V186.98ZM331.877 237H302.719V211.868H276.001V237H246.843V166.728H276.001V202.718C278.604 198.57 281.816 195.723 285.639 194.178C289.462 192.551 293.61 191.738 298.083 191.738H302.719V166.728H331.877V237ZM438.442 237H409.162V218.7H386.836L397.206 198.448H409.162V186.98H395.864L370.122 237H339.134L374.758 166.728H428.316C429.292 166.728 430.35 167.013 431.488 167.582C432.708 168.151 433.806 168.883 434.782 169.778C435.84 170.591 436.694 171.527 437.344 172.584C438.076 173.56 438.442 174.536 438.442 175.512V237ZM476.634 186.858V200.644C477.935 198.611 479.399 196.984 481.026 195.764C482.734 194.544 484.564 193.649 486.516 193.08C488.468 192.511 490.501 192.145 492.616 191.982C494.812 191.819 497.008 191.738 499.204 191.738H521.042C522.506 191.738 524.011 191.982 525.556 192.47C527.101 192.958 528.484 193.69 529.704 194.666C530.924 195.561 531.9 196.699 532.632 198.082C533.445 199.465 533.852 201.01 533.852 202.718V226.02C533.852 227.728 533.486 229.273 532.754 230.656C532.022 232.039 531.087 233.218 529.948 234.194C528.809 235.089 527.467 235.78 525.922 236.268C524.458 236.756 522.994 237 521.53 237H447.476V216.87H504.694V211.868H460.286C458.822 211.868 457.317 211.624 455.772 211.136C454.227 210.648 452.844 209.957 451.624 209.062C450.404 208.086 449.387 206.907 448.574 205.524C447.842 204.141 447.476 202.596 447.476 200.888V177.708C447.476 176 447.842 174.455 448.574 173.072C449.306 171.689 450.241 170.551 451.38 169.656C452.519 168.68 453.82 167.948 455.284 167.46C456.829 166.972 458.334 166.728 459.798 166.728H533.852V186.858H476.634ZM542.908 177.708C542.908 176 543.274 174.455 544.006 173.072C544.819 171.689 545.836 170.551 547.056 169.656C548.276 168.68 549.658 167.948 551.204 167.46C552.749 166.972 554.254 166.728 555.718 166.728H618.548C620.012 166.728 621.516 166.972 623.062 167.46C624.607 167.948 625.99 168.68 627.21 169.656C628.43 170.551 629.406 171.689 630.138 173.072C630.951 174.455 631.358 176 631.358 177.708V211.38H580.606L589.756 192.104H602.2V186.98H572.066V216.748H631.358V237H555.718C554.254 237 552.749 236.756 551.204 236.268C549.658 235.78 548.276 235.089 547.056 234.194C545.836 233.218 544.819 232.039 544.006 230.656C543.274 229.273 542.908 227.728 542.908 226.02V177.708ZM682.183 166.728H725.371V216.748H739.401V237H682.183V216.748H696.213V186.98H682.183V166.728Z" fill="black"/>
<path d="M195.391 314.49C195.391 315.036 195.261 315.53 195.001 315.972C194.767 316.414 194.455 316.791 194.065 317.103C193.675 317.389 193.233 317.61 192.739 317.766C192.245 317.922 191.764 318 191.296 318H171.211C170.743 318 170.262 317.922 169.768 317.766C169.274 317.61 168.832 317.389 168.442 317.103C168.052 316.791 167.727 316.414 167.467 315.972C167.233 315.53 167.116 315.036 167.116 314.49V299.046C167.116 298.5 167.233 298.006 167.467 297.564C167.727 297.122 168.052 296.758 168.442 296.472C168.832 296.16 169.274 295.926 169.768 295.77C170.262 295.614 170.743 295.536 171.211 295.536H191.296C191.764 295.536 192.245 295.614 192.739 295.77C193.233 295.926 193.675 296.16 194.065 296.472C194.455 296.758 194.767 297.122 195.001 297.564C195.261 298.006 195.391 298.5 195.391 299.046V314.49ZM234.134 295.536L238.619 306.222L243.065 295.536H252.464L242.675 318H234.563L231.95 311.877L229.259 318H221.147L211.358 295.536H220.757L225.203 306.222L227.387 301.074L224.93 295.536H234.134ZM254.752 318V295.536H280.102V302.01H264.073V303.726H277.138L274.213 309.888H264.073V311.526H280.102V318H254.752ZM282.973 318V295.536H306.334C306.802 295.536 307.27 295.601 307.738 295.731C308.206 295.861 308.622 296.069 308.986 296.355C309.35 296.615 309.636 296.953 309.844 297.369C310.078 297.785 310.195 298.266 310.195 298.812V303.453C310.091 304.129 309.883 304.714 309.571 305.208C309.259 305.702 308.973 306.092 308.713 306.378C309.077 306.69 309.389 307.067 309.649 307.509C309.935 307.951 310.117 308.354 310.195 308.718V314.724C310.195 315.27 310.078 315.751 309.844 316.167C309.636 316.583 309.35 316.934 308.986 317.22C308.622 317.48 308.206 317.675 307.738 317.805C307.27 317.935 306.802 318 306.334 318H282.973ZM292.294 302.01V306.963C293.126 305.663 294.179 304.805 295.453 304.389C296.727 303.947 298.079 303.726 299.509 303.726H300.874V302.01H292.294ZM300.874 311.526V309.771H292.294V311.526H300.874ZM322.42 301.971V306.378C322.836 305.728 323.317 305.208 323.863 304.818C324.409 304.428 324.994 304.142 325.618 303.96C326.242 303.778 326.892 303.661 327.568 303.609C328.27 303.557 328.985 303.531 329.713 303.531H334.51C334.978 303.531 335.459 303.609 335.953 303.765C336.447 303.921 336.889 304.155 337.279 304.467C337.669 304.753 337.981 305.117 338.215 305.559C338.475 306.001 338.605 306.495 338.605 307.041V314.49C338.605 315.036 338.488 315.53 338.254 315.972C338.02 316.414 337.721 316.791 337.357 317.103C336.993 317.389 336.564 317.61 336.07 317.766C335.602 317.922 335.134 318 334.666 318H313.099V311.565H329.284V309.966H317.194C316.726 309.966 316.245 309.888 315.751 309.732C315.257 309.576 314.815 309.355 314.425 309.069C314.035 308.757 313.71 308.38 313.45 307.938C313.216 307.496 313.099 307.002 313.099 306.456V299.046C313.099 298.5 313.216 298.006 313.45 297.564C313.684 297.122 313.983 296.758 314.347 296.472C314.711 296.16 315.127 295.926 315.595 295.77C316.089 295.614 316.57 295.536 317.038 295.536H338.605V301.971H322.42ZM350.794 318H341.473V295.536H350.794V318ZM353.699 295.536H379.049V302.01H371.015V318H361.694V302.01H353.699V295.536ZM381.921 318V295.536H407.271V302.01H391.242V303.726H404.307L401.382 309.888H391.242V311.526H407.271V318H381.921ZM454.671 318H445.311V312.15H438.174L441.489 305.676H445.311V302.01H441.06L432.831 318H422.925L434.313 295.536H451.434C451.746 295.536 452.084 295.627 452.448 295.809C452.838 295.991 453.189 296.225 453.501 296.511C453.839 296.771 454.112 297.07 454.32 297.408C454.554 297.72 454.671 298.032 454.671 298.344V318ZM466.88 301.971V306.378C467.296 305.728 467.777 305.208 468.323 304.818C468.869 304.428 469.454 304.142 470.078 303.96C470.702 303.778 471.352 303.661 472.028 303.609C472.73 303.557 473.445 303.531 474.173 303.531H478.97C479.438 303.531 479.919 303.609 480.413 303.765C480.907 303.921 481.349 304.155 481.739 304.467C482.129 304.753 482.441 305.117 482.675 305.559C482.935 306.001 483.065 306.495 483.065 307.041V314.49C483.065 315.036 482.948 315.53 482.714 315.972C482.48 316.414 482.181 316.791 481.817 317.103C481.453 317.389 481.024 317.61 480.53 317.766C480.062 317.922 479.594 318 479.126 318H457.559V311.565H473.744V309.966H461.654C461.186 309.966 460.705 309.888 460.211 309.732C459.717 309.576 459.275 309.355 458.885 309.069C458.495 308.757 458.17 308.38 457.91 307.938C457.676 307.496 457.559 307.002 457.559 306.456V299.046C457.559 298.5 457.676 298.006 457.91 297.564C458.144 297.122 458.443 296.758 458.807 296.472C459.171 296.16 459.587 295.926 460.055 295.77C460.549 295.614 461.03 295.536 461.498 295.536H483.065V301.971H466.88ZM485.933 314.49V299.046C485.933 298.5 486.05 298.006 486.284 297.564C486.544 297.122 486.869 296.758 487.259 296.472C487.649 296.16 488.091 295.926 488.585 295.77C489.079 295.614 489.56 295.536 490.028 295.536H509.489C509.957 295.536 510.438 295.614 510.932 295.77C511.426 295.926 511.868 296.16 512.258 296.472C512.648 296.758 512.96 297.122 513.194 297.564C513.454 298.006 513.584 298.5 513.584 299.046V304.974H504.263V302.01H495.254V311.526H504.263V308.523H513.584V314.49C513.584 315.036 513.454 315.53 513.194 315.972C512.96 316.414 512.648 316.791 512.258 317.103C511.868 317.389 511.426 317.61 510.932 317.766C510.438 317.922 509.957 318 509.489 318H490.028C489.56 318 489.079 317.922 488.585 317.766C488.091 317.61 487.649 317.389 487.259 317.103C486.869 316.791 486.544 316.414 486.284 315.972C486.05 315.53 485.933 315.036 485.933 314.49ZM516.478 318V295.536H541.828V302.01H525.799V303.726H538.864L535.939 309.888H525.799V311.526H541.828V318H516.478ZM544.7 295.536H552.812L563.069 305.247V295.536H572.39V318H564.278L554.021 308.289V318H544.7V295.536ZM584.604 301.971V306.378C585.02 305.728 585.501 305.208 586.047 304.818C586.593 304.428 587.178 304.142 587.802 303.96C588.426 303.778 589.076 303.661 589.752 303.609C590.454 303.557 591.169 303.531 591.897 303.531H596.694C597.162 303.531 597.643 303.609 598.137 303.765C598.631 303.921 599.073 304.155 599.463 304.467C599.853 304.753 600.165 305.117 600.399 305.559C600.659 306.001 600.789 306.495 600.789 307.041V314.49C600.789 315.036 600.672 315.53 600.438 315.972C600.204 316.414 599.905 316.791 599.541 317.103C599.177 317.389 598.748 317.61 598.254 317.766C597.786 317.922 597.318 318 596.85 318H575.283V311.565H591.468V309.966H579.378C578.91 309.966 578.429 309.888 577.935 309.732C577.441 309.576 576.999 309.355 576.609 309.069C576.219 308.757 575.894 308.38 575.634 307.938C575.4 307.496 575.283 307.002 575.283 306.456V299.046C575.283 298.5 575.4 298.006 575.634 297.564C575.868 297.122 576.167 296.758 576.531 296.472C576.895 296.16 577.311 295.926 577.779 295.77C578.273 295.614 578.754 295.536 579.222 295.536H600.789V301.971H584.604ZM612.978 318H603.657V295.536H612.978V318ZM644.157 314.49C644.157 315.036 644.027 315.53 643.767 315.972C643.533 316.414 643.221 316.791 642.831 317.103C642.441 317.389 641.999 317.61 641.505 317.766C641.011 317.922 640.53 318 640.062 318H619.977C619.509 318 619.028 317.922 618.534 317.766C618.04 317.61 617.598 317.389 617.208 317.103C616.818 316.791 616.493 316.414 616.233 315.972C615.999 315.53 615.882 315.036 615.882 314.49V299.046C615.882 298.5 615.999 298.006 616.233 297.564C616.493 297.122 616.818 296.758 617.208 296.472C617.598 296.16 618.04 295.926 618.534 295.77C619.028 295.614 619.509 295.536 619.977 295.536H640.062C640.53 295.536 641.011 295.614 641.505 295.77C641.999 295.926 642.441 296.16 642.831 296.472C643.221 296.758 643.533 297.122 643.767 297.564C644.027 298.006 644.157 298.5 644.157 299.046V314.49ZM634.836 302.01H625.203V311.487H634.836V302.01ZM647.037 295.536H655.149L665.406 305.247V295.536H674.727V318H666.615L656.358 308.289V318H647.037V295.536ZM195.391 352.49C195.391 353.036 195.261 353.53 195.001 353.972C194.767 354.414 194.455 354.791 194.065 355.103C193.675 355.389 193.233 355.61 192.739 355.766C192.245 355.922 191.764 356 191.296 356H171.211C170.743 356 170.262 355.922 169.768 355.766C169.274 355.61 168.832 355.389 168.442 355.103C168.052 354.791 167.727 354.414 167.467 353.972C167.233 353.53 167.116 353.036 167.116 352.49V337.046C167.116 336.5 167.233 336.006 167.467 335.564C167.727 335.122 168.052 334.758 168.442 334.472C168.832 334.16 169.274 333.926 169.768 333.77C170.262 333.614 170.743 333.536 171.211 333.536H191.296C191.764 333.536 192.245 333.614 192.739 333.77C193.233 333.926 193.675 334.16 194.065 334.472C194.455 334.758 194.767 335.122 195.001 335.564C195.261 336.006 195.391 336.5 195.391 337.046V352.49ZM211.943 333.536H237.293V340.01H228.167V349.565H231.833V356H222.941C222.473 356 221.992 355.922 221.498 355.766C221.004 355.61 220.562 355.389 220.172 355.103C219.782 354.791 219.457 354.414 219.197 353.972C218.963 353.53 218.846 353.036 218.846 352.49V340.01H211.943V333.536ZM268.44 352.49C268.44 353.036 268.31 353.53 268.05 353.972C267.816 354.414 267.504 354.791 267.114 355.103C266.724 355.389 266.282 355.61 265.788 355.766C265.294 355.922 264.813 356 264.345 356H244.26C243.792 356 243.311 355.922 242.817 355.766C242.323 355.61 241.881 355.389 241.491 355.103C241.101 354.791 240.776 354.414 240.516 353.972C240.282 353.53 240.165 353.036 240.165 352.49V337.046C240.165 336.5 240.282 336.006 240.516 335.564C240.776 335.122 241.101 334.758 241.491 334.472C241.881 334.16 242.323 333.926 242.817 333.77C243.311 333.614 243.792 333.536 244.26 333.536H264.345C264.813 333.536 265.294 333.614 265.788 333.77C266.282 333.926 266.724 334.16 267.114 334.472C267.504 334.758 267.816 335.122 268.05 335.564C268.31 336.006 268.44 336.5 268.44 337.046V352.49ZM259.119 340.01H249.486V349.487H259.119V340.01ZM294.68 341.765C295.148 341.765 295.616 341.83 296.084 341.96C296.552 342.09 296.968 342.298 297.332 342.584C297.696 342.844 297.982 343.182 298.19 343.598C298.424 344.014 298.541 344.495 298.541 345.041V356H289.22V348.2H287.855C287.153 348.2 286.451 348.161 285.749 348.083C285.073 347.979 284.423 347.81 283.799 347.576C283.175 347.316 282.59 346.978 282.044 346.562C281.524 346.146 281.056 345.6 280.64 344.924V356H271.319V333.536H280.64V342.974H281.42L287.816 333.536H298.58L293.159 341.765H294.68ZM301.445 356V333.536H326.795V340.01H310.766V341.726H323.831L320.906 347.888H310.766V349.526H326.795V356H301.445ZM329.667 333.536H337.779L348.036 343.247V333.536H357.357V356H349.245L338.988 346.289V356H329.667V333.536ZM382.939 339.971V344.378C383.355 343.728 383.823 343.208 384.343 342.818C384.889 342.428 385.474 342.142 386.098 341.96C386.722 341.778 387.372 341.661 388.048 341.609C388.75 341.557 389.452 341.531 390.154 341.531H397.135C397.603 341.531 398.084 341.609 398.578 341.765C399.072 341.921 399.514 342.155 399.904 342.467C400.294 342.753 400.606 343.117 400.84 343.559C401.1 344.001 401.23 344.495 401.23 345.041V352.49C401.23 353.036 401.113 353.53 400.879 353.972C400.645 354.414 400.346 354.791 399.982 355.103C399.618 355.389 399.189 355.61 398.695 355.766C398.227 355.922 397.759 356 397.291 356H373.618V349.565H391.909V347.966H377.713C377.245 347.966 376.764 347.888 376.27 347.732C375.776 347.576 375.334 347.355 374.944 347.069C374.554 346.757 374.229 346.38 373.969 345.938C373.735 345.496 373.618 345.002 373.618 344.456V337.046C373.618 336.5 373.735 336.006 373.969 335.564C374.203 335.122 374.502 334.758 374.866 334.472C375.23 334.16 375.646 333.926 376.114 333.77C376.608 333.614 377.089 333.536 377.557 333.536H401.23V339.971H382.939ZM432.4 352.49C432.4 353.036 432.27 353.53 432.01 353.972C431.776 354.414 431.464 354.791 431.074 355.103C430.684 355.389 430.242 355.61 429.748 355.766C429.254 355.922 428.773 356 428.305 356H408.22C407.752 356 407.271 355.922 406.777 355.766C406.283 355.61 405.841 355.389 405.451 355.103C405.061 354.791 404.736 354.414 404.476 353.972C404.242 353.53 404.125 353.036 404.125 352.49V333.536H413.446V349.565H423.079V333.536H432.4V352.49ZM458.64 350.111H444.6V356H435.279V333.536H458.64C459.108 333.536 459.576 333.601 460.044 333.731C460.512 333.861 460.928 334.069 461.292 334.355C461.656 334.615 461.942 334.953 462.15 335.369C462.384 335.785 462.501 336.266 462.501 336.812V346.835C462.501 347.381 462.384 347.862 462.15 348.278C461.942 348.694 461.656 349.045 461.292 349.331C460.928 349.591 460.512 349.786 460.044 349.916C459.576 350.046 459.108 350.111 458.64 350.111ZM453.18 340.01H444.6V347.186C445.432 345.86 446.485 344.95 447.759 344.456C449.033 343.936 450.385 343.676 451.815 343.676H453.18V340.01ZM465.405 356V333.536H490.755V340.01H474.726V341.726H487.791L484.866 347.888H474.726V349.526H490.755V356H465.405ZM516.988 350.111H515.662L521.98 356H511.216L503.728 348.902H502.948V356H493.627V333.536H516.988C517.456 333.536 517.924 333.601 518.392 333.731C518.86 333.861 519.276 334.069 519.64 334.355C520.004 334.615 520.29 334.953 520.498 335.369C520.732 335.785 520.849 336.266 520.849 336.812V346.835C520.849 347.381 520.732 347.862 520.498 348.278C520.29 348.694 520.004 349.045 519.64 349.331C519.276 349.591 518.86 349.786 518.392 349.916C517.924 350.046 517.456 350.111 516.988 350.111ZM511.528 340.01H502.948V347.069C503.78 345.743 504.833 344.846 506.107 344.378C507.381 343.91 508.733 343.676 510.163 343.676H511.528V340.01ZM523.753 333.536H531.865L542.122 343.247V333.536H551.443V356H543.331L533.074 346.289V356H523.753V333.536ZM582.611 352.49C582.611 353.036 582.481 353.53 582.221 353.972C581.987 354.414 581.675 354.791 581.285 355.103C580.895 355.389 580.453 355.61 579.959 355.766C579.465 355.922 578.984 356 578.516 356H558.431C557.963 356 557.482 355.922 556.988 355.766C556.494 355.61 556.052 355.389 555.662 355.103C555.272 354.791 554.947 354.414 554.687 353.972C554.453 353.53 554.336 353.036 554.336 352.49V337.046C554.336 336.5 554.453 336.006 554.687 335.564C554.947 335.122 555.272 334.758 555.662 334.472C556.052 334.16 556.494 333.926 556.988 333.77C557.482 333.614 557.963 333.536 558.431 333.536H578.516C578.984 333.536 579.465 333.614 579.959 333.77C580.453 333.926 580.895 334.16 581.285 334.472C581.675 334.758 581.987 335.122 582.221 335.564C582.481 336.006 582.611 336.5 582.611 337.046V352.49ZM573.29 340.01H563.657V349.487H573.29V340.01ZM593.923 333.536L598.369 344.183L602.815 333.536H612.214L602.425 356H594.313L584.524 333.536H593.923ZM642.406 337.046V356H633.085V350.111H623.452V356H614.131V337.046C614.131 336.5 614.248 336.006 614.482 335.564C614.742 335.122 615.067 334.758 615.457 334.472C615.847 334.16 616.289 333.926 616.783 333.77C617.277 333.614 617.758 333.536 618.226 333.536H638.311C638.779 333.536 639.26 333.614 639.754 333.77C640.248 333.926 640.69 334.16 641.08 334.472C641.47 334.758 641.782 335.122 642.016 335.564C642.276 336.006 642.406 336.5 642.406 337.046ZM633.085 340.01H623.452V347.186C624.284 345.86 625.337 344.95 626.611 344.456C627.885 343.936 629.237 343.676 630.667 343.676H633.085V340.01ZM195.391 390.49C195.391 391.036 195.261 391.53 195.001 391.972C194.767 392.414 194.455 392.791 194.065 393.103C193.675 393.389 193.233 393.61 192.739 393.766C192.245 393.922 191.764 394 191.296 394H171.211C170.743 394 170.262 393.922 169.768 393.766C169.274 393.61 168.832 393.389 168.442 393.103C168.052 392.791 167.727 392.414 167.467 391.972C167.233 391.53 167.116 391.036 167.116 390.49V375.046C167.116 374.5 167.233 374.006 167.467 373.564C167.727 373.122 168.052 372.758 168.442 372.472C168.832 372.16 169.274 371.926 169.768 371.77C170.262 371.614 170.743 371.536 171.211 371.536H191.296C191.764 371.536 192.245 371.614 192.739 371.77C193.233 371.926 193.675 372.16 194.065 372.472C194.455 372.758 194.767 373.122 195.001 373.564C195.261 374.006 195.391 374.5 195.391 375.046V390.49ZM221.264 377.971V382.378C221.68 381.728 222.148 381.208 222.668 380.818C223.214 380.428 223.799 380.142 224.423 379.96C225.047 379.778 225.697 379.661 226.373 379.609C227.075 379.557 227.777 379.531 228.479 379.531H235.46C235.928 379.531 236.409 379.609 236.903 379.765C237.397 379.921 237.839 380.155 238.229 380.467C238.619 380.753 238.931 381.117 239.165 381.559C239.425 382.001 239.555 382.495 239.555 383.041V390.49C239.555 391.036 239.438 391.53 239.204 391.972C238.97 392.414 238.671 392.791 238.307 393.103C237.943 393.389 237.514 393.61 237.02 393.766C236.552 393.922 236.084 394 235.616 394H211.943V387.565H230.234V385.966H216.038C215.57 385.966 215.089 385.888 214.595 385.732C214.101 385.576 213.659 385.355 213.269 385.069C212.879 384.757 212.554 384.38 212.294 383.938C212.06 383.496 211.943 383.002 211.943 382.456V375.046C211.943 374.5 212.06 374.006 212.294 373.564C212.528 373.122 212.827 372.758 213.191 372.472C213.555 372.16 213.971 371.926 214.439 371.77C214.933 371.614 215.414 371.536 215.882 371.536H239.555V377.971H221.264ZM270.725 390.49C270.725 391.036 270.595 391.53 270.335 391.972C270.101 392.414 269.789 392.791 269.399 393.103C269.009 393.389 268.567 393.61 268.073 393.766C267.579 393.922 267.098 394 266.63 394H246.545C246.077 394 245.596 393.922 245.102 393.766C244.608 393.61 244.166 393.389 243.776 393.103C243.386 392.791 243.061 392.414 242.801 391.972C242.567 391.53 242.45 391.036 242.45 390.49V375.046C242.45 374.5 242.567 374.006 242.801 373.564C243.061 373.122 243.386 372.758 243.776 372.472C244.166 372.16 244.608 371.926 245.102 371.77C245.596 371.614 246.077 371.536 246.545 371.536H266.63C267.098 371.536 267.579 371.614 268.073 371.77C268.567 371.926 269.009 372.16 269.399 372.472C269.789 372.758 270.101 373.122 270.335 373.564C270.595 374.006 270.725 374.5 270.725 375.046V390.49ZM261.404 378.01H251.771V387.487H261.404V378.01ZM273.604 390.49V375.046C273.604 374.5 273.721 374.006 273.955 373.564C274.215 373.122 274.54 372.758 274.93 372.472C275.32 372.16 275.762 371.926 276.256 371.77C276.75 371.614 277.231 371.536 277.699 371.536H297.16C297.628 371.536 298.109 371.614 298.603 371.77C299.097 371.926 299.539 372.16 299.929 372.472C300.319 372.758 300.631 373.122 300.865 373.564C301.125 374.006 301.255 374.5 301.255 375.046V380.974H291.934V378.01H282.925V387.526H291.934V384.523H301.255V390.49C301.255 391.036 301.125 391.53 300.865 391.972C300.631 392.414 300.319 392.791 299.929 393.103C299.539 393.389 299.097 393.61 298.603 393.766C298.109 393.922 297.628 394 297.16 394H277.699C277.231 394 276.75 393.922 276.256 393.766C275.762 393.61 275.32 393.389 274.93 393.103C274.54 392.791 274.215 392.414 273.955 391.972C273.721 391.53 273.604 391.036 273.604 390.49ZM313.47 394H304.149V371.536H313.47V394ZM344.65 375.046V394H335.329V388.111H325.696V394H316.375V375.046C316.375 374.5 316.492 374.006 316.726 373.564C316.986 373.122 317.311 372.758 317.701 372.472C318.091 372.16 318.533 371.926 319.027 371.77C319.521 371.614 320.002 371.536 320.47 371.536H340.555C341.023 371.536 341.504 371.614 341.998 371.77C342.492 371.926 342.934 372.16 343.324 372.472C343.714 372.758 344.026 373.122 344.26 373.564C344.52 374.006 344.65 374.5 344.65 375.046ZM335.329 378.01H325.696V385.186C326.528 383.86 327.581 382.95 328.855 382.456C330.129 381.936 331.481 381.676 332.911 381.676H335.329V378.01ZM366.327 387.565L369.603 394H351.195C350.233 394 349.375 393.727 348.621 393.181C347.893 392.609 347.529 391.764 347.529 390.646V371.536H356.85V387.565H366.327ZM394.784 377.971V382.378C395.2 381.728 395.668 381.208 396.188 380.818C396.734 380.428 397.319 380.142 397.943 379.96C398.567 379.778 399.217 379.661 399.893 379.609C400.595 379.557 401.297 379.531 401.999 379.531H408.98C409.448 379.531 409.929 379.609 410.423 379.765C410.917 379.921 411.359 380.155 411.749 380.467C412.139 380.753 412.451 381.117 412.685 381.559C412.945 382.001 413.075 382.495 413.075 383.041V390.49C413.075 391.036 412.958 391.53 412.724 391.972C412.49 392.414 412.191 392.791 411.827 393.103C411.463 393.389 411.034 393.61 410.54 393.766C410.072 393.922 409.604 394 409.136 394H385.463V387.565H403.754V385.966H389.558C389.09 385.966 388.609 385.888 388.115 385.732C387.621 385.576 387.179 385.355 386.789 385.069C386.399 384.757 386.074 384.38 385.814 383.938C385.58 383.496 385.463 383.002 385.463 382.456V375.046C385.463 374.5 385.58 374.006 385.814 373.564C386.048 373.122 386.347 372.758 386.711 372.472C387.075 372.16 387.491 371.926 387.959 371.77C388.453 371.614 388.934 371.536 389.402 371.536H413.075V377.971H394.784ZM415.969 371.536H441.319V378.01H433.285V394H423.964V378.01H415.969V371.536ZM444.191 394V371.536H469.541V378.01H453.512V379.726H466.577L463.652 385.888H453.512V387.526H469.541V394H444.191ZM491.211 387.565L494.487 394H476.079C475.117 394 474.259 393.727 473.505 393.181C472.777 392.609 472.413 391.764 472.413 390.646V371.536H481.734V387.565H491.211ZM515.205 387.565L518.481 394H500.073C499.111 394 498.253 393.727 497.499 393.181C496.771 392.609 496.407 391.764 496.407 390.646V371.536H505.728V387.565H515.205ZM549.247 375.046V394H539.926V388.111H530.293V394H520.972V375.046C520.972 374.5 521.089 374.006 521.323 373.564C521.583 373.122 521.908 372.758 522.298 372.472C522.688 372.16 523.13 371.926 523.624 371.77C524.118 371.614 524.599 371.536 525.067 371.536H545.152C545.62 371.536 546.101 371.614 546.595 371.77C547.089 371.926 547.531 372.16 547.921 372.472C548.311 372.758 548.623 373.122 548.857 373.564C549.117 374.006 549.247 374.5 549.247 375.046ZM539.926 378.01H530.293V385.186C531.125 383.86 532.178 382.95 533.452 382.456C534.726 381.936 536.078 381.676 537.508 381.676H539.926V378.01ZM575.488 388.111H574.162L580.48 394H569.716L562.228 386.902H561.448V394H552.127V371.536H575.488C575.956 371.536 576.424 371.601 576.892 371.731C577.36 371.861 577.776 372.069 578.14 372.355C578.504 372.615 578.79 372.953 578.998 373.369C579.232 373.785 579.349 374.266 579.349 374.812V384.835C579.349 385.381 579.232 385.862 578.998 386.278C578.79 386.694 578.504 387.045 578.14 387.331C577.776 387.591 577.36 387.786 576.892 387.916C576.424 388.046 575.956 388.111 575.488 388.111ZM570.028 378.01H561.448V385.069C562.28 383.743 563.333 382.846 564.607 382.378C565.881 381.91 567.233 381.676 568.663 381.676H570.028V378.01ZM591.574 394H582.253V371.536H591.574V394ZM594.478 394V387.526L607.27 378.01H594.478V371.536H619.828V377.971L607.036 387.526H619.828V394H594.478ZM650.975 375.046V394H641.654V388.111H632.021V394H622.7V375.046C622.7 374.5 622.817 374.006 623.051 373.564C623.311 373.122 623.636 372.758 624.026 372.472C624.416 372.16 624.858 371.926 625.352 371.77C625.846 371.614 626.327 371.536 626.795 371.536H646.88C647.348 371.536 647.829 371.614 648.323 371.77C648.817 371.926 649.259 372.16 649.649 372.472C650.039 372.758 650.351 373.122 650.585 373.564C650.845 374.006 650.975 374.5 650.975 375.046ZM641.654 378.01H632.021V385.186C632.853 383.86 633.906 382.95 635.18 382.456C636.454 381.936 637.806 381.676 639.236 381.676H641.654V378.01ZM653.854 371.536H679.204V378.01H671.17V394H661.849V378.01H653.854V371.536ZM691.397 394H682.076V371.536H691.397V394ZM722.576 390.49C722.576 391.036 722.446 391.53 722.186 391.972C721.952 392.414 721.64 392.791 721.25 393.103C720.86 393.389 720.418 393.61 719.924 393.766C719.43 393.922 718.949 394 718.481 394H698.396C697.928 394 697.447 393.922 696.953 393.766C696.459 393.61 696.017 393.389 695.627 393.103C695.237 392.791 694.912 392.414 694.652 391.972C694.418 391.53 694.301 391.036 694.301 390.49V375.046C694.301 374.5 694.418 374.006 694.652 373.564C694.912 373.122 695.237 372.758 695.627 372.472C696.017 372.16 696.459 371.926 696.953 371.77C697.447 371.614 697.928 371.536 698.396 371.536H718.481C718.949 371.536 719.43 371.614 719.924 371.77C720.418 371.926 720.86 372.16 721.25 372.472C721.64 372.758 721.952 373.122 722.186 373.564C722.446 374.006 722.576 374.5 722.576 375.046V390.49ZM713.255 378.01H703.622V387.487H713.255V378.01ZM725.456 371.536H733.568L743.825 381.247V371.536H753.146V394H745.034L734.777 384.289V394H725.456V371.536ZM195.391 428.49C195.391 429.036 195.261 429.53 195.001 429.972C194.767 430.414 194.455 430.791 194.065 431.103C193.675 431.389 193.233 431.61 192.739 431.766C192.245 431.922 191.764 432 191.296 432H171.211C170.743 432 170.262 431.922 169.768 431.766C169.274 431.61 168.832 431.389 168.442 431.103C168.052 430.791 167.727 430.414 167.467 429.972C167.233 429.53 167.116 429.036 167.116 428.49V413.046C167.116 412.5 167.233 412.006 167.467 411.564C167.727 411.122 168.052 410.758 168.442 410.472C168.832 410.16 169.274 409.926 169.768 409.77C170.262 409.614 170.743 409.536 171.211 409.536H191.296C191.764 409.536 192.245 409.614 192.739 409.77C193.233 409.926 193.675 410.16 194.065 410.472C194.455 410.758 194.767 411.122 195.001 411.564C195.261 412.006 195.391 412.5 195.391 413.046V428.49ZM221.264 416.01V425.565H230.897V418.272H240.218V432H216.038C215.57 432 215.089 431.922 214.595 431.766C214.101 431.61 213.659 431.389 213.269 431.103C212.879 430.791 212.554 430.414 212.294 429.972C212.06 429.53 211.943 429.036 211.943 428.49V413.046C211.943 412.5 212.06 412.006 212.294 411.564C212.554 411.122 212.879 410.758 213.269 410.472C213.659 410.16 214.101 409.926 214.595 409.77C215.089 409.614 215.57 409.536 216.038 409.536H240.218V416.01H221.264ZM271.372 413.046V432H262.051V426.111H252.418V432H243.097V413.046C243.097 412.5 243.214 412.006 243.448 411.564C243.708 411.122 244.033 410.758 244.423 410.472C244.813 410.16 245.255 409.926 245.749 409.77C246.243 409.614 246.724 409.536 247.192 409.536H267.277C267.745 409.536 268.226 409.614 268.72 409.77C269.214 409.926 269.656 410.16 270.046 410.472C270.436 410.758 270.748 411.122 270.982 411.564C271.242 412.006 271.372 412.5 271.372 413.046ZM262.051 416.01H252.418V423.186C253.25 421.86 254.303 420.95 255.577 420.456C256.851 419.936 258.203 419.676 259.633 419.676H262.051V416.01ZM293.05 425.565L296.326 432H277.918C276.956 432 276.098 431.727 275.344 431.181C274.616 430.609 274.252 429.764 274.252 428.646V409.536H283.573V425.565H293.05ZM327.092 413.046V432H317.771V426.111H308.138V432H298.817V413.046C298.817 412.5 298.934 412.006 299.168 411.564C299.428 411.122 299.753 410.758 300.143 410.472C300.533 410.16 300.975 409.926 301.469 409.77C301.963 409.614 302.444 409.536 302.912 409.536H322.997C323.465 409.536 323.946 409.614 324.44 409.77C324.934 409.926 325.376 410.16 325.766 410.472C326.156 410.758 326.468 411.122 326.702 411.564C326.962 412.006 327.092 412.5 327.092 413.046ZM317.771 416.01H308.138V423.186C308.97 421.86 310.023 420.95 311.297 420.456C312.571 419.936 313.923 419.676 315.353 419.676H317.771V416.01ZM329.971 428.49V413.046C329.971 412.5 330.088 412.006 330.322 411.564C330.582 411.122 330.907 410.758 331.297 410.472C331.687 410.16 332.129 409.926 332.623 409.77C333.117 409.614 333.598 409.536 334.066 409.536H353.527C353.995 409.536 354.476 409.614 354.97 409.77C355.464 409.926 355.906 410.16 356.296 410.472C356.686 410.758 356.998 411.122 357.232 411.564C357.492 412.006 357.622 412.5 357.622 413.046V418.974H348.301V416.01H339.292V425.526H348.301V422.523H357.622V428.49C357.622 429.036 357.492 429.53 357.232 429.972C356.998 430.414 356.686 430.791 356.296 431.103C355.906 431.389 355.464 431.61 354.97 431.766C354.476 431.922 353.995 432 353.527 432H334.066C333.598 432 333.117 431.922 332.623 431.766C332.129 431.61 331.687 431.389 331.297 431.103C330.907 430.791 330.582 430.414 330.322 429.972C330.088 429.53 329.971 429.036 329.971 428.49ZM360.516 409.536H385.866V416.01H377.832V432H368.511V416.01H360.516V409.536ZM398.059 432H388.738V409.536H398.059V432ZM400.964 428.49V413.046C400.964 412.5 401.081 412.006 401.315 411.564C401.575 411.122 401.9 410.758 402.29 410.472C402.68 410.16 403.122 409.926 403.616 409.77C404.11 409.614 404.591 409.536 405.059 409.536H424.52C424.988 409.536 425.469 409.614 425.963 409.77C426.457 409.926 426.899 410.16 427.289 410.472C427.679 410.758 427.991 411.122 428.225 411.564C428.485 412.006 428.615 412.5 428.615 413.046V418.974H419.294V416.01H410.285V425.526H419.294V422.523H428.615V428.49C428.615 429.036 428.485 429.53 428.225 429.972C427.991 430.414 427.679 430.791 427.289 431.103C426.899 431.389 426.457 431.61 425.963 431.766C425.469 431.922 424.988 432 424.52 432H405.059C404.591 432 404.11 431.922 403.616 431.766C403.122 431.61 402.68 431.389 402.29 431.103C401.9 430.791 401.575 430.414 401.315 429.972C401.081 429.53 400.964 429.036 400.964 428.49ZM454.198 416.01V425.565H463.831V418.272H473.152V432H448.972C448.504 432 448.023 431.922 447.529 431.766C447.035 431.61 446.593 431.389 446.203 431.103C445.813 430.791 445.488 430.414 445.228 429.972C444.994 429.53 444.877 429.036 444.877 428.49V413.046C444.877 412.5 444.994 412.006 445.228 411.564C445.488 411.122 445.813 410.758 446.203 410.472C446.593 410.16 447.035 409.926 447.529 409.77C448.023 409.614 448.504 409.536 448.972 409.536H473.152V416.01H454.198ZM485.352 432H476.031V409.536H485.352V432ZM497.07 409.536L501.516 420.183L505.962 409.536H515.361L505.572 432H497.46L487.671 409.536H497.07ZM517.659 432V409.536H543.009V416.01H526.98V417.726H540.045L537.12 423.888H526.98V425.526H543.009V432H517.659ZM574.156 413.046V432H564.835V426.111H555.202V432H545.881V413.046C545.881 412.5 545.998 412.006 546.232 411.564C546.492 411.122 546.817 410.758 547.207 410.472C547.597 410.16 548.039 409.926 548.533 409.77C549.027 409.614 549.508 409.536 549.976 409.536H570.061C570.529 409.536 571.01 409.614 571.504 409.77C571.998 409.926 572.44 410.16 572.83 410.472C573.22 410.758 573.532 411.122 573.766 411.564C574.026 412.006 574.156 412.5 574.156 413.046ZM564.835 416.01H555.202V423.186C556.034 421.86 557.087 420.95 558.361 420.456C559.635 419.936 560.987 419.676 562.417 419.676H564.835V416.01ZM610.38 428.49C610.38 429.036 610.25 429.53 609.99 429.972C609.756 430.414 609.444 430.791 609.054 431.103C608.664 431.389 608.222 431.61 607.728 431.766C607.234 431.922 606.753 432 606.285 432H581.13C580.662 432 580.181 431.922 579.687 431.766C579.193 431.61 578.751 431.389 578.361 431.103C577.971 430.791 577.646 430.414 577.386 429.972C577.152 429.53 577.035 429.036 577.035 428.49V409.536H586.356V425.565H589.086V409.536H598.329V425.565H601.059V409.536H610.38V428.49ZM641.53 413.046V432H632.209V426.111H622.576V432H613.255V413.046C613.255 412.5 613.372 412.006 613.606 411.564C613.866 411.122 614.191 410.758 614.581 410.472C614.971 410.16 615.413 409.926 615.907 409.77C616.401 409.614 616.882 409.536 617.35 409.536H637.435C637.903 409.536 638.384 409.614 638.878 409.77C639.372 409.926 639.814 410.16 640.204 410.472C640.594 410.758 640.906 411.122 641.14 411.564C641.4 412.006 641.53 412.5 641.53 413.046ZM632.209 416.01H622.576V423.186C623.408 421.86 624.461 420.95 625.735 420.456C627.009 419.936 628.361 419.676 629.791 419.676H632.209V416.01ZM662.739 423.966H648.504C648.036 423.966 647.555 423.888 647.061 423.732C646.567 423.576 646.125 423.355 645.735 423.069C645.345 422.757 645.02 422.38 644.76 421.938C644.526 421.496 644.409 421.002 644.409 420.456V409.536H653.73V417.531H655.524C656.252 417.531 656.954 417.57 657.63 417.648C658.306 417.7 658.943 417.83 659.541 418.038C660.165 418.22 660.737 418.506 661.257 418.896C661.803 419.26 662.297 419.754 662.739 420.378V409.536H672.06V428.49C672.06 429.036 671.943 429.53 671.709 429.972C671.475 430.414 671.176 430.791 670.812 431.103C670.448 431.389 670.019 431.61 669.525 431.766C669.057 431.922 668.589 432 668.121 432H644.409V425.565H662.739V423.966ZM684.275 415.971V420.378C684.691 419.728 685.172 419.208 685.718 418.818C686.264 418.428 686.849 418.142 687.473 417.96C688.097 417.778 688.747 417.661 689.423 417.609C690.125 417.557 690.84 417.531 691.568 417.531H696.365C696.833 417.531 697.314 417.609 697.808 417.765C698.302 417.921 698.744 418.155 699.134 418.467C699.524 418.753 699.836 419.117 700.07 419.559C700.33 420.001 700.46 420.495 700.46 421.041V428.49C700.46 429.036 700.343 429.53 700.109 429.972C699.875 430.414 699.576 430.791 699.212 431.103C698.848 431.389 698.419 431.61 697.925 431.766C697.457 431.922 696.989 432 696.521 432H674.954V425.565H691.139V423.966H679.049C678.581 423.966 678.1 423.888 677.606 423.732C677.112 423.576 676.67 423.355 676.28 423.069C675.89 422.757 675.565 422.38 675.305 421.938C675.071 421.496 674.954 421.002 674.954 420.456V413.046C674.954 412.5 675.071 412.006 675.305 411.564C675.539 411.122 675.838 410.758 676.202 410.472C676.566 410.16 676.982 409.926 677.45 409.77C677.944 409.614 678.425 409.536 678.893 409.536H700.46V415.971H684.275ZM195.391 466.49C195.391 467.036 195.261 467.53 195.001 467.972C194.767 468.414 194.455 468.791 194.065 469.103C193.675 469.389 193.233 469.61 192.739 469.766C192.245 469.922 191.764 470 191.296 470H171.211C170.743 470 170.262 469.922 169.768 469.766C169.274 469.61 168.832 469.389 168.442 469.103C168.052 468.791 167.727 468.414 167.467 467.972C167.233 467.53 167.116 467.036 167.116 466.49V451.046C167.116 450.5 167.233 450.006 167.467 449.564C167.727 449.122 168.052 448.758 168.442 448.472C168.832 448.16 169.274 447.926 169.768 447.77C170.262 447.614 170.743 447.536 171.211 447.536H191.296C191.764 447.536 192.245 447.614 192.739 447.77C193.233 447.926 193.675 448.16 194.065 448.472C194.455 448.758 194.767 449.122 195.001 449.564C195.261 450.006 195.391 450.5 195.391 451.046V466.49ZM211.943 466.49V451.046C211.943 450.5 212.06 450.006 212.294 449.564C212.554 449.122 212.879 448.758 213.269 448.472C213.659 448.16 214.101 447.926 214.595 447.77C215.089 447.614 215.57 447.536 216.038 447.536H235.499C235.967 447.536 236.448 447.614 236.942 447.77C237.436 447.926 237.878 448.16 238.268 448.472C238.658 448.758 238.97 449.122 239.204 449.564C239.464 450.006 239.594 450.5 239.594 451.046V456.974H230.273V454.01H221.264V463.526H230.273V460.523H239.594V466.49C239.594 467.036 239.464 467.53 239.204 467.972C238.97 468.414 238.658 468.791 238.268 469.103C237.878 469.389 237.436 469.61 236.942 469.766C236.448 469.922 235.967 470 235.499 470H216.038C215.57 470 215.089 469.922 214.595 469.766C214.101 469.61 213.659 469.389 213.269 469.103C212.879 468.791 212.554 468.414 212.294 467.972C212.06 467.53 211.943 467.036 211.943 466.49ZM275.833 451.046V470H266.512V453.971H263.782V470H254.539V453.971H251.809V470H242.488V447.536H271.738C272.206 447.536 272.687 447.614 273.181 447.77C273.675 447.926 274.117 448.16 274.507 448.472C274.897 448.758 275.209 449.122 275.443 449.564C275.703 450.006 275.833 450.5 275.833 451.046ZM278.708 466.49V451.046C278.708 450.5 278.825 450.006 279.059 449.564C279.319 449.122 279.644 448.758 280.034 448.472C280.424 448.16 280.866 447.926 281.36 447.77C281.854 447.614 282.335 447.536 282.803 447.536H302.264C302.732 447.536 303.213 447.614 303.707 447.77C304.201 447.926 304.643 448.16 305.033 448.472C305.423 448.758 305.735 449.122 305.969 449.564C306.229 450.006 306.359 450.5 306.359 451.046V456.974H297.038V454.01H288.029V463.526H297.038V460.523H306.359V466.49C306.359 467.036 306.229 467.53 305.969 467.972C305.735 468.414 305.423 468.791 305.033 469.103C304.643 469.389 304.201 469.61 303.707 469.766C303.213 469.922 302.732 470 302.264 470H282.803C282.335 470 281.854 469.922 281.36 469.766C280.866 469.61 280.424 469.389 280.034 469.103C279.644 468.791 279.319 468.414 279.059 467.972C278.825 467.53 278.708 467.036 278.708 466.49ZM326.482 470C326.014 470 325.546 469.935 325.078 469.805C324.61 469.675 324.194 469.48 323.83 469.22C323.466 468.934 323.167 468.583 322.933 468.167C322.725 467.751 322.621 467.27 322.621 466.724V460.718C322.699 460.354 322.868 459.951 323.128 459.509C323.414 459.067 323.739 458.69 324.103 458.378C323.843 458.092 323.557 457.702 323.245 457.208C322.933 456.714 322.725 456.129 322.621 455.453V450.812C322.621 450.266 322.725 449.785 322.933 449.369C323.167 448.953 323.466 448.615 323.83 448.355C324.194 448.069 324.61 447.861 325.078 447.731C325.546 447.601 326.014 447.536 326.482 447.536H346.606V454.01H331.942V458.963C332.774 457.663 333.827 456.805 335.101 456.389C336.375 455.947 337.727 455.726 339.157 455.726H350.233V461.888H348.4V466.724C348.4 467.27 348.283 467.751 348.049 468.167C347.841 468.583 347.555 468.934 347.191 469.22C346.827 469.48 346.411 469.675 345.943 469.805C345.475 469.935 345.007 470 344.539 470H326.482ZM339.079 463.526V461.771H331.942V463.526H339.079ZM366.496 466.49V451.046C366.496 450.5 366.613 450.006 366.847 449.564C367.107 449.122 367.432 448.758 367.822 448.472C368.212 448.16 368.654 447.926 369.148 447.77C369.642 447.614 370.123 447.536 370.591 447.536H390.052C390.52 447.536 391.001 447.614 391.495 447.77C391.989 447.926 392.431 448.16 392.821 448.472C393.211 448.758 393.523 449.122 393.757 449.564C394.017 450.006 394.147 450.5 394.147 451.046V456.974H384.826V454.01H375.817V463.526H384.826V460.523H394.147V466.49C394.147 467.036 394.017 467.53 393.757 467.972C393.523 468.414 393.211 468.791 392.821 469.103C392.431 469.389 391.989 469.61 391.495 469.766C391.001 469.922 390.52 470 390.052 470H370.591C370.123 470 369.642 469.922 369.148 469.766C368.654 469.61 368.212 469.389 367.822 469.103C367.432 468.791 367.107 468.414 366.847 467.972C366.613 467.53 366.496 467.036 366.496 466.49ZM425.316 466.49C425.316 467.036 425.186 467.53 424.926 467.972C424.692 468.414 424.38 468.791 423.99 469.103C423.6 469.389 423.158 469.61 422.664 469.766C422.17 469.922 421.689 470 421.221 470H401.136C400.668 470 400.187 469.922 399.693 469.766C399.199 469.61 398.757 469.389 398.367 469.103C397.977 468.791 397.652 468.414 397.392 467.972C397.158 467.53 397.041 467.036 397.041 466.49V451.046C397.041 450.5 397.158 450.006 397.392 449.564C397.652 449.122 397.977 448.758 398.367 448.472C398.757 448.16 399.199 447.926 399.693 447.77C400.187 447.614 400.668 447.536 401.136 447.536H421.221C421.689 447.536 422.17 447.614 422.664 447.77C423.158 447.926 423.6 448.16 423.99 448.472C424.38 448.758 424.692 449.122 424.926 449.564C425.186 450.006 425.316 450.5 425.316 451.046V466.49ZM415.995 454.01H406.362V463.487H415.995V454.01ZM437.516 470H428.195V447.536H437.516V470ZM440.421 447.536H448.533L458.79 457.247V447.536H468.111V470H459.999L449.742 460.289V470H440.421V447.536ZM471.004 466.49V451.046C471.004 450.5 471.121 450.006 471.355 449.564C471.615 449.122 471.94 448.758 472.33 448.472C472.72 448.16 473.162 447.926 473.656 447.77C474.15 447.614 474.631 447.536 475.099 447.536H499.279V454.01H480.325V463.526H489.958V461.849H487.891L484.966 455.726H499.279V466.49C499.279 467.036 499.149 467.53 498.889 467.972C498.655 468.414 498.343 468.791 497.953 469.103C497.563 469.389 497.121 469.61 496.627 469.766C496.133 469.922 495.652 470 495.184 470H475.099C474.631 470 474.15 469.922 473.656 469.766C473.162 469.61 472.72 469.389 472.33 469.103C471.94 468.791 471.615 468.414 471.355 467.972C471.121 467.53 471.004 467.036 471.004 466.49ZM502.158 470V447.536H527.508V454.01H511.479V455.726H524.544L521.619 461.888H511.479V463.526H527.508V470H502.158ZM530.38 466.49V451.046C530.38 450.5 530.497 450.006 530.731 449.564C530.991 449.122 531.316 448.758 531.706 448.472C532.096 448.16 532.538 447.926 533.032 447.77C533.526 447.614 534.007 447.536 534.475 447.536H553.936C554.404 447.536 554.885 447.614 555.379 447.77C555.873 447.926 556.315 448.16 556.705 448.472C557.095 448.758 557.407 449.122 557.641 449.564C557.901 450.006 558.031 450.5 558.031 451.046V456.974H548.71V454.01H539.701V463.526H548.71V460.523H558.031V466.49C558.031 467.036 557.901 467.53 557.641 467.972C557.407 468.414 557.095 468.791 556.705 469.103C556.315 469.389 555.873 469.61 555.379 469.766C554.885 469.922 554.404 470 553.936 470H534.475C534.007 470 533.526 469.922 533.032 469.766C532.538 469.61 532.096 469.389 531.706 469.103C531.316 468.791 530.991 468.414 530.731 467.972C530.497 467.53 530.38 467.036 530.38 466.49ZM584.285 455.765C584.753 455.765 585.221 455.83 585.689 455.96C586.157 456.09 586.573 456.298 586.937 456.584C587.301 456.844 587.587 457.182 587.795 457.598C588.029 458.014 588.146 458.495 588.146 459.041V470H578.825V462.2H577.46C576.758 462.2 576.056 462.161 575.354 462.083C574.678 461.979 574.028 461.81 573.404 461.576C572.78 461.316 572.195 460.978 571.649 460.562C571.129 460.146 570.661 459.6 570.245 458.924V470H560.924V447.536H570.245V456.974H571.025L577.421 447.536H588.185L582.764 455.765H584.285ZM619.325 466.49C619.325 467.036 619.195 467.53 618.935 467.972C618.701 468.414 618.389 468.791 617.999 469.103C617.609 469.389 617.167 469.61 616.673 469.766C616.179 469.922 615.698 470 615.23 470H595.145C594.677 470 594.196 469.922 593.702 469.766C593.208 469.61 592.766 469.389 592.376 469.103C591.986 468.791 591.661 468.414 591.401 467.972C591.167 467.53 591.05 467.036 591.05 466.49V451.046C591.05 450.5 591.167 450.006 591.401 449.564C591.661 449.122 591.986 448.758 592.376 448.472C592.766 448.16 593.208 447.926 593.702 447.77C594.196 447.614 594.677 447.536 595.145 447.536H615.23C615.698 447.536 616.179 447.614 616.673 447.77C617.167 447.926 617.609 448.16 617.999 448.472C618.389 448.758 618.701 449.122 618.935 449.564C619.195 450.006 619.325 450.5 619.325 451.046V466.49ZM610.004 454.01H600.371V463.487H610.004V454.01ZM635.573 466.49V451.046C635.573 450.5 635.69 450.006 635.924 449.564C636.184 449.122 636.509 448.758 636.899 448.472C637.289 448.16 637.731 447.926 638.225 447.77C638.719 447.614 639.2 447.536 639.668 447.536H659.129C659.597 447.536 660.078 447.614 660.572 447.77C661.066 447.926 661.508 448.16 661.898 448.472C662.288 448.758 662.6 449.122 662.834 449.564C663.094 450.006 663.224 450.5 663.224 451.046V456.974H653.903V454.01H644.894V463.526H653.903V460.523H663.224V466.49C663.224 467.036 663.094 467.53 662.834 467.972C662.6 468.414 662.288 468.791 661.898 469.103C661.508 469.389 661.066 469.61 660.572 469.766C660.078 469.922 659.597 470 659.129 470H639.668C639.2 470 638.719 469.922 638.225 469.766C637.731 469.61 637.289 469.389 636.899 469.103C636.509 468.791 636.184 468.414 635.924 467.972C635.69 467.53 635.573 467.036 635.573 466.49ZM694.393 466.49C694.393 467.036 694.263 467.53 694.003 467.972C693.769 468.414 693.457 468.791 693.067 469.103C692.677 469.389 692.235 469.61 691.741 469.766C691.247 469.922 690.766 470 690.298 470H670.213C669.745 470 669.264 469.922 668.77 469.766C668.276 469.61 667.834 469.389 667.444 469.103C667.054 468.791 666.729 468.414 666.469 467.972C666.235 467.53 666.118 467.036 666.118 466.49V451.046C666.118 450.5 666.235 450.006 666.469 449.564C666.729 449.122 667.054 448.758 667.444 448.472C667.834 448.16 668.276 447.926 668.77 447.77C669.264 447.614 669.745 447.536 670.213 447.536H690.298C690.766 447.536 691.247 447.614 691.741 447.77C692.235 447.926 692.677 448.16 693.067 448.472C693.457 448.758 693.769 449.122 694.003 449.564C694.263 450.006 694.393 450.5 694.393 451.046V466.49ZM685.072 454.01H675.439V463.487H685.072V454.01ZM697.272 447.536H705.384L715.641 457.247V447.536H724.962V470H716.85L706.593 460.289V470H697.272V447.536ZM737.176 453.971V458.378C737.592 457.728 738.073 457.208 738.619 456.818C739.165 456.428 739.75 456.142 740.374 455.96C740.998 455.778 741.648 455.661 742.324 455.609C743.026 455.557 743.741 455.531 744.469 455.531H749.266C749.734 455.531 750.215 455.609 750.709 455.765C751.203 455.921 751.645 456.155 752.035 456.467C752.425 456.753 752.737 457.117 752.971 457.559C753.231 458.001 753.361 458.495 753.361 459.041V466.49C753.361 467.036 753.244 467.53 753.01 467.972C752.776 468.414 752.477 468.791 752.113 469.103C751.749 469.389 751.32 469.61 750.826 469.766C750.358 469.922 749.89 470 749.422 470H727.855V463.565H744.04V461.966H731.95C731.482 461.966 731.001 461.888 730.507 461.732C730.013 461.576 729.571 461.355 729.181 461.069C728.791 460.757 728.466 460.38 728.206 459.938C727.972 459.496 727.855 459.002 727.855 458.456V451.046C727.855 450.5 727.972 450.006 728.206 449.564C728.44 449.122 728.739 448.758 729.103 448.472C729.467 448.16 729.883 447.926 730.351 447.77C730.845 447.614 731.326 447.536 731.794 447.536H753.361V453.971H737.176ZM756.229 447.536H781.579V454.01H773.545V470H764.224V454.01H756.229V447.536ZM784.451 470V447.536H809.801V454.01H793.772V455.726H806.837L803.912 461.888H793.772V463.526H809.801V470H784.451ZM831.47 463.565L834.746 470H816.338C815.376 470 814.518 469.727 813.764 469.181C813.036 468.609 812.672 467.764 812.672 466.646V447.536H821.993V463.565H831.47ZM855.465 463.565L858.741 470H840.333C839.371 470 838.513 469.727 837.759 469.181C837.031 468.609 836.667 467.764 836.667 466.646V447.536H845.988V463.565H855.465ZM889.507 451.046V470H880.186V464.111H870.553V470H861.232V451.046C861.232 450.5 861.349 450.006 861.583 449.564C861.843 449.122 862.168 448.758 862.558 448.472C862.948 448.16 863.39 447.926 863.884 447.77C864.378 447.614 864.859 447.536 865.327 447.536H885.412C885.88 447.536 886.361 447.614 886.855 447.77C887.349 447.926 887.791 448.16 888.181 448.472C888.571 448.758 888.883 449.122 889.117 449.564C889.377 450.006 889.507 450.5 889.507 451.046ZM880.186 454.01H870.553V461.186C871.385 459.86 872.438 458.95 873.712 458.456C874.986 457.936 876.338 457.676 877.768 457.676H880.186V454.01ZM892.386 447.536H917.736V454.01H909.702V470H900.381V454.01H892.386V447.536ZM929.929 470H920.608V447.536H929.929V470ZM961.109 466.49C961.109 467.036 960.979 467.53 960.719 467.972C960.485 468.414 960.173 468.791 959.783 469.103C959.393 469.389 958.951 469.61 958.457 469.766C957.963 469.922 957.482 470 957.014 470H936.929C936.461 470 935.98 469.922 935.486 469.766C934.992 469.61 934.55 469.389 934.16 469.103C933.77 468.791 933.445 468.414 933.185 467.972C932.951 467.53 932.834 467.036 932.834 466.49V451.046C932.834 450.5 932.951 450.006 933.185 449.564C933.445 449.122 933.77 448.758 934.16 448.472C934.55 448.16 934.992 447.926 935.486 447.77C935.98 447.614 936.461 447.536 936.929 447.536H957.014C957.482 447.536 957.963 447.614 958.457 447.77C958.951 447.926 959.393 448.16 959.783 448.472C960.173 448.758 960.485 449.122 960.719 449.564C960.979 450.006 961.109 450.5 961.109 451.046V466.49ZM951.788 454.01H942.155V463.487H951.788V454.01ZM963.988 447.536H972.1L982.357 457.247V447.536H991.678V470H983.566L973.309 460.289V470H963.988V447.536ZM195.391 504.49C195.391 505.036 195.261 505.53 195.001 505.972C194.767 506.414 194.455 506.791 194.065 507.103C193.675 507.389 193.233 507.61 192.739 507.766C192.245 507.922 191.764 508 191.296 508H171.211C170.743 508 170.262 507.922 169.768 507.766C169.274 507.61 168.832 507.389 168.442 507.103C168.052 506.791 167.727 506.414 167.467 505.972C167.233 505.53 167.116 505.036 167.116 504.49V489.046C167.116 488.5 167.233 488.006 167.467 487.564C167.727 487.122 168.052 486.758 168.442 486.472C168.832 486.16 169.274 485.926 169.768 485.77C170.262 485.614 170.743 485.536 171.211 485.536H191.296C191.764 485.536 192.245 485.614 192.739 485.77C193.233 485.926 193.675 486.16 194.065 486.472C194.455 486.758 194.767 487.122 195.001 487.564C195.261 488.006 195.391 488.5 195.391 489.046V504.49ZM243.104 508H233.744V502.15H226.607L229.922 495.676H233.744V492.01H229.493L221.264 508H211.358L222.746 485.536H239.867C240.179 485.536 240.517 485.627 240.881 485.809C241.271 485.991 241.622 486.225 241.934 486.511C242.272 486.771 242.545 487.07 242.753 487.408C242.987 487.72 243.104 488.032 243.104 488.344V508ZM279.337 489.046V508H270.016V491.971H267.286V508H258.043V491.971H255.313V508H245.992V485.536H275.242C275.71 485.536 276.191 485.614 276.685 485.77C277.179 485.926 277.621 486.16 278.011 486.472C278.401 486.758 278.713 487.122 278.947 487.564C279.207 488.006 279.337 488.5 279.337 489.046ZM313.373 508H304.013V502.15H296.876L300.191 495.676H304.013V492.01H299.762L291.533 508H281.627L293.015 485.536H310.136C310.448 485.536 310.786 485.627 311.15 485.809C311.54 485.991 311.891 486.225 312.203 486.511C312.541 486.771 312.814 487.07 313.022 487.408C313.256 487.72 313.373 488.032 313.373 488.344V508ZM357.904 504.49C357.904 505.036 357.774 505.53 357.514 505.972C357.28 506.414 356.968 506.791 356.578 507.103C356.188 507.389 355.746 507.61 355.252 507.766C354.758 507.922 354.277 508 353.809 508H333.724C333.256 508 332.775 507.922 332.281 507.766C331.787 507.61 331.345 507.389 330.955 507.103C330.565 506.791 330.24 506.414 329.98 505.972C329.746 505.53 329.629 505.036 329.629 504.49V489.046C329.629 488.5 329.746 488.006 329.98 487.564C330.24 487.122 330.565 486.758 330.955 486.472C331.345 486.16 331.787 485.926 332.281 485.77C332.775 485.614 333.256 485.536 333.724 485.536H353.809C354.277 485.536 354.758 485.614 355.252 485.77C355.746 485.926 356.188 486.16 356.578 486.472C356.968 486.758 357.28 487.122 357.514 487.564C357.774 488.006 357.904 488.5 357.904 489.046V504.49ZM348.583 492.01H338.95V501.487H348.583V492.01ZM389.058 504.49C389.058 505.036 388.928 505.53 388.668 505.972C388.434 506.414 388.122 506.791 387.732 507.103C387.342 507.389 386.9 507.61 386.406 507.766C385.912 507.922 385.431 508 384.963 508H360.783V485.536H384.963C385.431 485.536 385.912 485.614 386.406 485.77C386.9 485.926 387.342 486.16 387.732 486.472C388.122 486.758 388.434 487.122 388.668 487.564C388.928 488.006 389.058 488.5 389.058 489.046V504.49ZM379.62 492.01H370.104V501.526H379.62V492.01ZM410.267 499.966H396.032C395.564 499.966 395.083 499.888 394.589 499.732C394.095 499.576 393.653 499.355 393.263 499.069C392.873 498.757 392.548 498.38 392.288 497.938C392.054 497.496 391.937 497.002 391.937 496.456V485.536H401.258V493.531H403.052C403.78 493.531 404.482 493.57 405.158 493.648C405.834 493.7 406.471 493.83 407.069 494.038C407.693 494.22 408.265 494.506 408.785 494.896C409.331 495.26 409.825 495.754 410.267 496.378V485.536H419.588V504.49C419.588 505.036 419.471 505.53 419.237 505.972C419.003 506.414 418.704 506.791 418.34 507.103C417.976 507.389 417.547 507.61 417.053 507.766C416.585 507.922 416.117 508 415.649 508H391.937V501.565H410.267V499.966ZM431.803 491.971V496.378C432.219 495.728 432.7 495.208 433.246 494.818C433.792 494.428 434.377 494.142 435.001 493.96C435.625 493.778 436.275 493.661 436.951 493.609C437.653 493.557 438.368 493.531 439.096 493.531H443.893C444.361 493.531 444.842 493.609 445.336 493.765C445.83 493.921 446.272 494.155 446.662 494.467C447.052 494.753 447.364 495.117 447.598 495.559C447.858 496.001 447.988 496.495 447.988 497.041V504.49C447.988 505.036 447.871 505.53 447.637 505.972C447.403 506.414 447.104 506.791 446.74 507.103C446.376 507.389 445.947 507.61 445.453 507.766C444.985 507.922 444.517 508 444.049 508H422.482V501.565H438.667V499.966H426.577C426.109 499.966 425.628 499.888 425.134 499.732C424.64 499.576 424.198 499.355 423.808 499.069C423.418 498.757 423.093 498.38 422.833 497.938C422.599 497.496 422.482 497.002 422.482 496.456V489.046C422.482 488.5 422.599 488.006 422.833 487.564C423.067 487.122 423.366 486.758 423.73 486.472C424.094 486.16 424.51 485.926 424.978 485.77C425.472 485.614 425.953 485.536 426.421 485.536H447.988V491.971H431.803ZM460.177 491.971V496.378C460.593 495.728 461.074 495.208 461.62 494.818C462.166 494.428 462.751 494.142 463.375 493.96C463.999 493.778 464.649 493.661 465.325 493.609C466.027 493.557 466.742 493.531 467.47 493.531H472.267C472.735 493.531 473.216 493.609 473.71 493.765C474.204 493.921 474.646 494.155 475.036 494.467C475.426 494.753 475.738 495.117 475.972 495.559C476.232 496.001 476.362 496.495 476.362 497.041V504.49C476.362 505.036 476.245 505.53 476.011 505.972C475.777 506.414 475.478 506.791 475.114 507.103C474.75 507.389 474.321 507.61 473.827 507.766C473.359 507.922 472.891 508 472.423 508H450.856V501.565H467.041V499.966H454.951C454.483 499.966 454.002 499.888 453.508 499.732C453.014 499.576 452.572 499.355 452.182 499.069C451.792 498.757 451.467 498.38 451.207 497.938C450.973 497.496 450.856 497.002 450.856 496.456V489.046C450.856 488.5 450.973 488.006 451.207 487.564C451.441 487.122 451.74 486.758 452.104 486.472C452.468 486.16 452.884 485.926 453.352 485.77C453.846 485.614 454.327 485.536 454.795 485.536H476.362V491.971H460.177ZM479.23 508V485.536H504.58V492.01H488.551V493.726H501.616L498.691 499.888H488.551V501.526H504.58V508H479.23ZM525.782 499.966H511.547C511.079 499.966 510.598 499.888 510.104 499.732C509.61 499.576 509.168 499.355 508.778 499.069C508.388 498.757 508.063 498.38 507.803 497.938C507.569 497.496 507.452 497.002 507.452 496.456V485.536H516.773V493.531H518.567C519.295 493.531 519.997 493.57 520.673 493.648C521.349 493.7 521.986 493.83 522.584 494.038C523.208 494.22 523.78 494.506 524.3 494.896C524.846 495.26 525.34 495.754 525.782 496.378V485.536H535.103V504.49C535.103 505.036 534.986 505.53 534.752 505.972C534.518 506.414 534.219 506.791 533.855 507.103C533.491 507.389 533.062 507.61 532.568 507.766C532.1 507.922 531.632 508 531.164 508H507.452V501.565H525.782V499.966ZM195.391 542.49C195.391 543.036 195.261 543.53 195.001 543.972C194.767 544.414 194.455 544.791 194.065 545.103C193.675 545.389 193.233 545.61 192.739 545.766C192.245 545.922 191.764 546 191.296 546H171.211C170.743 546 170.262 545.922 169.768 545.766C169.274 545.61 168.832 545.389 168.442 545.103C168.052 544.791 167.727 544.414 167.467 543.972C167.233 543.53 167.116 543.036 167.116 542.49V527.046C167.116 526.5 167.233 526.006 167.467 525.564C167.727 525.122 168.052 524.758 168.442 524.472C168.832 524.16 169.274 523.926 169.768 523.77C170.262 523.614 170.743 523.536 171.211 523.536H191.296C191.764 523.536 192.245 523.614 192.739 523.77C193.233 523.926 193.675 524.16 194.065 524.472C194.455 524.758 194.767 525.122 195.001 525.564C195.261 526.006 195.391 526.5 195.391 527.046V542.49ZM211.943 542.49V527.046C211.943 526.5 212.06 526.006 212.294 525.564C212.554 525.122 212.879 524.758 213.269 524.472C213.659 524.16 214.101 523.926 214.595 523.77C215.089 523.614 215.57 523.536 216.038 523.536H235.499C235.967 523.536 236.448 523.614 236.942 523.77C237.436 523.926 237.878 524.16 238.268 524.472C238.658 524.758 238.97 525.122 239.204 525.564C239.464 526.006 239.594 526.5 239.594 527.046V532.974H230.273V530.01H221.264V539.526H230.273V536.523H239.594V542.49C239.594 543.036 239.464 543.53 239.204 543.972C238.97 544.414 238.658 544.791 238.268 545.103C237.878 545.389 237.436 545.61 236.942 545.766C236.448 545.922 235.967 546 235.499 546H216.038C215.57 546 215.089 545.922 214.595 545.766C214.101 545.61 213.659 545.389 213.269 545.103C212.879 544.791 212.554 544.414 212.294 543.972C212.06 543.53 211.943 543.036 211.943 542.49ZM270.763 542.49C270.763 543.036 270.633 543.53 270.373 543.972C270.139 544.414 269.827 544.791 269.437 545.103C269.047 545.389 268.605 545.61 268.111 545.766C267.617 545.922 267.136 546 266.668 546H246.583C246.115 546 245.634 545.922 245.14 545.766C244.646 545.61 244.204 545.389 243.814 545.103C243.424 544.791 243.099 544.414 242.839 543.972C242.605 543.53 242.488 543.036 242.488 542.49V527.046C242.488 526.5 242.605 526.006 242.839 525.564C243.099 525.122 243.424 524.758 243.814 524.472C244.204 524.16 244.646 523.926 245.14 523.77C245.634 523.614 246.115 523.536 246.583 523.536H266.668C267.136 523.536 267.617 523.614 268.111 523.77C268.605 523.926 269.047 524.16 269.437 524.472C269.827 524.758 270.139 525.122 270.373 525.564C270.633 526.006 270.763 526.5 270.763 527.046V542.49ZM261.442 530.01H251.809V539.487H261.442V530.01ZM273.642 523.536H284.289L290.607 535.236L297.042 523.536H307.689V546H298.29V538.317L293.766 546H287.448L283.041 538.317V546H273.642V523.536ZM319.488 546H310.167V523.536H319.488V546ZM322.392 523.536H330.504L340.761 533.247V523.536H350.082V546H341.97L331.713 536.289V546H322.392V523.536ZM352.975 542.49V527.046C352.975 526.5 353.092 526.006 353.326 525.564C353.586 525.122 353.911 524.758 354.301 524.472C354.691 524.16 355.133 523.926 355.627 523.77C356.121 523.614 356.602 523.536 357.07 523.536H381.25V530.01H362.296V539.526H371.929V537.849H369.862L366.937 531.726H381.25V542.49C381.25 543.036 381.12 543.53 380.86 543.972C380.626 544.414 380.314 544.791 379.924 545.103C379.534 545.389 379.092 545.61 378.598 545.766C378.104 545.922 377.623 546 377.155 546H357.07C356.602 546 356.121 545.922 355.627 545.766C355.133 545.61 354.691 545.389 354.301 545.103C353.911 544.791 353.586 544.414 353.326 543.972C353.092 543.53 352.975 543.036 352.975 542.49ZM406.819 529.971V534.378C407.235 533.728 407.703 533.208 408.223 532.818C408.769 532.428 409.354 532.142 409.978 531.96C410.602 531.778 411.252 531.661 411.928 531.609C412.63 531.557 413.332 531.531 414.034 531.531H421.015C421.483 531.531 421.964 531.609 422.458 531.765C422.952 531.921 423.394 532.155 423.784 532.467C424.174 532.753 424.486 533.117 424.72 533.559C424.98 534.001 425.11 534.495 425.11 535.041V542.49C425.11 543.036 424.993 543.53 424.759 543.972C424.525 544.414 424.226 544.791 423.862 545.103C423.498 545.389 423.069 545.61 422.575 545.766C422.107 545.922 421.639 546 421.171 546H397.498V539.565H415.789V537.966H401.593C401.125 537.966 400.644 537.888 400.15 537.732C399.656 537.576 399.214 537.355 398.824 537.069C398.434 536.757 398.109 536.38 397.849 535.938C397.615 535.496 397.498 535.002 397.498 534.456V527.046C397.498 526.5 397.615 526.006 397.849 525.564C398.083 525.122 398.382 524.758 398.746 524.472C399.11 524.16 399.526 523.926 399.994 523.77C400.488 523.614 400.969 523.536 401.437 523.536H425.11V529.971H406.819ZM456.28 542.49C456.28 543.036 456.15 543.53 455.89 543.972C455.656 544.414 455.344 544.791 454.954 545.103C454.564 545.389 454.122 545.61 453.628 545.766C453.134 545.922 452.653 546 452.185 546H432.1C431.632 546 431.151 545.922 430.657 545.766C430.163 545.61 429.721 545.389 429.331 545.103C428.941 544.791 428.616 544.414 428.356 543.972C428.122 543.53 428.005 543.036 428.005 542.49V527.046C428.005 526.5 428.122 526.006 428.356 525.564C428.616 525.122 428.941 524.758 429.331 524.472C429.721 524.16 430.163 523.926 430.657 523.77C431.151 523.614 431.632 523.536 432.1 523.536H452.185C452.653 523.536 453.134 523.614 453.628 523.77C454.122 523.926 454.564 524.16 454.954 524.472C455.344 524.758 455.656 525.122 455.89 525.564C456.15 526.006 456.28 526.5 456.28 527.046V542.49ZM446.959 530.01H437.326V539.487H446.959V530.01ZM487.434 542.49C487.434 543.036 487.304 543.53 487.044 543.972C486.81 544.414 486.498 544.791 486.108 545.103C485.718 545.389 485.276 545.61 484.782 545.766C484.288 545.922 483.807 546 483.339 546H463.254C462.786 546 462.305 545.922 461.811 545.766C461.317 545.61 460.875 545.389 460.485 545.103C460.095 544.791 459.77 544.414 459.51 543.972C459.276 543.53 459.159 543.036 459.159 542.49V527.046C459.159 526.5 459.276 526.006 459.51 525.564C459.77 525.122 460.095 524.758 460.485 524.472C460.875 524.16 461.317 523.926 461.811 523.77C462.305 523.614 462.786 523.536 463.254 523.536H483.339C483.807 523.536 484.288 523.614 484.782 523.77C485.276 523.926 485.718 524.16 486.108 524.472C486.498 524.758 486.81 525.122 487.044 525.564C487.304 526.006 487.434 526.5 487.434 527.046V542.49ZM478.113 530.01H468.48V539.487H478.113V530.01ZM518.588 542.49C518.588 543.036 518.458 543.53 518.198 543.972C517.964 544.414 517.652 544.791 517.262 545.103C516.872 545.389 516.43 545.61 515.936 545.766C515.442 545.922 514.961 546 514.493 546H494.408C493.94 546 493.459 545.922 492.965 545.766C492.471 545.61 492.029 545.389 491.639 545.103C491.249 544.791 490.924 544.414 490.664 543.972C490.43 543.53 490.313 543.036 490.313 542.49V527.046C490.313 526.5 490.43 526.006 490.664 525.564C490.924 525.122 491.249 524.758 491.639 524.472C492.029 524.16 492.471 523.926 492.965 523.77C493.459 523.614 493.94 523.536 494.408 523.536H514.493C514.961 523.536 515.442 523.614 515.936 523.77C516.43 523.926 516.872 524.16 517.262 524.472C517.652 524.758 517.964 525.122 518.198 525.564C518.458 526.006 518.588 526.5 518.588 527.046V542.49ZM509.267 530.01H499.634V539.487H509.267V530.01ZM521.467 523.536H529.579L539.836 533.247V523.536H549.157V546H541.045L530.788 536.289V546H521.467V523.536ZM565.419 523.536H590.769V530.01H581.643V539.565H585.309V546H576.417C575.949 546 575.468 545.922 574.974 545.766C574.48 545.61 574.038 545.389 573.648 545.103C573.258 544.791 572.933 544.414 572.673 543.972C572.439 543.53 572.322 543.036 572.322 542.49V530.01H565.419V523.536ZM621.915 542.49C621.915 543.036 621.785 543.53 621.525 543.972C621.291 544.414 620.979 544.791 620.589 545.103C620.199 545.389 619.757 545.61 619.263 545.766C618.769 545.922 618.288 546 617.82 546H597.735C597.267 546 596.786 545.922 596.292 545.766C595.798 545.61 595.356 545.389 594.966 545.103C594.576 544.791 594.251 544.414 593.991 543.972C593.757 543.53 593.64 543.036 593.64 542.49V527.046C593.64 526.5 593.757 526.006 593.991 525.564C594.251 525.122 594.576 524.758 594.966 524.472C595.356 524.16 595.798 523.926 596.292 523.77C596.786 523.614 597.267 523.536 597.735 523.536H617.82C618.288 523.536 618.769 523.614 619.263 523.77C619.757 523.926 620.199 524.16 620.589 524.472C620.979 524.758 621.291 525.122 621.525 525.564C621.785 526.006 621.915 526.5 621.915 527.046V542.49ZM612.594 530.01H602.961V539.487H612.594V530.01ZM638.163 523.536H646.275L656.532 533.247V523.536H665.853V546H657.741L647.484 536.289V546H638.163V523.536ZM668.746 546V523.536H694.096V530.01H678.067V531.726H691.132L688.207 537.888H678.067V539.526H694.096V546H668.746ZM730.312 542.49C730.312 543.036 730.182 543.53 729.922 543.972C729.688 544.414 729.376 544.791 728.986 545.103C728.596 545.389 728.154 545.61 727.66 545.766C727.166 545.922 726.685 546 726.217 546H701.062C700.594 546 700.113 545.922 699.619 545.766C699.125 545.61 698.683 545.389 698.293 545.103C697.903 544.791 697.578 544.414 697.318 543.972C697.084 543.53 696.967 543.036 696.967 542.49V523.536H706.288V539.565H709.018V523.536H718.261V539.565H720.991V523.536H730.312V542.49ZM746.555 542.49V527.046C746.555 526.5 746.672 526.006 746.906 525.564C747.166 525.122 747.491 524.758 747.881 524.472C748.271 524.16 748.713 523.926 749.207 523.77C749.701 523.614 750.182 523.536 750.65 523.536H774.83V530.01H755.876V539.526H765.509V537.849H763.442L760.517 531.726H774.83V542.49C774.83 543.036 774.7 543.53 774.44 543.972C774.206 544.414 773.894 544.791 773.504 545.103C773.114 545.389 772.672 545.61 772.178 545.766C771.684 545.922 771.203 546 770.735 546H750.65C750.182 546 749.701 545.922 749.207 545.766C748.713 545.61 748.271 545.389 747.881 545.103C747.491 544.791 747.166 544.414 746.906 543.972C746.672 543.53 746.555 543.036 746.555 542.49ZM805.985 527.046V546H796.664V540.111H787.031V546H777.71V527.046C777.71 526.5 777.827 526.006 778.061 525.564C778.321 525.122 778.646 524.758 779.036 524.472C779.426 524.16 779.868 523.926 780.362 523.77C780.856 523.614 781.337 523.536 781.805 523.536H801.89C802.358 523.536 802.839 523.614 803.333 523.77C803.827 523.926 804.269 524.16 804.659 524.472C805.049 524.758 805.361 525.122 805.595 525.564C805.855 526.006 805.985 526.5 805.985 527.046ZM796.664 530.01H787.031V537.186C787.863 535.86 788.916 534.95 790.19 534.456C791.464 533.936 792.816 533.676 794.246 533.676H796.664V530.01ZM827.662 539.565L830.938 546H812.53C811.568 546 810.71 545.727 809.956 545.181C809.228 544.609 808.864 543.764 808.864 542.646V523.536H818.185V539.565H827.662ZM861.704 527.046V546H852.383V540.111H842.75V546H833.429V527.046C833.429 526.5 833.546 526.006 833.78 525.564C834.04 525.122 834.365 524.758 834.755 524.472C835.145 524.16 835.587 523.926 836.081 523.77C836.575 523.614 837.056 523.536 837.524 523.536H857.609C858.077 523.536 858.558 523.614 859.052 523.77C859.546 523.926 859.988 524.16 860.378 524.472C860.768 524.758 861.08 525.122 861.314 525.564C861.574 526.006 861.704 526.5 861.704 527.046ZM852.383 530.01H842.75V537.186C843.582 535.86 844.635 534.95 845.909 534.456C847.183 533.936 848.535 533.676 849.965 533.676H852.383V530.01ZM881.51 523.536H891.689L882.992 534.768L891.689 546H881.51L877.844 541.359L874.178 546H863.999L872.657 534.768L863.999 523.536H874.178L877.844 528.216L881.51 523.536ZM903.307 546H893.986V523.536H903.307V546ZM906.212 546V523.536H931.562V530.01H915.533V531.726H928.598L925.673 537.888H915.533V539.526H931.562V546H906.212ZM943.754 529.971V534.378C944.17 533.728 944.651 533.208 945.197 532.818C945.743 532.428 946.328 532.142 946.952 531.96C947.576 531.778 948.226 531.661 948.902 531.609C949.604 531.557 950.319 531.531 951.047 531.531H955.844C956.312 531.531 956.793 531.609 957.287 531.765C957.781 531.921 958.223 532.155 958.613 532.467C959.003 532.753 959.315 533.117 959.549 533.559C959.809 534.001 959.939 534.495 959.939 535.041V542.49C959.939 543.036 959.822 543.53 959.588 543.972C959.354 544.414 959.055 544.791 958.691 545.103C958.327 545.389 957.898 545.61 957.404 545.766C956.936 545.922 956.468 546 956 546H934.433V539.565H950.618V537.966H938.528C938.06 537.966 937.579 537.888 937.085 537.732C936.591 537.576 936.149 537.355 935.759 537.069C935.369 536.757 935.044 536.38 934.784 535.938C934.55 535.496 934.433 535.002 934.433 534.456V527.046C934.433 526.5 934.55 526.006 934.784 525.564C935.018 525.122 935.317 524.758 935.681 524.472C936.045 524.16 936.461 523.926 936.929 523.77C937.423 523.614 937.904 523.536 938.372 523.536H959.939V529.971H943.754ZM964.289 546C963.821 546 963.457 545.818 963.197 545.454C962.937 545.09 962.807 544.791 962.807 544.557V540.228C962.807 539.916 962.976 539.63 963.314 539.37C963.652 539.11 963.977 538.98 964.289 538.98H970.568C970.88 539.032 971.179 539.188 971.465 539.448C971.751 539.682 971.894 539.942 971.894 540.228V544.479C971.894 544.869 971.764 545.22 971.504 545.532C971.244 545.844 970.932 546 970.568 546H964.289ZM976.248 546C975.78 546 975.416 545.818 975.156 545.454C974.896 545.09 974.766 544.791 974.766 544.557V540.228C974.766 539.916 974.935 539.63 975.273 539.37C975.611 539.11 975.936 538.98 976.248 538.98H982.527C982.839 539.032 983.138 539.188 983.424 539.448C983.71 539.682 983.853 539.942 983.853 540.228V544.479C983.853 544.869 983.723 545.22 983.463 545.532C983.203 545.844 982.891 546 982.527 546H976.248ZM988.207 546C987.739 546 987.375 545.818 987.115 545.454C986.855 545.09 986.725 544.791 986.725 544.557V540.228C986.725 539.916 986.894 539.63 987.232 539.37C987.57 539.11 987.895 538.98 988.207 538.98H994.486C994.798 539.032 995.097 539.188 995.383 539.448C995.669 539.682 995.812 539.942 995.812 540.228V544.479C995.812 544.869 995.682 545.22 995.422 545.532C995.162 545.844 994.85 546 994.486 546H988.207Z" fill="black"/>
<path d="M1121 49L1161.41 48.5556L1140.82 13.7799L1121 49ZM1195.22 0.988336L1146.32 29.9393L1149.89 35.9627L1198.78 7.01166L1195.22 0.988336Z" fill="white"/>
<defs>
<filter id="filter0_d_17_1172" x="0" y="82" width="1229" height="620" filterUnits="userSpaceOnUse" color-interpolation-filters="sRGB">
<feFlood flood-opacity="0" result="BackgroundImageFix"/>
<feColorMatrix in="SourceAlpha" type="matrix" values="0 0 0 0 0 0 0 0 0 0 0 0 0 0 0 0 0 0 127 0" result="hardAlpha"/>
<feOffset dx="-21" dy="27"/>
<feComposite in2="hardAlpha" operator="out"/>
<feColorMatrix type="matrix" values="0 0 0 0 0 0 0 0 0 0 0 0 0 0 0 0 0 0 1 0"/>
<feBlend mode="normal" in2="BackgroundImageFix" result="effect1_dropShadow_17_1172"/>
<feBlend mode="normal" in="SourceGraphic" in2="effect1_dropShadow_17_1172" result="shape"/>
</filter>
<linearGradient id="paint0_linear_17_1172" x1="226.5" y1="240.5" x2="1106" y2="553" gradientUnits="userSpaceOnUse">
<stop stop-color="#4A9BD8"/>
<stop offset="1" stop-color="#9FD5EF"/>
</linearGradient>
</defs>
</svg>
