<svg width="1229" height="710" viewBox="0 0 1229 710" fill="none" xmlns="http://www.w3.org/2000/svg">
<g filter="url(#filter0_d_17_1178)">
<rect x="21" y="89.7271" width="1208" height="593" fill="black"/>
<rect x="22.5" y="91.2271" width="1205" height="590" stroke="white" stroke-width="3"/>
</g>
<path d="M198.041 226.305H154.121V244.727H124.963V174.455H198.041C199.505 174.455 200.969 174.658 202.433 175.065C203.897 175.472 205.199 176.122 206.337 177.017C207.476 177.83 208.371 178.888 209.021 180.189C209.753 181.49 210.119 182.995 210.119 184.703V216.057C210.119 217.765 209.753 219.27 209.021 220.571C208.371 221.872 207.476 222.97 206.337 223.865C205.199 224.678 203.897 225.288 202.433 225.695C200.969 226.102 199.505 226.305 198.041 226.305ZM180.961 194.707H154.121V217.155C156.724 213.007 160.018 210.16 164.003 208.615C167.989 206.988 172.218 206.175 176.691 206.175H180.961V194.707ZM304.237 244.727H275.079V219.595H248.361V244.727H219.203V174.455H248.361V210.445C250.964 206.297 254.177 203.45 257.999 201.905C261.822 200.278 265.97 199.465 270.443 199.465H275.079V174.455H304.237V244.727ZM410.803 244.727H381.523V226.427H359.197L369.567 206.175H381.523V194.707H368.225L342.483 244.727H311.495L347.119 174.455H400.677C401.653 174.455 402.71 174.74 403.849 175.309C405.069 175.878 406.167 176.61 407.143 177.505C408.2 178.318 409.054 179.254 409.705 180.311C410.437 181.287 410.803 182.263 410.803 183.239V244.727ZM448.994 194.585V208.371C450.296 206.338 451.76 204.711 453.386 203.491C455.094 202.271 456.924 201.376 458.876 200.807C460.828 200.238 462.862 199.872 464.976 199.709C467.172 199.546 469.368 199.465 471.564 199.465H493.402C494.866 199.465 496.371 199.709 497.916 200.197C499.462 200.685 500.844 201.417 502.064 202.393C503.284 203.288 504.26 204.426 504.992 205.809C505.806 207.192 506.212 208.737 506.212 210.445V233.747C506.212 235.455 505.846 237 505.114 238.383C504.382 239.766 503.447 240.945 502.308 241.921C501.17 242.816 499.828 243.507 498.282 243.995C496.818 244.483 495.354 244.727 493.89 244.727H419.836V224.597H477.054V219.595H432.646C431.182 219.595 429.678 219.351 428.132 218.863C426.587 218.375 425.204 217.684 423.984 216.789C422.764 215.813 421.748 214.634 420.934 213.251C420.202 211.868 419.836 210.323 419.836 208.615V185.435C419.836 183.727 420.202 182.182 420.934 180.799C421.666 179.416 422.602 178.278 423.74 177.383C424.879 176.407 426.18 175.675 427.644 175.187C429.19 174.699 430.694 174.455 432.158 174.455H506.212V194.585H448.994ZM515.268 185.435C515.268 183.727 515.634 182.182 516.366 180.799C517.179 179.416 518.196 178.278 519.416 177.383C520.636 176.407 522.019 175.675 523.564 175.187C525.109 174.699 526.614 174.455 528.078 174.455H590.908C592.372 174.455 593.877 174.699 595.422 175.187C596.967 175.675 598.35 176.407 599.57 177.383C600.79 178.278 601.766 179.416 602.498 180.799C603.311 182.182 603.718 183.727 603.718 185.435V219.107H552.966L562.116 199.831H574.56V194.707H544.426V224.475H603.718V244.727H528.078C526.614 244.727 525.109 244.483 523.564 243.995C522.019 243.507 520.636 242.816 519.416 241.921C518.196 240.945 517.179 239.766 516.366 238.383C515.634 237 515.268 235.455 515.268 233.747V185.435ZM704.929 194.585H654.543V174.455H721.765C723.229 174.455 724.693 174.699 726.157 175.187C727.703 175.675 729.045 176.407 730.183 177.383C731.322 178.278 732.257 179.416 732.989 180.799C733.721 182.182 734.087 183.727 734.087 185.435V208.615C734.087 210.323 733.681 211.868 732.867 213.251C732.135 214.634 731.159 215.813 729.939 216.789C728.719 217.684 727.337 218.375 725.791 218.863C724.246 219.351 722.741 219.595 721.277 219.595H683.701V224.597H734.087V244.727H666.865C665.401 244.727 663.897 244.483 662.351 243.995C660.887 243.507 659.586 242.816 658.447 241.921C657.309 240.945 656.373 239.766 655.641 238.383C654.909 237 654.543 235.455 654.543 233.747V210.445C654.543 208.737 654.909 207.192 655.641 205.809C656.455 204.426 657.471 203.288 658.691 202.393C659.911 201.417 661.294 200.685 662.839 200.197C664.385 199.709 665.889 199.465 667.353 199.465H682.359C684.555 199.465 686.711 199.546 688.825 199.709C691.021 199.872 693.095 200.238 695.047 200.807C696.999 201.376 698.789 202.271 700.415 203.491C702.123 204.711 703.628 206.338 704.929 208.371V194.585Z" fill="white"/>
<path d="M121.443 331.217V315.773C121.443 315.227 121.56 314.733 121.794 314.291C122.054 313.849 122.379 313.485 122.769 313.199C123.159 312.887 123.601 312.653 124.095 312.497C124.589 312.341 125.07 312.263 125.538 312.263H144.999C145.467 312.263 145.948 312.341 146.442 312.497C146.936 312.653 147.378 312.887 147.768 313.199C148.158 313.485 148.47 313.849 148.704 314.291C148.964 314.733 149.094 315.227 149.094 315.773V321.701H139.773V318.737H130.764V328.253H139.773V325.25H149.094V331.217C149.094 331.763 148.964 332.257 148.704 332.699C148.47 333.141 148.158 333.518 147.768 333.83C147.378 334.116 146.936 334.337 146.442 334.493C145.948 334.649 145.467 334.727 144.999 334.727H125.538C125.07 334.727 124.589 334.649 124.095 334.493C123.601 334.337 123.159 334.116 122.769 333.83C122.379 333.518 122.054 333.141 121.794 332.699C121.56 332.257 121.443 331.763 121.443 331.217ZM180.263 331.217C180.263 331.763 180.133 332.257 179.873 332.699C179.639 333.141 179.327 333.518 178.937 333.83C178.547 334.116 178.105 334.337 177.611 334.493C177.117 334.649 176.636 334.727 176.168 334.727H156.083C155.615 334.727 155.134 334.649 154.64 334.493C154.146 334.337 153.704 334.116 153.314 333.83C152.924 333.518 152.599 333.141 152.339 332.699C152.105 332.257 151.988 331.763 151.988 331.217V315.773C151.988 315.227 152.105 314.733 152.339 314.291C152.599 313.849 152.924 313.485 153.314 313.199C153.704 312.887 154.146 312.653 154.64 312.497C155.134 312.341 155.615 312.263 156.083 312.263H176.168C176.636 312.263 177.117 312.341 177.611 312.497C178.105 312.653 178.547 312.887 178.937 313.199C179.327 313.485 179.639 313.849 179.873 314.291C180.133 314.733 180.263 315.227 180.263 315.773V331.217ZM170.942 318.737H161.309V328.214H170.942V318.737ZM183.142 312.263H193.789L200.107 323.963L206.542 312.263H217.189V334.727H207.79V327.044L203.266 334.727H196.948L192.541 327.044V334.727H183.142V312.263ZM228.988 334.727H219.667V312.263H228.988V334.727ZM231.892 312.263H240.004L250.261 321.974V312.263H259.582V334.727H251.47L241.213 325.016V334.727H231.892V312.263ZM262.475 331.217V315.773C262.475 315.227 262.592 314.733 262.826 314.291C263.086 313.849 263.411 313.485 263.801 313.199C264.191 312.887 264.633 312.653 265.127 312.497C265.621 312.341 266.102 312.263 266.57 312.263H290.75V318.737H271.796V328.253H281.429V326.576H279.362L276.437 320.453H290.75V331.217C290.75 331.763 290.62 332.257 290.36 332.699C290.126 333.141 289.814 333.518 289.424 333.83C289.034 334.116 288.592 334.337 288.098 334.493C287.604 334.649 287.123 334.727 286.655 334.727H266.57C266.102 334.727 265.621 334.649 265.127 334.493C264.633 334.337 264.191 334.116 263.801 333.83C263.411 333.518 263.086 333.141 262.826 332.699C262.592 332.257 262.475 331.763 262.475 331.217ZM316.319 318.698V323.105C316.735 322.455 317.203 321.935 317.723 321.545C318.269 321.155 318.854 320.869 319.478 320.687C320.102 320.505 320.752 320.388 321.428 320.336C322.13 320.284 322.832 320.258 323.534 320.258H330.515C330.983 320.258 331.464 320.336 331.958 320.492C332.452 320.648 332.894 320.882 333.284 321.194C333.674 321.48 333.986 321.844 334.22 322.286C334.48 322.728 334.61 323.222 334.61 323.768V331.217C334.61 331.763 334.493 332.257 334.259 332.699C334.025 333.141 333.726 333.518 333.362 333.83C332.998 334.116 332.569 334.337 332.075 334.493C331.607 334.649 331.139 334.727 330.671 334.727H306.998V328.292H325.289V326.693H311.093C310.625 326.693 310.144 326.615 309.65 326.459C309.156 326.303 308.714 326.082 308.324 325.796C307.934 325.484 307.609 325.107 307.349 324.665C307.115 324.223 306.998 323.729 306.998 323.183V315.773C306.998 315.227 307.115 314.733 307.349 314.291C307.583 313.849 307.882 313.485 308.246 313.199C308.61 312.887 309.026 312.653 309.494 312.497C309.988 312.341 310.469 312.263 310.937 312.263H334.61V318.698H316.319ZM365.78 331.217C365.78 331.763 365.65 332.257 365.39 332.699C365.156 333.141 364.844 333.518 364.454 333.83C364.064 334.116 363.622 334.337 363.128 334.493C362.634 334.649 362.153 334.727 361.685 334.727H341.6C341.132 334.727 340.651 334.649 340.157 334.493C339.663 334.337 339.221 334.116 338.831 333.83C338.441 333.518 338.116 333.141 337.856 332.699C337.622 332.257 337.505 331.763 337.505 331.217V315.773C337.505 315.227 337.622 314.733 337.856 314.291C338.116 313.849 338.441 313.485 338.831 313.199C339.221 312.887 339.663 312.653 340.157 312.497C340.651 312.341 341.132 312.263 341.6 312.263H361.685C362.153 312.263 362.634 312.341 363.128 312.497C363.622 312.653 364.064 312.887 364.454 313.199C364.844 313.485 365.156 313.849 365.39 314.291C365.65 314.733 365.78 315.227 365.78 315.773V331.217ZM356.459 318.737H346.826V328.214H356.459V318.737ZM396.934 331.217C396.934 331.763 396.804 332.257 396.544 332.699C396.31 333.141 395.998 333.518 395.608 333.83C395.218 334.116 394.776 334.337 394.282 334.493C393.788 334.649 393.307 334.727 392.839 334.727H372.754C372.286 334.727 371.805 334.649 371.311 334.493C370.817 334.337 370.375 334.116 369.985 333.83C369.595 333.518 369.27 333.141 369.01 332.699C368.776 332.257 368.659 331.763 368.659 331.217V315.773C368.659 315.227 368.776 314.733 369.01 314.291C369.27 313.849 369.595 313.485 369.985 313.199C370.375 312.887 370.817 312.653 371.311 312.497C371.805 312.341 372.286 312.263 372.754 312.263H392.839C393.307 312.263 393.788 312.341 394.282 312.497C394.776 312.653 395.218 312.887 395.608 313.199C395.998 313.485 396.31 313.849 396.544 314.291C396.804 314.733 396.934 315.227 396.934 315.773V331.217ZM387.613 318.737H377.98V328.214H387.613V318.737ZM428.088 331.217C428.088 331.763 427.958 332.257 427.698 332.699C427.464 333.141 427.152 333.518 426.762 333.83C426.372 334.116 425.93 334.337 425.436 334.493C424.942 334.649 424.461 334.727 423.993 334.727H403.908C403.44 334.727 402.959 334.649 402.465 334.493C401.971 334.337 401.529 334.116 401.139 333.83C400.749 333.518 400.424 333.141 400.164 332.699C399.93 332.257 399.813 331.763 399.813 331.217V315.773C399.813 315.227 399.93 314.733 400.164 314.291C400.424 313.849 400.749 313.485 401.139 313.199C401.529 312.887 401.971 312.653 402.465 312.497C402.959 312.341 403.44 312.263 403.908 312.263H423.993C424.461 312.263 424.942 312.341 425.436 312.497C425.93 312.653 426.372 312.887 426.762 313.199C427.152 313.485 427.464 313.849 427.698 314.291C427.958 314.733 428.088 315.227 428.088 315.773V331.217ZM418.767 318.737H409.134V328.214H418.767V318.737ZM430.967 312.263H439.079L449.336 321.974V312.263H458.657V334.727H450.545L440.288 325.016V334.727H430.967V312.263ZM463.032 334.727C462.564 334.727 462.2 334.545 461.94 334.181C461.68 333.817 461.55 333.518 461.55 333.284V328.955C461.55 328.643 461.719 328.357 462.057 328.097C462.395 327.837 462.72 327.707 463.032 327.707H469.311C469.623 327.759 469.922 327.915 470.208 328.175C470.494 328.409 470.637 328.669 470.637 328.955V333.206C470.637 333.596 470.507 333.947 470.247 334.259C469.987 334.571 469.675 334.727 469.311 334.727H463.032ZM474.991 334.727C474.523 334.727 474.159 334.545 473.899 334.181C473.639 333.817 473.509 333.518 473.509 333.284V328.955C473.509 328.643 473.678 328.357 474.016 328.097C474.354 327.837 474.679 327.707 474.991 327.707H481.27C481.582 327.759 481.881 327.915 482.167 328.175C482.453 328.409 482.596 328.669 482.596 328.955V333.206C482.596 333.596 482.466 333.947 482.206 334.259C481.946 334.571 481.634 334.727 481.27 334.727H474.991ZM486.95 334.727C486.482 334.727 486.118 334.545 485.858 334.181C485.598 333.817 485.468 333.518 485.468 333.284V328.955C485.468 328.643 485.637 328.357 485.975 328.097C486.313 327.837 486.638 327.707 486.95 327.707H493.229C493.541 327.759 493.84 327.915 494.126 328.175C494.412 328.409 494.555 328.669 494.555 328.955V333.206C494.555 333.596 494.425 333.947 494.165 334.259C493.905 334.571 493.593 334.727 493.229 334.727H486.95ZM531.934 328.292L535.21 334.727H514.462C513.5 334.727 512.642 334.454 511.888 333.908C511.16 333.336 510.796 332.491 510.796 331.373V312.263H520.117V328.292H531.934ZM537.722 334.727V312.263H563.072V318.737H547.043V320.453H560.108L557.183 326.615H547.043V334.727H537.722ZM565.944 334.727V312.263H591.294V318.737H575.265V320.453H588.33L585.405 326.615H575.265V334.727H565.944ZM594.166 334.727V312.263H619.516V318.737H603.487V320.453H616.552L613.627 326.615H603.487V334.727H594.166ZM622.387 334.727V312.263H647.737V318.737H631.708V320.453H644.773L641.848 326.615H631.708V334.727H622.387ZM650.609 334.727V312.263H675.959V318.737H659.93V320.453H672.995L670.07 326.615H659.93V334.727H650.609ZM678.831 334.727V312.263H704.181V318.737H688.152V320.453H701.217L698.292 326.615H688.152V334.727H678.831ZM716.373 318.737V328.292H726.006V320.999H735.327V334.727H711.147C710.679 334.727 710.198 334.649 709.704 334.493C709.21 334.337 708.768 334.116 708.378 333.83C707.988 333.518 707.663 333.141 707.403 332.699C707.169 332.257 707.052 331.763 707.052 331.217V315.773C707.052 315.227 707.169 314.733 707.403 314.291C707.663 313.849 707.988 313.485 708.378 313.199C708.768 312.887 709.21 312.653 709.704 312.497C710.198 312.341 710.679 312.263 711.147 312.263H735.327V318.737H716.373ZM747.528 318.737V328.292H757.161V320.999H766.482V334.727H742.302C741.834 334.727 741.353 334.649 740.859 334.493C740.365 334.337 739.923 334.116 739.533 333.83C739.143 333.518 738.818 333.141 738.558 332.699C738.324 332.257 738.207 331.763 738.207 331.217V315.773C738.207 315.227 738.324 314.733 738.558 314.291C738.818 313.849 739.143 313.485 739.533 313.199C739.923 312.887 740.365 312.653 740.859 312.497C741.353 312.341 741.834 312.263 742.302 312.263H766.482V318.737H747.528ZM778.682 318.737V328.292H788.315V320.999H797.636V334.727H773.456C772.988 334.727 772.507 334.649 772.013 334.493C771.519 334.337 771.077 334.116 770.687 333.83C770.297 333.518 769.972 333.141 769.712 332.699C769.478 332.257 769.361 331.763 769.361 331.217V315.773C769.361 315.227 769.478 314.733 769.712 314.291C769.972 313.849 770.297 313.485 770.687 313.199C771.077 312.887 771.519 312.653 772.013 312.497C772.507 312.341 772.988 312.263 773.456 312.263H797.636V318.737H778.682ZM809.836 318.737V328.292H819.469V320.999H828.79V334.727H804.61C804.142 334.727 803.661 334.649 803.167 334.493C802.673 334.337 802.231 334.116 801.841 333.83C801.451 333.518 801.126 333.141 800.866 332.699C800.632 332.257 800.515 331.763 800.515 331.217V315.773C800.515 315.227 800.632 314.733 800.866 314.291C801.126 313.849 801.451 313.485 801.841 313.199C802.231 312.887 802.673 312.653 803.167 312.497C803.661 312.341 804.142 312.263 804.61 312.263H828.79V318.737H809.836ZM840.991 318.737V328.292H850.624V320.999H859.945V334.727H835.765C835.297 334.727 834.816 334.649 834.322 334.493C833.828 334.337 833.386 334.116 832.996 333.83C832.606 333.518 832.281 333.141 832.021 332.699C831.787 332.257 831.67 331.763 831.67 331.217V315.773C831.67 315.227 831.787 314.733 832.021 314.291C832.281 313.849 832.606 313.485 832.996 313.199C833.386 312.887 833.828 312.653 834.322 312.497C834.816 312.341 835.297 312.263 835.765 312.263H859.945V318.737H840.991ZM872.145 318.737V328.292H881.778V320.999H891.099V334.727H866.919C866.451 334.727 865.97 334.649 865.476 334.493C864.982 334.337 864.54 334.116 864.15 333.83C863.76 333.518 863.435 333.141 863.175 332.699C862.941 332.257 862.824 331.763 862.824 331.217V315.773C862.824 315.227 862.941 314.733 863.175 314.291C863.435 313.849 863.76 313.485 864.15 313.199C864.54 312.887 864.982 312.653 865.476 312.497C865.97 312.341 866.451 312.263 866.919 312.263H891.099V318.737H872.145ZM903.299 318.737V328.292H912.932V320.999H922.253V334.727H898.073C897.605 334.727 897.124 334.649 896.63 334.493C896.136 334.337 895.694 334.116 895.304 333.83C894.914 333.518 894.589 333.141 894.329 332.699C894.095 332.257 893.978 331.763 893.978 331.217V315.773C893.978 315.227 894.095 314.733 894.329 314.291C894.589 313.849 894.914 313.485 895.304 313.199C895.694 312.887 896.136 312.653 896.63 312.497C897.124 312.341 897.605 312.263 898.073 312.263H922.253V318.737H903.299ZM926.731 334.727C926.263 334.727 925.899 334.545 925.639 334.181C925.379 333.817 925.249 333.518 925.249 333.284V329.462C925.249 329.15 925.418 328.864 925.756 328.604C926.094 328.344 926.419 328.214 926.731 328.214H933.01C933.322 328.266 933.621 328.422 933.907 328.682C934.193 328.916 934.336 329.176 934.336 329.462V333.206C934.336 333.596 934.206 333.947 933.946 334.259C933.686 334.571 933.374 334.727 933.01 334.727H926.731ZM934.453 326.615H925.132V312.263H934.453V326.615ZM938.957 334.727C938.489 334.727 938.125 334.545 937.865 334.181C937.605 333.817 937.475 333.518 937.475 333.284V329.462C937.475 329.15 937.644 328.864 937.982 328.604C938.32 328.344 938.645 328.214 938.957 328.214H945.236C945.548 328.266 945.847 328.422 946.133 328.682C946.419 328.916 946.562 329.176 946.562 329.462V333.206C946.562 333.596 946.432 333.947 946.172 334.259C945.912 334.571 945.6 334.727 945.236 334.727H938.957ZM946.679 326.615H937.358V312.263H946.679V326.615ZM951.183 334.727C950.715 334.727 950.351 334.545 950.091 334.181C949.831 333.817 949.701 333.518 949.701 333.284V329.462C949.701 329.15 949.87 328.864 950.208 328.604C950.546 328.344 950.871 328.214 951.183 328.214H957.462C957.774 328.266 958.073 328.422 958.359 328.682C958.645 328.916 958.788 329.176 958.788 329.462V333.206C958.788 333.596 958.658 333.947 958.398 334.259C958.138 334.571 957.826 334.727 957.462 334.727H951.183ZM958.905 326.615H949.584V312.263H958.905V326.615ZM963.408 334.727C962.94 334.727 962.576 334.545 962.316 334.181C962.056 333.817 961.926 333.518 961.926 333.284V329.462C961.926 329.15 962.095 328.864 962.433 328.604C962.771 328.344 963.096 328.214 963.408 328.214H969.687C969.999 328.266 970.298 328.422 970.584 328.682C970.87 328.916 971.013 329.176 971.013 329.462V333.206C971.013 333.596 970.883 333.947 970.623 334.259C970.363 334.571 970.051 334.727 969.687 334.727H963.408ZM971.13 326.615H961.809V312.263H971.13V326.615ZM975.634 334.727C975.166 334.727 974.802 334.545 974.542 334.181C974.282 333.817 974.152 333.518 974.152 333.284V329.462C974.152 329.15 974.321 328.864 974.659 328.604C974.997 328.344 975.322 328.214 975.634 328.214H981.913C982.225 328.266 982.524 328.422 982.81 328.682C983.096 328.916 983.239 329.176 983.239 329.462V333.206C983.239 333.596 983.109 333.947 982.849 334.259C982.589 334.571 982.277 334.727 981.913 334.727H975.634ZM983.356 326.615H974.035V312.263H983.356V326.615Z" fill="white"/>
<path d="M366.227 65.454L355.767 26.4166L327.19 54.9939L366.227 65.454ZM301.298 5.47487L341.478 45.655L346.428 40.7052L306.248 0.525126L301.298 5.47487Z" fill="white"/>
<defs>
<filter id="filter0_d_17_1178" x="0" y="89.7271" width="1229" height="620" filterUnits="userSpaceOnUse" color-interpolation-filters="sRGB">
<feFlood flood-opacity="0" result="BackgroundImageFix"/>
<feColorMatrix in="SourceAlpha" type="matrix" values="0 0 0 0 0 0 0 0 0 0 0 0 0 0 0 0 0 0 127 0" result="hardAlpha"/>
<feOffset dx="-21" dy="27"/>
<feComposite in2="hardAlpha" operator="out"/>
<feColorMatrix type="matrix" values="0 0 0 0 0 0 0 0 0 0 0 0 0 0 0 0 0 0 1 0"/>
<feBlend mode="normal" in2="BackgroundImageFix" result="effect1_dropShadow_17_1178"/>
<feBlend mode="normal" in="SourceGraphic" in2="effect1_dropShadow_17_1178" result="shape"/>
</filter>
</defs>
</svg>
