<svg width="1229" height="728" viewBox="0 0 1229 728" fill="none" xmlns="http://www.w3.org/2000/svg">
<g filter="url(#filter0_d_17_1184)">
<rect x="21" y="107.935" width="1208" height="593" fill="white"/>
<rect x="22.5" y="109.435" width="1205" height="590" stroke="black" stroke-width="3"/>
</g>
<path d="M197.613 244.513H153.693V262.935H124.535V192.663H197.613C199.077 192.663 200.541 192.866 202.005 193.273C203.469 193.679 204.771 194.33 205.909 195.225C207.048 196.038 207.943 197.095 208.593 198.397C209.325 199.698 209.691 201.203 209.691 202.911V234.265C209.691 235.973 209.325 237.477 208.593 238.779C207.943 240.08 207.048 241.178 205.909 242.073C204.771 242.886 203.469 243.496 202.005 243.903C200.541 244.309 199.077 244.513 197.613 244.513ZM180.533 212.915H153.693V235.363C156.296 231.215 159.59 228.368 163.575 226.823C167.561 225.196 171.79 224.383 176.263 224.383H180.533V212.915ZM303.81 262.935H274.652V237.803H247.934V262.935H218.776V192.663H247.934V228.653C250.536 224.505 253.749 221.658 257.572 220.113C261.394 218.486 265.542 217.673 270.016 217.673H274.652V192.663H303.81V262.935ZM410.375 262.935H381.095V244.635H358.769L369.139 224.383H381.095V212.915H367.797L342.055 262.935H311.067L346.691 192.663H400.249C401.225 192.663 402.282 192.947 403.421 193.517C404.641 194.086 405.739 194.818 406.715 195.713C407.772 196.526 408.626 197.461 409.277 198.519C410.009 199.495 410.375 200.471 410.375 201.447V262.935ZM448.567 212.793V226.579C449.868 224.545 451.332 222.919 452.959 221.699C454.667 220.479 456.497 219.584 458.449 219.015C460.401 218.445 462.434 218.079 464.549 217.917C466.745 217.754 468.941 217.673 471.137 217.673H492.975C494.439 217.673 495.943 217.917 497.489 218.405C499.034 218.893 500.417 219.625 501.637 220.601C502.857 221.495 503.833 222.634 504.565 224.017C505.378 225.399 505.785 226.945 505.785 228.653V251.955C505.785 253.663 505.419 255.208 504.687 256.591C503.955 257.973 503.019 259.153 501.881 260.129C500.742 261.023 499.4 261.715 497.855 262.203C496.391 262.691 494.927 262.935 493.463 262.935H419.409V242.805H476.627V237.803H432.219C430.755 237.803 429.25 237.559 427.705 237.071C426.159 236.583 424.777 235.891 423.557 234.997C422.337 234.021 421.32 232.841 420.507 231.459C419.775 230.076 419.409 228.531 419.409 226.823V203.643C419.409 201.935 419.775 200.389 420.507 199.007C421.239 197.624 422.174 196.485 423.313 195.591C424.451 194.615 425.753 193.883 427.217 193.395C428.762 192.907 430.267 192.663 431.731 192.663H505.785V212.793H448.567ZM514.84 203.643C514.84 201.935 515.206 200.389 515.938 199.007C516.752 197.624 517.768 196.485 518.988 195.591C520.208 194.615 521.591 193.883 523.136 193.395C524.682 192.907 526.186 192.663 527.65 192.663H590.48C591.944 192.663 593.449 192.907 594.994 193.395C596.54 193.883 597.922 194.615 599.142 195.591C600.362 196.485 601.338 197.624 602.07 199.007C602.884 200.389 603.29 201.935 603.29 203.643V237.315H552.538L561.688 218.039H574.132V212.915H543.998V242.683H603.29V262.935H527.65C526.186 262.935 524.682 262.691 523.136 262.203C521.591 261.715 520.208 261.023 518.988 260.129C517.768 259.153 516.752 257.973 515.938 256.591C515.206 255.208 514.84 253.663 514.84 251.955V203.643ZM662.534 242.805H702.306V237.559H663.998V218.283H702.306V212.793H662.534L652.286 192.663H720.728C723.737 192.663 726.258 193.435 728.292 194.981C730.406 196.526 731.464 199.047 731.464 202.545V253.053C731.464 256.55 730.406 259.071 728.292 260.617C726.258 262.162 723.737 262.935 720.728 262.935H652.286L662.534 242.805Z" fill="black"/>
<path d="M121.443 349.425V333.981C121.443 333.435 121.56 332.941 121.794 332.499C122.054 332.057 122.379 331.693 122.769 331.407C123.159 331.095 123.601 330.861 124.095 330.705C124.589 330.549 125.07 330.471 125.538 330.471H144.999C145.467 330.471 145.948 330.549 146.442 330.705C146.936 330.861 147.378 331.095 147.768 331.407C148.158 331.693 148.47 332.057 148.704 332.499C148.964 332.941 149.094 333.435 149.094 333.981V339.909H139.773V336.945H130.764V346.461H139.773V343.458H149.094V349.425C149.094 349.971 148.964 350.465 148.704 350.907C148.47 351.349 148.158 351.726 147.768 352.038C147.378 352.324 146.936 352.545 146.442 352.701C145.948 352.857 145.467 352.935 144.999 352.935H125.538C125.07 352.935 124.589 352.857 124.095 352.701C123.601 352.545 123.159 352.324 122.769 352.038C122.379 351.726 122.054 351.349 121.794 350.907C121.56 350.465 121.443 349.971 121.443 349.425ZM180.263 349.425C180.263 349.971 180.133 350.465 179.873 350.907C179.639 351.349 179.327 351.726 178.937 352.038C178.547 352.324 178.105 352.545 177.611 352.701C177.117 352.857 176.636 352.935 176.168 352.935H156.083C155.615 352.935 155.134 352.857 154.64 352.701C154.146 352.545 153.704 352.324 153.314 352.038C152.924 351.726 152.599 351.349 152.339 350.907C152.105 350.465 151.988 349.971 151.988 349.425V333.981C151.988 333.435 152.105 332.941 152.339 332.499C152.599 332.057 152.924 331.693 153.314 331.407C153.704 331.095 154.146 330.861 154.64 330.705C155.134 330.549 155.615 330.471 156.083 330.471H176.168C176.636 330.471 177.117 330.549 177.611 330.705C178.105 330.861 178.547 331.095 178.937 331.407C179.327 331.693 179.639 332.057 179.873 332.499C180.133 332.941 180.263 333.435 180.263 333.981V349.425ZM170.942 336.945H161.309V346.422H170.942V336.945ZM183.142 330.471H193.789L200.107 342.171L206.542 330.471H217.189V352.935H207.79V345.252L203.266 352.935H196.948L192.541 345.252V352.935H183.142V330.471ZM228.988 352.935H219.667V330.471H228.988V352.935ZM231.892 330.471H240.004L250.261 340.182V330.471H259.582V352.935H251.47L241.213 343.224V352.935H231.892V330.471ZM262.475 349.425V333.981C262.475 333.435 262.592 332.941 262.826 332.499C263.086 332.057 263.411 331.693 263.801 331.407C264.191 331.095 264.633 330.861 265.127 330.705C265.621 330.549 266.102 330.471 266.57 330.471H290.75V336.945H271.796V346.461H281.429V344.784H279.362L276.437 338.661H290.75V349.425C290.75 349.971 290.62 350.465 290.36 350.907C290.126 351.349 289.814 351.726 289.424 352.038C289.034 352.324 288.592 352.545 288.098 352.701C287.604 352.857 287.123 352.935 286.655 352.935H266.57C266.102 352.935 265.621 352.857 265.127 352.701C264.633 352.545 264.191 352.324 263.801 352.038C263.411 351.726 263.086 351.349 262.826 350.907C262.592 350.465 262.475 349.971 262.475 349.425ZM316.319 336.906V341.313C316.735 340.663 317.203 340.143 317.723 339.753C318.269 339.363 318.854 339.077 319.478 338.895C320.102 338.713 320.752 338.596 321.428 338.544C322.13 338.492 322.832 338.466 323.534 338.466H330.515C330.983 338.466 331.464 338.544 331.958 338.7C332.452 338.856 332.894 339.09 333.284 339.402C333.674 339.688 333.986 340.052 334.22 340.494C334.48 340.936 334.61 341.43 334.61 341.976V349.425C334.61 349.971 334.493 350.465 334.259 350.907C334.025 351.349 333.726 351.726 333.362 352.038C332.998 352.324 332.569 352.545 332.075 352.701C331.607 352.857 331.139 352.935 330.671 352.935H306.998V346.5H325.289V344.901H311.093C310.625 344.901 310.144 344.823 309.65 344.667C309.156 344.511 308.714 344.29 308.324 344.004C307.934 343.692 307.609 343.315 307.349 342.873C307.115 342.431 306.998 341.937 306.998 341.391V333.981C306.998 333.435 307.115 332.941 307.349 332.499C307.583 332.057 307.882 331.693 308.246 331.407C308.61 331.095 309.026 330.861 309.494 330.705C309.988 330.549 310.469 330.471 310.937 330.471H334.61V336.906H316.319ZM365.78 349.425C365.78 349.971 365.65 350.465 365.39 350.907C365.156 351.349 364.844 351.726 364.454 352.038C364.064 352.324 363.622 352.545 363.128 352.701C362.634 352.857 362.153 352.935 361.685 352.935H341.6C341.132 352.935 340.651 352.857 340.157 352.701C339.663 352.545 339.221 352.324 338.831 352.038C338.441 351.726 338.116 351.349 337.856 350.907C337.622 350.465 337.505 349.971 337.505 349.425V333.981C337.505 333.435 337.622 332.941 337.856 332.499C338.116 332.057 338.441 331.693 338.831 331.407C339.221 331.095 339.663 330.861 340.157 330.705C340.651 330.549 341.132 330.471 341.6 330.471H361.685C362.153 330.471 362.634 330.549 363.128 330.705C363.622 330.861 364.064 331.095 364.454 331.407C364.844 331.693 365.156 332.057 365.39 332.499C365.65 332.941 365.78 333.435 365.78 333.981V349.425ZM356.459 336.945H346.826V346.422H356.459V336.945ZM396.934 349.425C396.934 349.971 396.804 350.465 396.544 350.907C396.31 351.349 395.998 351.726 395.608 352.038C395.218 352.324 394.776 352.545 394.282 352.701C393.788 352.857 393.307 352.935 392.839 352.935H372.754C372.286 352.935 371.805 352.857 371.311 352.701C370.817 352.545 370.375 352.324 369.985 352.038C369.595 351.726 369.27 351.349 369.01 350.907C368.776 350.465 368.659 349.971 368.659 349.425V333.981C368.659 333.435 368.776 332.941 369.01 332.499C369.27 332.057 369.595 331.693 369.985 331.407C370.375 331.095 370.817 330.861 371.311 330.705C371.805 330.549 372.286 330.471 372.754 330.471H392.839C393.307 330.471 393.788 330.549 394.282 330.705C394.776 330.861 395.218 331.095 395.608 331.407C395.998 331.693 396.31 332.057 396.544 332.499C396.804 332.941 396.934 333.435 396.934 333.981V349.425ZM387.613 336.945H377.98V346.422H387.613V336.945ZM428.088 349.425C428.088 349.971 427.958 350.465 427.698 350.907C427.464 351.349 427.152 351.726 426.762 352.038C426.372 352.324 425.93 352.545 425.436 352.701C424.942 352.857 424.461 352.935 423.993 352.935H403.908C403.44 352.935 402.959 352.857 402.465 352.701C401.971 352.545 401.529 352.324 401.139 352.038C400.749 351.726 400.424 351.349 400.164 350.907C399.93 350.465 399.813 349.971 399.813 349.425V333.981C399.813 333.435 399.93 332.941 400.164 332.499C400.424 332.057 400.749 331.693 401.139 331.407C401.529 331.095 401.971 330.861 402.465 330.705C402.959 330.549 403.44 330.471 403.908 330.471H423.993C424.461 330.471 424.942 330.549 425.436 330.705C425.93 330.861 426.372 331.095 426.762 331.407C427.152 331.693 427.464 332.057 427.698 332.499C427.958 332.941 428.088 333.435 428.088 333.981V349.425ZM418.767 336.945H409.134V346.422H418.767V336.945ZM430.967 330.471H439.079L449.336 340.182V330.471H458.657V352.935H450.545L440.288 343.224V352.935H430.967V330.471ZM463.032 352.935C462.564 352.935 462.2 352.753 461.94 352.389C461.68 352.025 461.55 351.726 461.55 351.492V347.163C461.55 346.851 461.719 346.565 462.057 346.305C462.395 346.045 462.72 345.915 463.032 345.915H469.311C469.623 345.967 469.922 346.123 470.208 346.383C470.494 346.617 470.637 346.877 470.637 347.163V351.414C470.637 351.804 470.507 352.155 470.247 352.467C469.987 352.779 469.675 352.935 469.311 352.935H463.032ZM474.991 352.935C474.523 352.935 474.159 352.753 473.899 352.389C473.639 352.025 473.509 351.726 473.509 351.492V347.163C473.509 346.851 473.678 346.565 474.016 346.305C474.354 346.045 474.679 345.915 474.991 345.915H481.27C481.582 345.967 481.881 346.123 482.167 346.383C482.453 346.617 482.596 346.877 482.596 347.163V351.414C482.596 351.804 482.466 352.155 482.206 352.467C481.946 352.779 481.634 352.935 481.27 352.935H474.991ZM486.95 352.935C486.482 352.935 486.118 352.753 485.858 352.389C485.598 352.025 485.468 351.726 485.468 351.492V347.163C485.468 346.851 485.637 346.565 485.975 346.305C486.313 346.045 486.638 345.915 486.95 345.915H493.229C493.541 345.967 493.84 346.123 494.126 346.383C494.412 346.617 494.555 346.877 494.555 347.163V351.414C494.555 351.804 494.425 352.155 494.165 352.467C493.905 352.779 493.593 352.935 493.229 352.935H486.95ZM531.934 346.5L535.21 352.935H514.462C513.5 352.935 512.642 352.662 511.888 352.116C511.16 351.544 510.796 350.699 510.796 349.581V330.471H520.117V346.5H531.934ZM537.722 352.935V330.471H563.072V336.945H547.043V338.661H560.108L557.183 344.823H547.043V352.935H537.722ZM565.944 352.935V330.471H591.294V336.945H575.265V338.661H588.33L585.405 344.823H575.265V352.935H565.944ZM594.166 352.935V330.471H619.516V336.945H603.487V338.661H616.552L613.627 344.823H603.487V352.935H594.166ZM622.387 352.935V330.471H647.737V336.945H631.708V338.661H644.773L641.848 344.823H631.708V352.935H622.387ZM650.609 352.935V330.471H675.959V336.945H659.93V338.661H672.995L670.07 344.823H659.93V352.935H650.609ZM678.831 352.935V330.471H704.181V336.945H688.152V338.661H701.217L698.292 344.823H688.152V352.935H678.831ZM716.373 336.945V346.5H726.006V339.207H735.327V352.935H711.147C710.679 352.935 710.198 352.857 709.704 352.701C709.21 352.545 708.768 352.324 708.378 352.038C707.988 351.726 707.663 351.349 707.403 350.907C707.169 350.465 707.052 349.971 707.052 349.425V333.981C707.052 333.435 707.169 332.941 707.403 332.499C707.663 332.057 707.988 331.693 708.378 331.407C708.768 331.095 709.21 330.861 709.704 330.705C710.198 330.549 710.679 330.471 711.147 330.471H735.327V336.945H716.373ZM747.528 336.945V346.5H757.161V339.207H766.482V352.935H742.302C741.834 352.935 741.353 352.857 740.859 352.701C740.365 352.545 739.923 352.324 739.533 352.038C739.143 351.726 738.818 351.349 738.558 350.907C738.324 350.465 738.207 349.971 738.207 349.425V333.981C738.207 333.435 738.324 332.941 738.558 332.499C738.818 332.057 739.143 331.693 739.533 331.407C739.923 331.095 740.365 330.861 740.859 330.705C741.353 330.549 741.834 330.471 742.302 330.471H766.482V336.945H747.528ZM778.682 336.945V346.5H788.315V339.207H797.636V352.935H773.456C772.988 352.935 772.507 352.857 772.013 352.701C771.519 352.545 771.077 352.324 770.687 352.038C770.297 351.726 769.972 351.349 769.712 350.907C769.478 350.465 769.361 349.971 769.361 349.425V333.981C769.361 333.435 769.478 332.941 769.712 332.499C769.972 332.057 770.297 331.693 770.687 331.407C771.077 331.095 771.519 330.861 772.013 330.705C772.507 330.549 772.988 330.471 773.456 330.471H797.636V336.945H778.682ZM809.836 336.945V346.5H819.469V339.207H828.79V352.935H804.61C804.142 352.935 803.661 352.857 803.167 352.701C802.673 352.545 802.231 352.324 801.841 352.038C801.451 351.726 801.126 351.349 800.866 350.907C800.632 350.465 800.515 349.971 800.515 349.425V333.981C800.515 333.435 800.632 332.941 800.866 332.499C801.126 332.057 801.451 331.693 801.841 331.407C802.231 331.095 802.673 330.861 803.167 330.705C803.661 330.549 804.142 330.471 804.61 330.471H828.79V336.945H809.836ZM840.991 336.945V346.5H850.624V339.207H859.945V352.935H835.765C835.297 352.935 834.816 352.857 834.322 352.701C833.828 352.545 833.386 352.324 832.996 352.038C832.606 351.726 832.281 351.349 832.021 350.907C831.787 350.465 831.67 349.971 831.67 349.425V333.981C831.67 333.435 831.787 332.941 832.021 332.499C832.281 332.057 832.606 331.693 832.996 331.407C833.386 331.095 833.828 330.861 834.322 330.705C834.816 330.549 835.297 330.471 835.765 330.471H859.945V336.945H840.991ZM872.145 336.945V346.5H881.778V339.207H891.099V352.935H866.919C866.451 352.935 865.97 352.857 865.476 352.701C864.982 352.545 864.54 352.324 864.15 352.038C863.76 351.726 863.435 351.349 863.175 350.907C862.941 350.465 862.824 349.971 862.824 349.425V333.981C862.824 333.435 862.941 332.941 863.175 332.499C863.435 332.057 863.76 331.693 864.15 331.407C864.54 331.095 864.982 330.861 865.476 330.705C865.97 330.549 866.451 330.471 866.919 330.471H891.099V336.945H872.145ZM903.299 336.945V346.5H912.932V339.207H922.253V352.935H898.073C897.605 352.935 897.124 352.857 896.63 352.701C896.136 352.545 895.694 352.324 895.304 352.038C894.914 351.726 894.589 351.349 894.329 350.907C894.095 350.465 893.978 349.971 893.978 349.425V333.981C893.978 333.435 894.095 332.941 894.329 332.499C894.589 332.057 894.914 331.693 895.304 331.407C895.694 331.095 896.136 330.861 896.63 330.705C897.124 330.549 897.605 330.471 898.073 330.471H922.253V336.945H903.299ZM926.731 352.935C926.263 352.935 925.899 352.753 925.639 352.389C925.379 352.025 925.249 351.726 925.249 351.492V347.67C925.249 347.358 925.418 347.072 925.756 346.812C926.094 346.552 926.419 346.422 926.731 346.422H933.01C933.322 346.474 933.621 346.63 933.907 346.89C934.193 347.124 934.336 347.384 934.336 347.67V351.414C934.336 351.804 934.206 352.155 933.946 352.467C933.686 352.779 933.374 352.935 933.01 352.935H926.731ZM934.453 344.823H925.132V330.471H934.453V344.823ZM938.957 352.935C938.489 352.935 938.125 352.753 937.865 352.389C937.605 352.025 937.475 351.726 937.475 351.492V347.67C937.475 347.358 937.644 347.072 937.982 346.812C938.32 346.552 938.645 346.422 938.957 346.422H945.236C945.548 346.474 945.847 346.63 946.133 346.89C946.419 347.124 946.562 347.384 946.562 347.67V351.414C946.562 351.804 946.432 352.155 946.172 352.467C945.912 352.779 945.6 352.935 945.236 352.935H938.957ZM946.679 344.823H937.358V330.471H946.679V344.823ZM951.183 352.935C950.715 352.935 950.351 352.753 950.091 352.389C949.831 352.025 949.701 351.726 949.701 351.492V347.67C949.701 347.358 949.87 347.072 950.208 346.812C950.546 346.552 950.871 346.422 951.183 346.422H957.462C957.774 346.474 958.073 346.63 958.359 346.89C958.645 347.124 958.788 347.384 958.788 347.67V351.414C958.788 351.804 958.658 352.155 958.398 352.467C958.138 352.779 957.826 352.935 957.462 352.935H951.183ZM958.905 344.823H949.584V330.471H958.905V344.823ZM963.408 352.935C962.94 352.935 962.576 352.753 962.316 352.389C962.056 352.025 961.926 351.726 961.926 351.492V347.67C961.926 347.358 962.095 347.072 962.433 346.812C962.771 346.552 963.096 346.422 963.408 346.422H969.687C969.999 346.474 970.298 346.63 970.584 346.89C970.87 347.124 971.013 347.384 971.013 347.67V351.414C971.013 351.804 970.883 352.155 970.623 352.467C970.363 352.779 970.051 352.935 969.687 352.935H963.408ZM971.13 344.823H961.809V330.471H971.13V344.823ZM975.634 352.935C975.166 352.935 974.802 352.753 974.542 352.389C974.282 352.025 974.152 351.726 974.152 351.492V347.67C974.152 347.358 974.321 347.072 974.659 346.812C974.997 346.552 975.322 346.422 975.634 346.422H981.913C982.225 346.474 982.524 346.63 982.81 346.89C983.096 347.124 983.239 347.384 983.239 347.67V351.414C983.239 351.804 983.109 352.155 982.849 352.467C982.589 352.779 982.277 352.935 981.913 352.935H975.634ZM983.356 344.823H974.035V330.471H983.356V344.823Z" fill="black"/>
<path d="M674 88.3233L694.207 53.3233L653.793 53.3233L674 88.3233ZM670.5 -1.5299e-07L670.5 56.8233L677.5 56.8233L677.5 1.5299e-07L670.5 -1.5299e-07Z" fill="white"/>
<defs>
<filter id="filter0_d_17_1184" x="0" y="107.935" width="1229" height="620" filterUnits="userSpaceOnUse" color-interpolation-filters="sRGB">
<feFlood flood-opacity="0" result="BackgroundImageFix"/>
<feColorMatrix in="SourceAlpha" type="matrix" values="0 0 0 0 0 0 0 0 0 0 0 0 0 0 0 0 0 0 127 0" result="hardAlpha"/>
<feOffset dx="-21" dy="27"/>
<feComposite in2="hardAlpha" operator="out"/>
<feColorMatrix type="matrix" values="0 0 0 0 0 0 0 0 0 0 0 0 0 0 0 0 0 0 1 0"/>
<feBlend mode="normal" in2="BackgroundImageFix" result="effect1_dropShadow_17_1184"/>
<feBlend mode="normal" in="SourceGraphic" in2="effect1_dropShadow_17_1184" result="shape"/>
</filter>
</defs>
</svg>
