<svg width="105" height="32" viewBox="0 0 105 32" fill="none" xmlns="http://www.w3.org/2000/svg">
<rect x="1" y="1" width="103" height="30" fill="white" fill-opacity="0.13" stroke="white" stroke-width="2"/>
<path d="M4.61066 12.36H14.3607V14.85H10.8507V18.525H12.2607V21H8.84066C8.66066 21 8.47566 20.97 8.28566 20.91C8.09566 20.85 7.92566 20.765 7.77566 20.655C7.62566 20.535 7.50066 20.39 7.40066 20.22C7.31066 20.05 7.26566 19.86 7.26566 19.65V14.85H4.61066V12.36ZM15.4652 13.71C15.4652 13.5 15.5102 13.31 15.6002 13.14C15.7002 12.97 15.8252 12.83 15.9752 12.72C16.1252 12.6 16.2952 12.51 16.4852 12.45C16.6752 12.39 16.8602 12.36 17.0402 12.36H24.7652C24.9452 12.36 25.1302 12.39 25.3202 12.45C25.5102 12.51 25.6802 12.6 25.8302 12.72C25.9802 12.83 26.1002 12.97 26.1902 13.14C26.2902 13.31 26.3402 13.5 26.3402 13.71V17.85H20.1002L21.2252 15.48H22.7552V14.85H19.0502V18.51H26.3402V21H17.0402C16.8602 21 16.6752 20.97 16.4852 20.91C16.2952 20.85 16.1252 20.765 15.9752 20.655C15.8252 20.535 15.7002 20.39 15.6002 20.22C15.5102 20.05 15.4652 19.86 15.4652 19.65V13.71ZM35.5776 18.525L36.8376 21H28.8576C28.4876 21 28.1576 20.895 27.8676 20.685C27.5876 20.465 27.4476 20.14 27.4476 19.71V12.36H31.0326V18.525H35.5776ZM37.5111 13.71C37.5111 13.5 37.5561 13.31 37.6461 13.14C37.7461 12.97 37.8711 12.83 38.0211 12.72C38.1711 12.6 38.3411 12.51 38.5311 12.45C38.7211 12.39 38.9061 12.36 39.0861 12.36H46.8111C46.9911 12.36 47.1761 12.39 47.3661 12.45C47.5561 12.51 47.7261 12.6 47.8761 12.72C48.0261 12.83 48.1461 12.97 48.2361 13.14C48.3361 13.31 48.3861 13.5 48.3861 13.71V17.85H42.1461L43.2711 15.48H44.8011V14.85H41.0961V18.51H48.3861V21H39.0861C38.9061 21 38.7211 20.97 38.5311 20.91C38.3411 20.85 38.1711 20.765 38.0211 20.655C37.8711 20.535 37.7461 20.39 37.6461 20.22C37.5561 20.05 37.5111 19.86 37.5111 19.65V13.71ZM53.0785 14.85V18.525H56.7835V15.72H60.3685V21H51.0685C50.8885 21 50.7035 20.97 50.5135 20.91C50.3235 20.85 50.1535 20.765 50.0035 20.655C49.8535 20.535 49.7285 20.39 49.6285 20.22C49.5385 20.05 49.4935 19.86 49.4935 19.65V13.71C49.4935 13.5 49.5385 13.31 49.6285 13.14C49.7285 12.97 49.8535 12.83 50.0035 12.72C50.1535 12.6 50.3235 12.51 50.5135 12.45C50.7035 12.39 50.8885 12.36 51.0685 12.36H60.3685V14.85H53.0785ZM70.8809 18.735H70.3709L72.8009 21H68.6609L65.3609 18.27H65.0609V21H61.4759V12.36H70.8809C71.0609 12.36 71.2409 12.385 71.4209 12.435C71.6009 12.485 71.7609 12.565 71.9009 12.675C72.0409 12.775 72.1509 12.905 72.2309 13.065C72.3209 13.225 72.3659 13.41 72.3659 13.62V17.475C72.3659 17.685 72.3209 17.87 72.2309 18.03C72.1509 18.19 72.0409 18.325 71.9009 18.435C71.7609 18.535 71.6009 18.61 71.4209 18.66C71.2409 18.71 71.0609 18.735 70.8809 18.735ZM68.7809 14.85H65.0609V17.565C65.3809 17.055 65.7859 16.71 66.2759 16.53C66.7659 16.35 67.2859 16.26 67.8359 16.26H68.7809V14.85ZM85.458 21H81.858V18.75H79.113L80.388 16.26H81.858V14.85H80.223L77.058 21H73.248L77.628 12.36H84.213C84.333 12.36 84.463 12.395 84.603 12.465C84.753 12.535 84.888 12.625 85.008 12.735C85.138 12.835 85.243 12.95 85.323 13.08C85.413 13.2 85.458 13.32 85.458 13.44V21ZM99.3937 13.71V21H95.8087V14.835H94.7587V21H91.2037V14.835H90.1537V21H86.5687V12.36H97.8187C97.9987 12.36 98.1837 12.39 98.3737 12.45C98.5637 12.51 98.7337 12.6 98.8837 12.72C99.0337 12.83 99.1537 12.97 99.2437 13.14C99.3437 13.31 99.3937 13.5 99.3937 13.71Z" fill="white"/>
</svg>
