<svg width="105" height="32" viewBox="0 0 105 32" fill="none" xmlns="http://www.w3.org/2000/svg">
<rect x="1" y="1" width="103" height="30" fill="white" fill-opacity="0.13" stroke="white" stroke-width="2"/>
<path d="M11.9788 12.36H21.7288V14.85H18.2188V18.525H19.6288V21H16.2088C16.0288 21 15.8438 20.97 15.6538 20.91C15.4638 20.85 15.2938 20.765 15.1438 20.655C14.9938 20.535 14.8688 20.39 14.7688 20.22C14.6788 20.05 14.6338 19.86 14.6338 19.65V14.85H11.9788V12.36ZM31.3683 12.36L33.0933 16.47L34.8033 12.36H38.4183L34.6533 21H31.5333L30.5283 18.645L29.4933 21H26.3733L22.6083 12.36H26.2233L27.9333 16.47L28.7733 14.49L27.8283 12.36H31.3683ZM39.2982 12.36H46.3332V14.85H44.6082V18.51H46.3332V21H39.2982V18.51H41.0232V14.85H39.2982V12.36ZM47.4427 12.36H57.1927V14.85H53.6827V18.525H55.0927V21H51.6727C51.4927 21 51.3077 20.97 51.1177 20.91C50.9277 20.85 50.7577 20.765 50.6077 20.655C50.4577 20.535 50.3327 20.39 50.2327 20.22C50.1427 20.05 50.0977 19.86 50.0977 19.65V14.85H47.4427V12.36ZM58.2972 12.36H68.0472V14.85H64.5372V18.525H65.9472V21H62.5272C62.3472 21 62.1622 20.97 61.9722 20.91C61.7822 20.85 61.6122 20.765 61.4622 20.655C61.3122 20.535 61.1872 20.39 61.0872 20.22C60.9972 20.05 60.9522 19.86 60.9522 19.65V14.85H58.2972V12.36ZM69.1517 13.71C69.1517 13.5 69.1967 13.31 69.2867 13.14C69.3867 12.97 69.5117 12.83 69.6617 12.72C69.8117 12.6 69.9817 12.51 70.1717 12.45C70.3617 12.39 70.5467 12.36 70.7267 12.36H78.4517C78.6317 12.36 78.8167 12.39 79.0067 12.45C79.1967 12.51 79.3667 12.6 79.5167 12.72C79.6667 12.83 79.7867 12.97 79.8767 13.14C79.9767 13.31 80.0267 13.5 80.0267 13.71V17.85H73.7867L74.9117 15.48H76.4417V14.85H72.7367V18.51H80.0267V21H70.7267C70.5467 21 70.3617 20.97 70.1717 20.91C69.9817 20.85 69.8117 20.765 69.6617 20.655C69.5117 20.535 69.3867 20.39 69.2867 20.22C69.1967 20.05 69.1517 19.86 69.1517 19.65V13.71ZM90.5391 18.735H90.0291L92.4591 21H88.3191L85.0191 18.27H84.7191V21H81.1341V12.36H90.5391C90.7191 12.36 90.8991 12.385 91.0791 12.435C91.2591 12.485 91.4191 12.565 91.5591 12.675C91.6991 12.775 91.8091 12.905 91.8891 13.065C91.9791 13.225 92.0241 13.41 92.0241 13.62V17.475C92.0241 17.685 91.9791 17.87 91.8891 18.03C91.8091 18.19 91.6991 18.325 91.5591 18.435C91.4191 18.535 91.2591 18.61 91.0791 18.66C90.8991 18.71 90.7191 18.735 90.5391 18.735ZM88.4391 14.85H84.7191V17.565C85.0391 17.055 85.4441 16.71 85.9341 16.53C86.4241 16.35 86.9441 16.26 87.4941 16.26H88.4391V14.85Z" fill="white"/>
</svg>
